<svg width="328" height="212" viewBox="0 0 328 212" fill="none" xmlns="http://www.w3.org/2000/svg">
<path fill-rule="evenodd" clip-rule="evenodd" d="M101.142 154.964V105.14L100.886 106.022L51.1555 91.6277L50.49 91.435V90.7422V59.1346L36.6213 44.9028L32.2795 44.8487C31.648 49.9473 27.2728 53.8634 22.0206 53.798C16.382 53.7278 11.868 49.0956 11.9381 43.4516C12.0082 37.8076 16.6359 33.2891 22.2745 33.3593C27.678 33.4265 32.0489 37.6836 32.3421 43.0057L37.0263 43.064L37.4083 43.0687L37.675 43.3424L50.49 56.4929V28.2952C49.4215 27.9483 48.6489 26.9438 48.6489 25.7586C48.6489 24.2862 49.8414 23.0925 51.3125 23.0925C52.7835 23.0925 53.976 24.2862 53.976 25.7586C53.976 26.8689 53.2979 27.8207 52.3337 28.2218V90.0493L84.1949 99.2712L70.958 83.0327L70.7507 82.7784V82.4503V2.48308C69.6822 2.13617 68.9097 1.13164 68.9097 -0.0534935C68.9097 -1.52596 70.1022 -2.71962 71.5732 -2.71962C73.0442 -2.71962 74.2367 -1.52596 74.2367 -0.0534935C74.2367 1.05686 73.5586 2.00868 72.5944 2.40967V82.1222L87.1221 99.9442L86.9643 100.073L101.142 104.176V-23H102.985V103.261L116.235 90.5829V28.3808C115.219 28.0054 114.494 27.0268 114.494 25.8787C114.494 24.4062 115.686 23.2126 117.157 23.2126C118.628 23.2126 119.821 24.4062 119.821 25.8787C119.821 27.0268 119.096 28.0054 118.079 28.3808V90.9767V91.3705L117.795 91.6428L102.985 105.812V138.346L131.995 106.175V60.4456C130.863 60.138 130.031 59.1025 130.031 57.8725C130.031 56.4 131.224 55.2063 132.695 55.2063C134.166 55.2063 135.358 56.4 135.358 57.8725C135.358 58.9351 134.737 59.8526 133.838 60.2809V106.53V106.884L133.601 107.147L102.985 141.1V154.042H149.563H197.507H197.887L198.157 154.31L230.293 186.258H328.242V188.102H229.913H229.533L229.263 187.834L197.127 155.886H149.563H102.064H101.142V154.964ZM22.378 42.8817L30.4933 42.9827C30.1916 38.6784 26.635 35.2574 22.2516 35.2028C17.6329 35.1453 13.8391 38.847 13.7816 43.4745C13.7241 48.102 17.4248 51.897 22.0435 51.9545C26.2748 52.0071 29.8139 48.9046 30.4218 44.8256L22.3551 44.7252L22.378 42.8817ZM263.241 -22.3332V129.011C268.448 129.477 272.53 133.856 272.53 139.19C272.53 144.834 267.958 149.41 262.319 149.41C256.681 149.41 252.109 144.834 252.109 139.19C252.109 133.856 256.191 129.477 261.398 129.011V30.3049L248.148 43.3725V106.915C249.165 107.291 249.89 108.269 249.89 109.417C249.89 110.89 248.697 112.084 247.226 112.084C245.755 112.084 244.563 110.89 244.563 109.417C244.563 108.269 245.288 107.291 246.304 106.915V42.9869V42.6013L246.579 42.3306L261.398 27.7154V-3.44317L230.835 27.1492V89.5855C231.852 89.961 232.577 90.9395 232.577 92.0876C232.577 93.5601 231.384 94.7538 229.913 94.7538C228.442 94.7538 227.25 93.5601 227.25 92.0876C227.25 90.9395 227.975 89.9609 228.991 89.5855V46.3247L216.408 58.9208V63.2683C221.508 63.8374 225.474 68.1676 225.474 73.4251C225.474 79.0695 220.903 83.6452 215.264 83.6452C209.625 83.6452 205.054 79.0695 205.054 73.4251C205.054 68.0161 209.251 63.5885 214.564 63.2285V58.5392V58.1576L214.834 57.8877L228.991 43.7161V26.7677V26.3861L229.261 26.1161L261.398 -6.05181V-22.3332H263.241ZM214.564 65.0775C210.272 65.4334 206.897 69.0333 206.897 73.4251C206.897 78.053 210.645 81.8015 215.264 81.8015C219.883 81.8015 223.63 78.053 223.63 73.4251C223.63 69.1859 220.486 65.6845 216.408 65.1262V73.2029H214.564V65.0775ZM261.398 136.301V130.863C257.212 131.323 253.953 134.874 253.953 139.19C253.953 143.818 257.7 147.566 262.319 147.566C266.939 147.566 270.686 143.818 270.686 139.19C270.686 134.874 267.427 131.323 263.241 130.863V136.301H261.398ZM290.731 57.8725C290.731 56.7244 291.456 55.7458 292.472 55.3703V-22.3332H294.316V55.3703C295.333 55.7458 296.058 56.7244 296.058 57.8725C296.058 59.3449 294.865 60.5386 293.394 60.5386C291.923 60.5386 290.731 59.3449 290.731 57.8725ZM313.405 57.6506V-22.3332H311.561V57.4025L292.597 90.0701L292.472 90.2847V90.5329V129.011C287.265 129.477 283.184 133.856 283.184 139.19C283.184 144.834 287.755 149.41 293.394 149.41C299.033 149.41 303.604 144.834 303.604 139.19C303.604 133.856 299.523 129.477 294.316 129.011V90.7811L313.28 58.1134L313.405 57.8988V57.6506ZM292.472 130.863V136.688C291.456 137.063 290.731 138.042 290.731 139.19C290.731 140.662 291.923 141.856 293.394 141.856C294.865 141.856 296.058 140.662 296.058 139.19C296.058 138.042 295.333 137.063 294.316 136.688V130.863C298.502 131.323 301.761 134.874 301.761 139.19C301.761 143.818 298.013 147.566 293.394 147.566C288.775 147.566 285.028 143.818 285.028 139.19C285.028 134.874 288.287 131.323 292.472 130.863ZM148.641 102.297V138.745V139.667H149.563H197.127L229.263 171.614L229.533 171.882H229.913H328.242V170.039H230.293L198.157 138.091L197.887 137.823H197.507H150.485V102.217C155.478 101.549 159.33 97.2689 159.33 92.0879C159.33 86.4435 154.759 81.8677 149.12 81.8677C143.481 81.8677 138.909 86.4435 138.909 92.0879C138.909 97.5719 143.224 102.047 148.641 102.297ZM150.485 100.353V91.8653H148.641V100.451C144.245 100.203 140.753 96.555 140.753 92.0879C140.753 87.46 144.501 83.7114 149.12 83.7114C153.739 83.7114 157.486 87.46 157.486 92.0879C157.486 96.2499 154.455 99.7008 150.485 100.353ZM50.4091 153.93V179.339V180.261H51.331H117.402L148.912 211.73L149.182 212H149.563H229.913H328.242V210.156H229.913H149.945L118.435 178.687L118.165 178.417H117.783H52.2528V153L52.3747 152.579L52.2528 152.544V137.684C57.2111 137.039 61.0693 132.826 61.1333 127.677C61.2034 122.033 56.6893 117.401 51.0508 117.33C45.4123 117.26 40.7846 121.779 40.7145 127.423C40.646 132.937 44.9529 137.485 50.4091 137.757V152.01L24.001 144.367V112.237C29.1492 111.771 33.2135 107.472 33.2792 102.185C33.3493 96.5415 28.8352 91.9092 23.1967 91.839C17.5582 91.7688 12.9304 96.2873 12.8603 101.931C12.7935 107.311 16.891 111.771 22.1574 112.238V143.833L3.30933 138.378V74.6603C4.46831 74.3714 5.32707 73.3226 5.32707 72.0731C5.32707 70.6006 4.13456 69.4069 2.66353 69.4069C1.1925 69.4069 0 70.6006 0 72.0731C0 73.1143 0.596265 74.0161 1.46564 74.455V139.071V139.764L2.13119 139.956L50.4091 153.93ZM31.4356 102.163C31.3825 106.439 28.1383 109.925 24.001 110.384V102.466H22.1574V110.385C17.9229 109.925 14.6498 106.308 14.7039 101.954C14.7613 97.3267 18.5551 93.6251 23.1738 93.6825C27.7924 93.74 31.4931 97.535 31.4356 102.163ZM50.4091 135.911C45.9838 135.641 42.5022 131.935 42.558 127.446C42.6155 122.818 46.4093 119.116 51.0279 119.174C55.6466 119.231 59.3472 123.026 59.2898 127.654C59.2383 131.792 56.1985 135.19 52.2528 135.821V129.493C53.2052 129.087 53.8729 128.141 53.8729 127.039C53.8729 125.567 52.6804 124.373 51.2094 124.373C49.7383 124.373 48.5458 125.567 48.5458 127.039C48.5458 128.232 49.3291 129.243 50.4091 129.583V135.911ZM150.707 -22.5552V-7.59905L166.206 8.3516L166.467 8.61991V8.99401V104.25C167.483 104.625 168.208 105.604 168.208 106.752C168.208 108.224 167.016 109.418 165.545 109.418C164.074 109.418 162.881 108.224 162.881 106.752C162.881 105.604 163.606 104.625 164.623 104.25V9.36811L149.124 -6.58254L148.864 -6.85085V-7.22495V-22.5552H150.707ZM134.504 9.72265V-22.778H132.66V10.1042V10.4858L132.93 10.7557L148.198 26.0382V40.2624C147.181 40.6378 146.456 41.6164 146.456 42.7645C146.456 44.237 147.649 45.4306 149.12 45.4306C150.591 45.4306 151.783 44.237 151.783 42.7645C151.783 41.6164 151.058 40.6378 150.041 40.2624V25.6566V25.2751L149.772 25.0051L134.504 9.72265Z" fill="url(#paint0_linear_2_187)"/>
<defs>
<linearGradient id="paint0_linear_2_187" x1="540.5" y1="-61.5" x2="-75.8071" y2="204.447" gradientUnits="userSpaceOnUse">
<stop offset="0.443464" stop-color="#8A92A6" stop-opacity="0.48"/>
<stop offset="0.598744" stop-color="#4C7EF2"/>
<stop offset="0.889905" stop-color="#ADADAD" stop-opacity="0.03"/>
</linearGradient>
</defs>
</svg>
