<svg width="508" height="496" viewBox="0 0 508 496" fill="none" xmlns="http://www.w3.org/2000/svg">
<path d="M130 26.0085V478.009" stroke="url(#paint0_linear_2_97)" stroke-opacity="0.4" stroke-width="3" stroke-linecap="round" stroke-dasharray="10 10"/>
<path d="M249 26.0085V478.009" stroke="url(#paint1_linear_2_97)" stroke-opacity="0.4" stroke-width="3" stroke-linecap="round" stroke-dasharray="10 10"/>
<path d="M368 26.0085V478.009" stroke="url(#paint2_linear_2_97)" stroke-opacity="0.4" stroke-width="3" stroke-linecap="round" stroke-dasharray="10 10"/>
<path d="M9 2V467.017" stroke="url(#paint3_linear_2_97)" stroke-opacity="0.9" stroke-width="3" stroke-linecap="round"/>
<g filter="url(#filter0_d_2_97)">
<rect x="453" y="250.009" width="19" height="430" rx="9.5" transform="rotate(90 453 250.009)" fill="#44FACE"/>
</g>
<g filter="url(#filter1_d_2_97)">
<rect x="99" y="380.009" width="19" height="76" rx="9.5" transform="rotate(90 99 380.009)" fill="#00CF6C"/>
</g>
<g filter="url(#filter2_d_2_97)">
<rect x="208" y="315.009" width="19" height="185" rx="9.5" transform="rotate(90 208 315.009)" fill="#00FFA3"/>
</g>
<path d="M26.108 481.959L24.176 482.995L23.7 482.029L26.444 480.559H27.2V490.009H26.108V481.959ZM29.6776 486.817V483.751C29.6776 482.799 30.0182 482.01 30.6996 481.385C31.3902 480.741 32.2349 480.419 33.2336 480.419C34.2416 480.419 35.0816 480.741 35.7536 481.385C36.4349 482.01 36.7756 482.799 36.7756 483.751V486.817C36.7756 487.769 36.4396 488.562 35.7676 489.197C35.0862 489.831 34.2416 490.149 33.2336 490.149C32.2349 490.149 31.3902 489.831 30.6996 489.197C30.0182 488.571 29.6776 487.778 29.6776 486.817ZM30.7696 483.737V486.831C30.7696 487.475 31.0076 488.016 31.4836 488.455C31.9502 488.884 32.5336 489.099 33.2336 489.099C33.9336 489.099 34.5122 488.884 34.9696 488.455C35.4456 488.016 35.6836 487.475 35.6836 486.831V483.737C35.6836 483.102 35.4456 482.565 34.9696 482.127C34.5029 481.688 33.9242 481.469 33.2336 481.469C32.5522 481.469 31.9689 481.688 31.4836 482.127C31.0076 482.565 30.7696 483.102 30.7696 483.737Z" fill="#D4D4D4"/>
<path d="M145.852 483.261C145.852 482.766 145.651 482.346 145.25 482.001C144.839 481.646 144.359 481.469 143.808 481.469C143.313 481.469 142.87 481.613 142.478 481.903C142.086 482.183 141.792 482.575 141.596 483.079L140.588 482.603C140.868 481.931 141.293 481.399 141.862 481.007C142.431 480.615 143.08 480.419 143.808 480.419C144.685 480.419 145.437 480.694 146.062 481.245C146.678 481.795 146.986 482.458 146.986 483.233C146.986 483.737 146.832 484.231 146.524 484.717C146.216 485.193 145.712 485.767 145.012 486.439L142.394 488.959H147.126V490.009H140.686V489.211L144.284 485.725C144.853 485.155 145.255 484.698 145.488 484.353C145.731 483.998 145.852 483.634 145.852 483.261ZM148.674 486.817V483.751C148.674 482.799 149.014 482.01 149.696 481.385C150.386 480.741 151.231 480.419 152.23 480.419C153.238 480.419 154.078 480.741 154.75 481.385C155.431 482.01 155.772 482.799 155.772 483.751V486.817C155.772 487.769 155.436 488.562 154.764 489.197C154.082 489.831 153.238 490.149 152.23 490.149C151.231 490.149 150.386 489.831 149.696 489.197C149.014 488.571 148.674 487.778 148.674 486.817ZM149.766 483.737V486.831C149.766 487.475 150.004 488.016 150.48 488.455C150.946 488.884 151.53 489.099 152.23 489.099C152.93 489.099 153.508 488.884 153.966 488.455C154.442 488.016 154.68 487.475 154.68 486.831V483.737C154.68 483.102 154.442 482.565 153.966 482.127C153.499 481.688 152.92 481.469 152.23 481.469C151.548 481.469 150.965 481.688 150.48 482.127C150.004 482.565 149.766 483.102 149.766 483.737Z" fill="#D4D4D4"/>
<path d="M265.88 483.051C265.88 482.593 265.679 482.22 265.278 481.931C264.886 481.623 264.391 481.469 263.794 481.469C263.318 481.469 262.893 481.571 262.52 481.777C262.147 481.982 261.876 482.257 261.708 482.603L260.728 482.113C260.98 481.59 261.377 481.179 261.918 480.881C262.469 480.573 263.094 480.419 263.794 480.419C264.718 480.419 265.483 480.671 266.09 481.175C266.706 481.669 267.014 482.285 267.014 483.023C267.014 483.471 266.888 483.881 266.636 484.255C266.393 484.619 266.048 484.913 265.6 485.137C266.104 485.351 266.501 485.664 266.79 486.075C267.089 486.476 267.238 486.924 267.238 487.419C267.238 488.203 266.911 488.851 266.258 489.365C265.605 489.887 264.797 490.149 263.836 490.149C263.08 490.149 262.408 489.985 261.82 489.659C261.241 489.323 260.835 488.875 260.602 488.315L261.652 487.923C261.801 488.277 262.072 488.562 262.464 488.777C262.856 488.991 263.313 489.099 263.836 489.099C264.48 489.099 265.021 488.935 265.46 488.609C265.889 488.291 266.104 487.881 266.104 487.377C266.104 486.901 265.889 486.504 265.46 486.187C265.031 485.86 264.508 485.697 263.892 485.697H263.178V484.675H263.696C264.331 484.675 264.849 484.521 265.25 484.213C265.67 483.905 265.88 483.517 265.88 483.051ZM268.783 486.817V483.751C268.783 482.799 269.124 482.01 269.805 481.385C270.496 480.741 271.34 480.419 272.339 480.419C273.347 480.419 274.187 480.741 274.859 481.385C275.54 482.01 275.881 482.799 275.881 483.751V486.817C275.881 487.769 275.545 488.562 274.873 489.197C274.192 489.831 273.347 490.149 272.339 490.149C271.34 490.149 270.496 489.831 269.805 489.197C269.124 488.571 268.783 487.778 268.783 486.817ZM269.875 483.737V486.831C269.875 487.475 270.113 488.016 270.589 488.455C271.056 488.884 271.639 489.099 272.339 489.099C273.039 489.099 273.618 488.884 274.075 488.455C274.551 488.016 274.789 487.475 274.789 486.831V483.737C274.789 483.102 274.551 482.565 274.075 482.127C273.608 481.688 273.03 481.469 272.339 481.469C271.658 481.469 271.074 481.688 270.589 482.127C270.113 482.565 269.875 483.102 269.875 483.737Z" fill="#D4D4D4"/>
<path d="M384.866 490.009V488.035H379.602V486.985L384.936 480.559H385.958V486.985H387.344V488.035H385.958V490.009H384.866ZM384.866 482.225L380.932 486.985H384.866V482.225ZM388.685 486.817V483.751C388.685 482.799 389.026 482.01 389.707 481.385C390.398 480.741 391.243 480.419 392.241 480.419C393.249 480.419 394.089 480.741 394.761 481.385C395.443 482.01 395.783 482.799 395.783 483.751V486.817C395.783 487.769 395.447 488.562 394.775 489.197C394.094 489.831 393.249 490.149 392.241 490.149C391.243 490.149 390.398 489.831 389.707 489.197C389.026 488.571 388.685 487.778 388.685 486.817ZM389.777 483.737V486.831C389.777 487.475 390.015 488.016 390.491 488.455C390.958 488.884 391.541 489.099 392.241 489.099C392.941 489.099 393.52 488.884 393.977 488.455C394.453 488.016 394.691 487.475 394.691 486.831V483.737C394.691 483.102 394.453 482.565 393.977 482.127C393.511 481.688 392.932 481.469 392.241 481.469C391.56 481.469 390.977 481.688 390.491 482.127C390.015 482.565 389.777 483.102 389.777 483.737Z" fill="#D4D4D4"/>
<g filter="url(#filter3_d_2_97)">
<rect x="453" y="175.009" width="19" height="430" rx="9.5" transform="rotate(90 453 175.009)" fill="#09A2FE"/>
</g>
<g filter="url(#filter4_d_2_97)">
<rect x="268" y="110.009" width="19" height="245" rx="9.5" transform="rotate(90 268 110.009)" fill="#0C62EE"/>
</g>
<g filter="url(#filter5_d_2_97)">
<rect x="130" y="46.0085" width="19" height="107" rx="9.5" transform="rotate(90 130 46.0085)" fill="#2B40BF"/>
</g>
<path d="M14 221.009L506 221.009" stroke="url(#paint4_linear_2_97)" stroke-opacity="0.9" stroke-width="3" stroke-linecap="round"/>
<defs>
<filter id="filter0_d_2_97" x="0" y="225.009" width="476" height="65" filterUnits="userSpaceOnUse" color-interpolation-filters="sRGB">
<feFlood flood-opacity="0" result="BackgroundImageFix"/>
<feColorMatrix in="SourceAlpha" type="matrix" values="0 0 0 0 0 0 0 0 0 0 0 0 0 0 0 0 0 0 127 0" result="hardAlpha"/>
<feOffset dy="-2"/>
<feGaussianBlur stdDeviation="11.5"/>
<feComposite in2="hardAlpha" operator="out"/>
<feColorMatrix type="matrix" values="0 0 0 0 0.027451 0 0 0 0 0.996078 0 0 0 0 0.879843 0 0 0 0.8 0"/>
<feBlend mode="normal" in2="BackgroundImageFix" result="effect1_dropShadow_2_97"/>
<feBlend mode="normal" in="SourceGraphic" in2="effect1_dropShadow_2_97" result="shape"/>
</filter>
<filter id="filter1_d_2_97" x="0" y="355.009" width="122" height="65" filterUnits="userSpaceOnUse" color-interpolation-filters="sRGB">
<feFlood flood-opacity="0" result="BackgroundImageFix"/>
<feColorMatrix in="SourceAlpha" type="matrix" values="0 0 0 0 0 0 0 0 0 0 0 0 0 0 0 0 0 0 127 0" result="hardAlpha"/>
<feOffset dy="-2"/>
<feGaussianBlur stdDeviation="11.5"/>
<feComposite in2="hardAlpha" operator="out"/>
<feColorMatrix type="matrix" values="0 0 0 0 0.027451 0 0 0 0 0.996078 0 0 0 0 0.879843 0 0 0 0.8 0"/>
<feBlend mode="normal" in2="BackgroundImageFix" result="effect1_dropShadow_2_97"/>
<feBlend mode="normal" in="SourceGraphic" in2="effect1_dropShadow_2_97" result="shape"/>
</filter>
<filter id="filter2_d_2_97" x="0" y="290.009" width="231" height="65" filterUnits="userSpaceOnUse" color-interpolation-filters="sRGB">
<feFlood flood-opacity="0" result="BackgroundImageFix"/>
<feColorMatrix in="SourceAlpha" type="matrix" values="0 0 0 0 0 0 0 0 0 0 0 0 0 0 0 0 0 0 127 0" result="hardAlpha"/>
<feOffset dy="-2"/>
<feGaussianBlur stdDeviation="11.5"/>
<feComposite in2="hardAlpha" operator="out"/>
<feColorMatrix type="matrix" values="0 0 0 0 0.027451 0 0 0 0 0.996078 0 0 0 0 0.879843 0 0 0 0.8 0"/>
<feBlend mode="normal" in2="BackgroundImageFix" result="effect1_dropShadow_2_97"/>
<feBlend mode="normal" in="SourceGraphic" in2="effect1_dropShadow_2_97" result="shape"/>
</filter>
<filter id="filter3_d_2_97" x="0" y="150.009" width="476" height="65" filterUnits="userSpaceOnUse" color-interpolation-filters="sRGB">
<feFlood flood-opacity="0" result="BackgroundImageFix"/>
<feColorMatrix in="SourceAlpha" type="matrix" values="0 0 0 0 0 0 0 0 0 0 0 0 0 0 0 0 0 0 127 0" result="hardAlpha"/>
<feOffset dy="-2"/>
<feGaussianBlur stdDeviation="11.5"/>
<feComposite in2="hardAlpha" operator="out"/>
<feColorMatrix type="matrix" values="0 0 0 0 0.163059 0 0 0 0 0.027451 0 0 0 0 0.996078 0 0 0 0.8 0"/>
<feBlend mode="normal" in2="BackgroundImageFix" result="effect1_dropShadow_2_97"/>
<feBlend mode="normal" in="SourceGraphic" in2="effect1_dropShadow_2_97" result="shape"/>
</filter>
<filter id="filter4_d_2_97" x="0" y="85.0085" width="291" height="65" filterUnits="userSpaceOnUse" color-interpolation-filters="sRGB">
<feFlood flood-opacity="0" result="BackgroundImageFix"/>
<feColorMatrix in="SourceAlpha" type="matrix" values="0 0 0 0 0 0 0 0 0 0 0 0 0 0 0 0 0 0 127 0" result="hardAlpha"/>
<feOffset dy="-2"/>
<feGaussianBlur stdDeviation="11.5"/>
<feComposite in2="hardAlpha" operator="out"/>
<feColorMatrix type="matrix" values="0 0 0 0 0.163059 0 0 0 0 0.027451 0 0 0 0 0.996078 0 0 0 0.8 0"/>
<feBlend mode="normal" in2="BackgroundImageFix" result="effect1_dropShadow_2_97"/>
<feBlend mode="normal" in="SourceGraphic" in2="effect1_dropShadow_2_97" result="shape"/>
</filter>
<filter id="filter5_d_2_97" x="0" y="21.0085" width="153" height="65" filterUnits="userSpaceOnUse" color-interpolation-filters="sRGB">
<feFlood flood-opacity="0" result="BackgroundImageFix"/>
<feColorMatrix in="SourceAlpha" type="matrix" values="0 0 0 0 0 0 0 0 0 0 0 0 0 0 0 0 0 0 127 0" result="hardAlpha"/>
<feOffset dy="-2"/>
<feGaussianBlur stdDeviation="11.5"/>
<feComposite in2="hardAlpha" operator="out"/>
<feColorMatrix type="matrix" values="0 0 0 0 0.163059 0 0 0 0 0.027451 0 0 0 0 0.996078 0 0 0 0.8 0"/>
<feBlend mode="normal" in2="BackgroundImageFix" result="effect1_dropShadow_2_97"/>
<feBlend mode="normal" in="SourceGraphic" in2="effect1_dropShadow_2_97" result="shape"/>
</filter>
<linearGradient id="paint0_linear_2_97" x1="130.5" y1="26.0085" x2="130.5" y2="478.009" gradientUnits="userSpaceOnUse">
<stop offset="0.0260417" stop-color="#0B0B0F"/>
<stop offset="0.505208" stop-color="#2163FF"/>
<stop offset="1" stop-color="#0B0A13"/>
</linearGradient>
<linearGradient id="paint1_linear_2_97" x1="249.5" y1="26.0085" x2="249.5" y2="478.009" gradientUnits="userSpaceOnUse">
<stop offset="0.0260417" stop-color="#0B0B0F"/>
<stop offset="0.505208" stop-color="#2163FF"/>
<stop offset="1" stop-color="#0B0A13"/>
</linearGradient>
<linearGradient id="paint2_linear_2_97" x1="368.5" y1="26.0085" x2="368.5" y2="478.009" gradientUnits="userSpaceOnUse">
<stop offset="0.0260417" stop-color="#0B0B0F"/>
<stop offset="0.505208" stop-color="#2163FF"/>
<stop offset="1" stop-color="#0B0A13"/>
</linearGradient>
<linearGradient id="paint3_linear_2_97" x1="9" y1="-91.8767" x2="9" y2="558.711" gradientUnits="userSpaceOnUse">
<stop offset="0.015625" stop-color="#0C0A17"/>
<stop offset="0.484375" stop-color="#3874FF"/>
<stop offset="1" stop-color="#0B0A13"/>
</linearGradient>
<linearGradient id="paint4_linear_2_97" x1="-85.3239" y1="221.009" x2="603.014" y2="221.009" gradientUnits="userSpaceOnUse">
<stop offset="0.015625" stop-color="#0C0A17"/>
<stop offset="0.484375" stop-color="#3874FF"/>
<stop offset="1" stop-color="#0B0A13"/>
</linearGradient>
</defs>
</svg>
