<svg width="85" height="33" viewBox="0 0 85 33" fill="none" xmlns="http://www.w3.org/2000/svg">
<path d="M20.4959 30.5069C20.4959 30.3477 19.7044 26.559 19.1333 23.8534M19.1333 23.8534C19.0344 23.3848 18.9421 22.9486 18.8617 22.5694L19.1333 23.8534ZM19.1333 23.8534C18.8617 23.8534 14.4261 21.4022 14.6595 28.5225C14.8463 34.2188 9.83483 31.0516 7.30575 28.756M80.8436 8.67905C79.2094 8.09542 75.9644 7.27833 76.0578 8.67905C76.1745 10.43 82.7112 19.4178 82.4778 20.3516C82.291 21.0987 77.264 19.8847 74.7738 19.1844M84.5789 15.3324C82.2054 15.6437 77.015 16.2428 75.2407 16.1495M68.5873 13.1146L66.136 14.1651M69.8713 17.3167L68.1204 16.8498M57.8484 5.76079C57.9336 6.19993 58.0345 6.71769 58.1443 7.27823M58.1443 7.27823C58.6861 10.0453 59.444 13.855 59.5993 14.3986C59.7861 15.0522 58.7071 9.92404 58.1443 7.27823ZM58.1443 7.27823C56.6838 6.77242 53.9498 6.46115 54.6968 9.26259C55.6306 12.7644 54.9303 14.7487 53.8797 14.3986M49.5609 12.4142C49.911 13.6982 50.5881 16.5463 50.4947 17.6669M42.9074 8.09532V9.72949M42.9074 9.72949V13.5815M42.9074 9.72949C43.3743 9.7684 44.4949 9.75284 45.2419 9.37931M42.9074 9.72949H40.3394M29.834 26.6549V28.289M29.834 28.289V32.141M29.834 28.289C30.3009 28.328 31.4215 28.3124 32.1685 27.9389M29.834 28.289C29.1337 28.289 25.5385 27.9389 25.1649 27.9389M27.266 6.92805C27.3049 5.95536 27.5695 3.89326 28.3166 3.42635C29.2504 2.84272 31.2347 3.89326 32.1685 4.71034C32.5521 5.046 32.9522 6.99644 33.2927 9.26259M34.0362 15.4492C33.8847 13.8402 33.6154 11.4097 33.2927 9.26259M33.2927 9.26259H31.3515M22.3635 12.2975C22.5613 11.5283 22.8485 10.2576 23.0105 9.14586M23.0105 9.14586C23.1353 8.28936 23.1858 7.52723 23.0639 7.16151M23.0105 9.14586C21.7832 9.45713 19.0952 9.98629 18.1613 9.61277M13.9592 9.37936C13.8158 9.28309 13.6654 9.18059 13.5094 9.07246M13.5094 9.07246C10.5748 7.03913 5.60649 3.01436 6.13848 0.975038C6.68703 -1.12771 13.1072 4.00172 13.5094 9.07246ZM13.5094 9.07246C13.6207 10.4759 13.271 11.8748 12.2083 13.1146M12.2083 13.1146C7.30575 18.8342 5.67158 11.0136 7.18902 9.37936C8.70647 7.74514 12.2083 8.56223 12.2083 11.8306V13.1146ZM0.535598 13.9317C1.00251 15.488 2.0297 18.7408 2.40323 19.3011M61.2335 21.869C59.3659 22.3359 41.5067 21.0519 32.1685 20.4683C24.698 20.0014 12.0137 20.2738 6.60539 20.4683M44.1914 24.4371L44.775 32.4912C44.5027 30.1567 43.491 25.6744 41.6234 26.4214C39.7558 27.1685 39.4445 30.3123 39.5223 31.7909M38.5885 30.1567C38.0049 30.0399 36.6042 27.4719 36.7209 28.4058C36.8143 29.1528 37.3045 31.4407 37.538 32.4912" stroke="url(#paint0_radial_2_64)" stroke-width="0.727273"/>
<defs>
<radialGradient id="paint0_radial_2_64" cx="0" cy="0" r="1" gradientUnits="userSpaceOnUse" gradientTransform="translate(42.5572 16.4912) rotate(90) scale(16 42.0216)">
<stop stop-color="#CAC8C8"/>
<stop offset="1" stop-color="white" stop-opacity="0"/>
</radialGradient>
</defs>
</svg>
