<svg width="61" height="31" viewBox="0 0 61 31" fill="none" xmlns="http://www.w3.org/2000/svg">
<path d="M60.5789 29.8396C59.8609 29.8396 37.9637 28.7631 34.015 28.4043C30.0663 28.0455 1.34856 26.9689 0.630616 26.6101" stroke="url(#paint0_radial_2_43)" stroke-width="0.717983" stroke-linecap="round"/>
<path d="M32.5791 28.7626L47.6559 11.8972" stroke="url(#paint1_radial_2_43)" stroke-width="0.717983" stroke-linecap="round"/>
<path d="M32.5791 28.7631L34.733 4.0033" stroke="url(#paint2_radial_2_43)" stroke-width="0.717983" stroke-linecap="round"/>
<path d="M32.579 28.763L17.1432 9.38574" stroke="url(#paint3_radial_2_43)" stroke-width="0.717983" stroke-linecap="round"/>
<path d="M49.4508 11.5391L49.0918 10.1038L47.2968 10.8214" stroke="url(#paint4_radial_2_43)" stroke-width="0.717983" stroke-linecap="round"/>
<path d="M35.8099 2.56819L35.0919 1.49121L34.3739 2.56819" stroke="url(#paint5_radial_2_43)" stroke-width="0.717983" stroke-linecap="round"/>
<path d="M17.1432 7.5919L15.7073 7.23291L15.3483 8.30988" stroke="url(#paint6_radial_2_43)" stroke-width="0.717983" stroke-linecap="round"/>
<path d="M25.3996 8.66772C25.7586 9.50501 26.7638 11.0361 27.9126 10.4619C29.3485 9.74424 27.9126 7.59121 26.1176 9.3854C25.5433 10.2466 25.1603 10.4619 25.0407 10.4619" stroke="url(#paint7_radial_2_43)" stroke-width="0.717983" stroke-linecap="round"/>
<path d="M39.0404 9.74459C39.7584 10.5819 41.3379 12.0412 41.9123 11.1799C42.6303 10.1034 41.1943 9.38575 40.4763 9.74459C39.902 10.0317 39.0404 10.8211 38.6814 11.18" stroke="url(#paint8_radial_2_43)" stroke-width="0.717983" stroke-linecap="round"/>
<path d="M55.912 16.2031C55.912 16.6815 55.8402 17.6384 55.553 17.6384C55.194 17.6384 55.194 15.8442 54.8351 15.8442C54.4761 15.8442 53.7581 16.5619 53.7581 17.2796" stroke="url(#paint9_radial_2_43)" stroke-width="0.717983" stroke-linecap="round"/>
<path d="M52.681 15.8448C52.681 15.4859 52.6092 14.84 52.3221 15.1271C52.0349 15.4142 51.9631 16.682 51.9631 17.2801" stroke="url(#paint10_radial_2_43)" stroke-width="0.717983" stroke-linecap="round"/>
<path d="M42.6304 25.9639C42.6304 25.6051 42.5586 24.9592 42.2714 25.2462C41.9842 25.5333 41.9124 26.8012 41.9124 27.3992" stroke="url(#paint11_radial_2_43)" stroke-width="0.717983" stroke-linecap="round"/>
<path d="M24.6818 24.5286C24.6818 24.1698 24.61 23.5238 24.3228 23.8109C24.0356 24.098 23.9638 25.3658 23.9638 25.9639" stroke="url(#paint12_radial_2_43)" stroke-width="0.717983" stroke-linecap="round"/>
<path d="M43.3483 24.098C43.9466 24.5765 44.9278 25.8922 44.0662 27.3276" stroke="url(#paint13_radial_2_43)" stroke-width="0.717983" stroke-linecap="round"/>
<path d="M40.8354 24.4568C40.2371 25.1745 39.184 26.8251 39.7584 27.6863" stroke="url(#paint14_radial_2_43)" stroke-width="0.717983" stroke-linecap="round"/>
<path d="M26.1175 23.3806C26.4765 23.8591 27.0509 25.0313 26.4765 25.8925" stroke="url(#paint15_radial_2_43)" stroke-width="0.717983" stroke-linecap="round"/>
<path d="M23.9638 23.0219C23.2458 23.3807 21.8816 24.4572 22.1688 25.8926" stroke="url(#paint16_radial_2_43)" stroke-width="0.717983" stroke-linecap="round"/>
<path d="M37.9637 22.6621C37.9637 22.3033 34.7328 20.8679 33.6558 21.2268" stroke="url(#paint17_radial_2_43)" stroke-width="0.717983" stroke-linecap="round"/>
<path d="M32.9382 23.0216C32.4595 22.543 30.9996 22.0164 28.9892 23.7396" stroke="url(#paint18_radial_2_43)" stroke-width="0.717983" stroke-linecap="round"/>
<defs>
<radialGradient id="paint0_radial_2_43" cx="0" cy="0" r="1" gradientUnits="userSpaceOnUse" gradientTransform="translate(30.6047 28.2249) rotate(90) scale(1.61477 29.9741)">
<stop stop-color="#CAC8C8"/>
<stop offset="1" stop-color="white" stop-opacity="0"/>
</radialGradient>
<radialGradient id="paint1_radial_2_43" cx="0" cy="0" r="1" gradientUnits="userSpaceOnUse" gradientTransform="translate(40.1175 20.3299) rotate(90) scale(8.43269 7.5384)">
<stop stop-color="#CAC8C8"/>
<stop offset="1" stop-color="white" stop-opacity="0"/>
</radialGradient>
<radialGradient id="paint2_radial_2_43" cx="0" cy="0" r="1" gradientUnits="userSpaceOnUse" gradientTransform="translate(33.656 16.3832) rotate(90) scale(12.3799 1.07697)">
<stop stop-color="#CAC8C8"/>
<stop offset="1" stop-color="white" stop-opacity="0"/>
</radialGradient>
<radialGradient id="paint3_radial_2_43" cx="0" cy="0" r="1" gradientUnits="userSpaceOnUse" gradientTransform="translate(24.8611 19.0744) rotate(90) scale(9.68862 7.71789)">
<stop stop-color="#CAC8C8"/>
<stop offset="1" stop-color="white" stop-opacity="0"/>
</radialGradient>
<radialGradient id="paint4_radial_2_43" cx="0" cy="0" r="1" gradientUnits="userSpaceOnUse" gradientTransform="translate(48.3738 10.8214) rotate(90) scale(0.717676 1.07697)">
<stop stop-color="#CAC8C8"/>
<stop offset="1" stop-color="white" stop-opacity="0"/>
</radialGradient>
<radialGradient id="paint5_radial_2_43" cx="0" cy="0" r="1" gradientUnits="userSpaceOnUse" gradientTransform="translate(35.0919 2.0297) rotate(90) scale(0.538487 0.717983)">
<stop stop-color="#CAC8C8"/>
<stop offset="1" stop-color="white" stop-opacity="0"/>
</radialGradient>
<radialGradient id="paint6_radial_2_43" cx="0" cy="0" r="1" gradientUnits="userSpaceOnUse" gradientTransform="translate(16.2458 7.7714) rotate(90) scale(0.538487 0.897479)">
<stop stop-color="#CAC8C8"/>
<stop offset="1" stop-color="white" stop-opacity="0"/>
</radialGradient>
<radialGradient id="paint7_radial_2_43" cx="0" cy="0" r="1" gradientUnits="userSpaceOnUse" gradientTransform="translate(26.7697 9.62768) rotate(90) scale(0.959957 1.72901)">
<stop stop-color="#CAC8C8"/>
<stop offset="1" stop-color="white" stop-opacity="0"/>
</radialGradient>
<radialGradient id="paint8_radial_2_43" cx="0" cy="0" r="1" gradientUnits="userSpaceOnUse" gradientTransform="translate(40.3947 10.5471) rotate(90) scale(0.895814 1.71329)">
<stop stop-color="#CAC8C8"/>
<stop offset="1" stop-color="white" stop-opacity="0"/>
</radialGradient>
<radialGradient id="paint9_radial_2_43" cx="0" cy="0" r="1" gradientUnits="userSpaceOnUse" gradientTransform="translate(54.8351 16.7413) rotate(90) scale(0.897095 1.07697)">
<stop stop-color="#CAC8C8"/>
<stop offset="1" stop-color="white" stop-opacity="0"/>
</radialGradient>
<radialGradient id="paint10_radial_2_43" cx="0" cy="0" r="1" gradientUnits="userSpaceOnUse" gradientTransform="translate(52.3221 16.1678) rotate(90) scale(1.11226 0.358992)">
<stop stop-color="#CAC8C8"/>
<stop offset="1" stop-color="white" stop-opacity="0"/>
</radialGradient>
<radialGradient id="paint11_radial_2_43" cx="0" cy="0" r="1" gradientUnits="userSpaceOnUse" gradientTransform="translate(42.2714 26.2869) rotate(90) scale(1.11226 0.358992)">
<stop stop-color="#CAC8C8"/>
<stop offset="1" stop-color="white" stop-opacity="0"/>
</radialGradient>
<radialGradient id="paint12_radial_2_43" cx="0" cy="0" r="1" gradientUnits="userSpaceOnUse" gradientTransform="translate(24.3228 24.8516) rotate(90) scale(1.11226 0.358992)">
<stop stop-color="#CAC8C8"/>
<stop offset="1" stop-color="white" stop-opacity="0"/>
</radialGradient>
<radialGradient id="paint13_radial_2_43" cx="0" cy="0" r="1" gradientUnits="userSpaceOnUse" gradientTransform="translate(43.8768 25.7128) rotate(90) scale(1.61477 0.528574)">
<stop stop-color="#CAC8C8"/>
<stop offset="1" stop-color="white" stop-opacity="0"/>
</radialGradient>
<radialGradient id="paint14_radial_2_43" cx="0" cy="0" r="1" gradientUnits="userSpaceOnUse" gradientTransform="translate(40.2139 26.0716) rotate(90) scale(1.61477 0.6215)">
<stop stop-color="#CAC8C8"/>
<stop offset="1" stop-color="white" stop-opacity="0"/>
</radialGradient>
<radialGradient id="paint15_radial_2_43" cx="0" cy="0" r="1" gradientUnits="userSpaceOnUse" gradientTransform="translate(26.4189 24.6365) rotate(90) scale(1.25593 0.301333)">
<stop stop-color="#CAC8C8"/>
<stop offset="1" stop-color="white" stop-opacity="0"/>
</radialGradient>
<radialGradient id="paint16_radial_2_43" cx="0" cy="0" r="1" gradientUnits="userSpaceOnUse" gradientTransform="translate(23.0467 24.4572) rotate(90) scale(1.43535 0.917042)">
<stop stop-color="#CAC8C8"/>
<stop offset="1" stop-color="white" stop-opacity="0"/>
</radialGradient>
<radialGradient id="paint17_radial_2_43" cx="0" cy="0" r="1" gradientUnits="userSpaceOnUse" gradientTransform="translate(35.8098 21.9159) rotate(90) scale(0.74623 2.15395)">
<stop stop-color="#CAC8C8"/>
<stop offset="1" stop-color="white" stop-opacity="0"/>
</radialGradient>
<radialGradient id="paint18_radial_2_43" cx="0" cy="0" r="1" gradientUnits="userSpaceOnUse" gradientTransform="translate(30.9637 23.1465) rotate(90) scale(0.593129 1.97445)">
<stop stop-color="#CAC8C8"/>
<stop offset="1" stop-color="white" stop-opacity="0"/>
</radialGradient>
</defs>
</svg>
