<svg width="73" height="38" viewBox="0 0 73 38" fill="none" xmlns="http://www.w3.org/2000/svg">
<path d="M71.9341 17.8109L68.1389 16.7921M70.3987 20.5727C70.1765 20.5131 68.0108 19.7332 66.9557 19.3508M53.9341 13.7895C53.8603 13.0308 53.7575 12.0712 53.6331 11.0315M53.6331 11.0315C53.2375 7.72522 52.623 3.60965 52.0238 2.57406C51.3573 1.42229 51.0488 6.59324 50.9421 10.5777M53.6331 11.0315C55.6191 11.4213 57.8358 11.9057 57.2997 11.8081M53.6331 11.0315C52.431 10.7955 51.3135 10.5942 50.9421 10.5777M50.9421 10.5777C50.9227 11.3024 50.91 11.9878 50.903 12.5888C51.0917 11.9263 51.3636 10.5965 50.9421 10.5777ZM50.9421 10.5777L48.9722 10.49M43.7038 2.04805C45.3546 3.83481 48.1264 9.46041 46.0074 17.6687M28.4906 26.7637L28.6442 23.316M46.7381 28.9869L46.8916 25.5393M27.0367 11.8867L27.2209 7.74951M30.6726 25.2976C29.5085 25.5127 27.0132 25.9043 26.3449 25.7501M48.2072 26.9039C47.0467 26.6703 44.5849 26.1052 44.0221 25.7133M28.0001 9.12432C26.836 9.33941 24.3407 9.73102 23.6724 9.57673M23.447 27.7886C22.6799 27.147 21.1207 25.3065 21.0198 23.0768C20.9189 20.8472 21.1048 26.3136 21.2103 29.3255M22.7147 11.56C21.4752 10.9768 18.7689 9.08088 17.8592 6.16228C16.9494 3.24368 19.0984 10.4206 20.2866 14.374M36.0346 15.814L35.0892 3.78065C32.944 3.90542 29.6676 5.33316 33.7239 10.0459C28.5423 8.87097 30.4756 14.2445 34.5563 15.7481M60.7998 20.3304C60.4725 16.4579 59.8857 9.54105 59.6193 6.4757M59.6193 6.4757C59.5417 5.58254 59.4912 5.01636 59.4823 4.94776C59.4429 4.64373 59.5572 5.83971 59.6193 6.4757ZM59.6193 6.4757C57.4532 6.75621 54.0739 8.25647 57.8855 12.0135M55.5621 36.5923C56.1764 32.7489 55.2729 25.0178 55.7478 21.9736M55.7478 21.9736C55.7489 21.9668 55.75 21.96 55.7513 21.9534M55.7478 21.9736C52.2928 21.6696 48.7259 24.2951 53.4105 27.1092M55.7513 21.9534C55.8164 21.6168 56.1687 21.457 56.5745 21.3832M55.7513 21.9534C55.8025 21.71 56.1603 21.5137 56.5745 21.3832M56.5745 21.3832C57.2081 21.2679 57.972 21.3624 57.9757 21.3207C57.9918 21.1372 57.2156 21.1813 56.5745 21.3832ZM10.0186 3.67538C9.92387 3.09883 10.1098 2.16848 11.6109 3.05949C13.4873 4.17326 20.3406 12.4626 11.2179 11.8846C9.68924 11.6105 8.90918 11.467 8.71022 11.4295M63.0266 18.4116C62.537 18.6657 33.0659 18.9167 29.2884 17.8288C26.2664 16.9585 9.17 17.1168 0.999579 17.3047M38.2273 10.4079C38.5191 14.2674 39.0167 22.2107 38.6728 23.1074C38.3288 24.004 37.5985 20.3837 37.2763 18.4614M37.9639 24.5181C37.8554 27.9762 37.5378 35.0827 37.1356 35.8438C36.7334 36.6049 36.4172 33.3142 36.3093 31.5736M38.3482 12.0353C38.5392 13.4596 39.4086 16.0496 41.3586 15.0152C43.7962 13.7221 41.5584 10.7354 40.7221 10.2674C39.8858 9.79948 39.1376 8.54645 38.3472 10.5855M37.9168 25.9763C37.953 27.261 38.4969 29.6509 40.3829 28.9325C42.7404 28.0345 40.9824 25.1516 40.2622 24.65C39.5421 24.1484 38.979 22.9586 38.057 24.6885M7.51811 1.04713C5.57502 4.40799 2.40291 11.8234 5.25916 14.5982" stroke="url(#paint0_radial_2_22)" stroke-width="0.82691" stroke-linecap="round"/>
<defs>
<radialGradient id="paint0_radial_2_22" cx="0" cy="0" r="1" gradientUnits="userSpaceOnUse" gradientTransform="translate(36.4104 18.8263) rotate(92.5499) scale(17.0861 35.4434)">
<stop stop-color="#CAC8C8"/>
<stop offset="1" stop-color="white" stop-opacity="0"/>
</radialGradient>
</defs>
</svg>
