<svg width="86" height="33" viewBox="0 0 86 33" fill="none" xmlns="http://www.w3.org/2000/svg">
<path d="M65.083 30.5069C65.083 30.3477 65.8745 26.559 66.4455 23.8534M66.4455 23.8534C66.5444 23.3848 66.6367 22.9486 66.7172 22.5694L66.4455 23.8534ZM66.4455 23.8534C66.7172 23.8534 71.1528 21.4022 70.9193 28.5225C70.7326 34.2188 75.744 31.0516 78.2731 28.756M4.73526 8.67905C6.36944 8.09542 9.61444 7.27833 9.52106 8.67905C9.40433 10.43 2.86764 19.4178 3.10109 20.3516C3.28785 21.0987 8.31488 19.8847 10.805 19.1844M1 15.3324C3.37344 15.6437 8.56389 16.2428 10.3381 16.1495M16.9916 13.1146L19.4428 14.1651M15.7076 17.3167L17.4585 16.8498M27.7304 5.76079C27.6452 6.19993 27.5443 6.71769 27.4346 7.27823M27.4346 7.27823C26.8928 10.0453 26.1348 13.855 25.9795 14.3986C25.7928 15.0522 26.8718 9.92404 27.4346 7.27823ZM27.4346 7.27823C28.895 6.77242 31.6291 6.46115 30.882 9.26259C29.9482 12.7644 30.6486 14.7487 31.6991 14.3986M36.018 12.4142C35.6678 13.6982 34.9908 16.5463 35.0842 17.6669M42.6714 8.09532V9.72949M42.6714 9.72949V13.5815M42.6714 9.72949C42.2045 9.7684 41.084 9.75284 40.3369 9.37931M42.6714 9.72949H45.2394M55.7448 26.6549V28.289M55.7448 28.289V32.141M55.7448 28.289C55.2779 28.328 54.1574 28.3124 53.4103 27.9389M55.7448 28.289C56.4452 28.289 60.0404 27.9389 60.4139 27.9389M58.3128 6.92805C58.2739 5.95536 58.0093 3.89326 57.2623 3.42635C56.3285 2.84272 54.3441 3.89326 53.4103 4.71034C53.0267 5.046 52.6267 6.99644 52.2861 9.26259M51.5427 15.4492C51.6941 13.8402 51.9634 11.4097 52.2861 9.26259M52.2861 9.26259H54.2274M63.2153 12.2975C63.0176 11.5283 62.7304 10.2576 62.5684 9.14586M62.5684 9.14586C62.4436 8.28936 62.3931 7.52723 62.515 7.16151M62.5684 9.14586C63.7957 9.45713 66.4837 9.98629 67.4175 9.61277M71.6197 9.37936C71.7631 9.28309 71.9134 9.18059 72.0695 9.07246M72.0695 9.07246C75.004 7.03913 79.9724 3.01436 79.4404 0.975038C78.8918 -1.12771 72.4716 4.00172 72.0695 9.07246ZM72.0695 9.07246C71.9582 10.4759 72.3079 11.8748 73.3706 13.1146M73.3706 13.1146C78.2731 18.8342 79.9073 11.0136 78.3898 9.37936C76.8724 7.74514 73.3706 8.56223 73.3706 11.8306V13.1146ZM85.0433 13.9317C84.5764 15.488 83.5492 18.7408 83.1756 19.3011M24.3453 21.869C26.213 22.3359 44.0722 21.0519 53.4103 20.4683C60.8808 20.0014 73.5651 20.2738 78.9735 20.4683M41.3875 24.4371L40.8038 32.4912C41.0762 30.1567 42.0878 25.6744 43.9554 26.4214C45.8231 27.1685 46.1343 30.3123 46.0565 31.7909M46.9903 30.1567C47.574 30.0399 48.9747 27.4719 48.858 28.4058C48.7646 29.1528 48.2743 31.4407 48.0409 32.4912" stroke="url(#paint0_radial_2_63)" stroke-width="0.727273"/>
<defs>
<radialGradient id="paint0_radial_2_63" cx="0" cy="0" r="1" gradientUnits="userSpaceOnUse" gradientTransform="translate(43.0216 16.4912) rotate(90) scale(16 42.0216)">
<stop stop-color="#CAC8C8"/>
<stop offset="1" stop-color="white" stop-opacity="0"/>
</radialGradient>
</defs>
</svg>
