<svg width="88" height="38" viewBox="0 0 88 38" fill="none" xmlns="http://www.w3.org/2000/svg">
<path d="M83.6894 11.6088L78.0118 12.1503C81.0705 14.9673 87.0977 20.8754 86.7369 21.9713C86.3762 23.0673 80.5404 21.0335 77.6676 19.8795M75.1053 14.0478L70.8796 13.8596M73.54 17.5049C73.3176 17.495 71.1207 16.9267 70.05 16.6438M62.1232 18.4071C62.2304 18.0227 62.3504 15.508 62.4502 12.7787M62.4502 12.7787C62.5241 10.759 62.5868 8.62181 62.6248 7.14356C59.4649 7.44173 55.006 8.9862 62.4502 12.7787ZM51.9718 14.4279C51.8917 13.8106 51.7809 13.0297 51.6479 12.1835M51.6479 12.1835C51.2249 9.49266 50.5763 6.14211 49.9687 5.29531C49.2929 4.35352 49.0276 8.55427 48.9542 11.7922M51.6479 12.1835C53.6364 12.5169 55.8563 12.9292 55.3196 12.8454M51.6479 12.1835C50.4443 11.9817 49.3255 11.8088 48.9542 11.7922M48.9542 11.7922C48.9408 12.3811 48.9338 12.9382 48.9318 13.4267C49.1149 12.8897 49.3756 11.811 48.9542 11.7922ZM48.9542 11.7922L46.9843 11.7045M42.7422 11.9015L42.8957 8.45385M16.0125 10.0051L16.1661 6.55747M23.0067 27.2455L23.1602 23.7978M39.2041 27.9669L39.3577 24.5192M24.0647 24.7459C22.9006 24.961 20.4053 25.3526 19.737 25.1983M41.2305 26.1989C40.0627 26.0052 37.583 25.5246 37.0071 25.1522M11.8209 9.05815C10.9669 8.53761 9.13456 6.91201 8.63718 4.57385C8.13981 2.2357 9.29998 7.98088 9.94224 11.1457M18.0703 28.3859C17.3032 27.7443 15.744 25.9037 15.6431 23.6741C15.5422 21.4445 15.728 26.9109 15.8336 29.9227M46.5394 36.7583C46.9033 32.8808 47.551 25.9549 47.8311 22.8844M47.8311 22.8844C47.9128 21.9897 47.9632 21.4223 47.9663 21.3531C47.9799 21.0463 47.8819 22.2461 47.8311 22.8844ZM47.8311 22.8844C45.4241 22.7772 41.4713 23.658 44.9169 28.0389M47.8743 23.4159C48.3719 23.5236 49.3431 23.8277 49.2469 24.1827M2.28862 2.72401C2.21991 2.10459 2.38016 1.10089 3.57091 2.04148C5.05935 3.21722 10.4437 12.0553 3.14766 11.5454C1.92731 11.2692 1.3046 11.1243 1.14579 11.0865M62.8824 19.1462C62.3893 19.4769 32.8898 20.1617 29.1225 18.8183C26.1087 17.7436 8.99573 18.1571 0.815972 18.4982M31.6311 7.87986C31.2256 11.7038 30.2845 19.5556 29.7643 20.3707C29.2441 21.1858 29.1521 17.5175 29.1711 15.5814M28.6228 23.9195C28.9146 27.7791 29.4122 35.7223 29.0683 36.619C28.7243 37.5157 27.994 33.8953 27.6718 31.973M31.5779 9.07364C31.5094 10.6117 31.8455 13.5035 33.738 12.7659C36.1036 11.8438 34.6263 8.2847 33.9663 7.63884C33.3064 6.99299 32.8547 5.53446 31.8183 7.54318M28.7443 25.5469C28.9352 26.9713 29.8046 29.5613 31.7547 28.5268C34.1922 27.2338 31.9545 24.247 31.1182 23.7791C30.2818 23.3111 29.5336 22.0581 28.7433 24.0972M26.9974 2.03063C26.1588 5.32773 25.0224 12.0615 27.1862 12.6195M26.3107 0.589791C26.0126 0.476599 12.2556 7.65761 23.0553 12.4351" stroke="url(#paint0_radial_2_20)" stroke-width="0.82691" stroke-linecap="round"/>
<defs>
<radialGradient id="paint0_radial_2_20" cx="0" cy="0" r="1" gradientUnits="userSpaceOnUse" gradientTransform="translate(43.8193 19.3952) rotate(92.5499) scale(18.0087 43.0009)">
<stop stop-color="#CAC8C8"/>
<stop offset="1" stop-color="white" stop-opacity="0"/>
</radialGradient>
</defs>
</svg>
