<svg width="72" height="38" viewBox="0 0 72 38" fill="none" xmlns="http://www.w3.org/2000/svg">
<path d="M0.644721 17.8109L4.43996 16.7921M2.18019 20.5727C2.40235 20.5131 4.56805 19.7332 5.62314 19.3508M18.6447 13.7895C18.7186 13.0308 18.8213 12.0712 18.9457 11.0315M18.9457 11.0315C19.3414 7.72522 19.9559 3.60965 20.5551 2.57406C21.2215 1.42229 21.53 6.59324 21.6367 10.5777M18.9457 11.0315C16.9598 11.4213 14.7431 11.9057 15.2791 11.8081M18.9457 11.0315C20.1478 10.7955 21.2653 10.5942 21.6367 10.5777M21.6367 10.5777C21.6561 11.3024 21.6689 11.9878 21.6758 12.5888C21.4872 11.9263 21.2152 10.5965 21.6367 10.5777ZM21.6367 10.5777L23.6066 10.49M28.8751 2.04805C27.2243 3.83481 24.4525 9.46041 26.5714 17.6687M44.0882 26.7637L43.9347 23.316M25.8408 28.9869L25.6872 25.5393M45.5422 11.8867L45.358 7.74951M41.9062 25.2976C43.0703 25.5127 45.5657 25.9043 46.2339 25.7501M24.3717 26.9039C25.5322 26.6703 27.9939 26.1052 28.5567 25.7133M44.5787 9.12432C45.7429 9.33941 48.2381 9.73102 48.9064 9.57673M49.1319 27.7886C49.8989 27.147 51.4582 25.3065 51.559 23.0768C51.6599 20.8472 51.4741 26.3136 51.3686 29.3255M49.8642 11.56C51.1036 10.9768 53.8099 9.08088 54.7197 6.16228C55.6294 3.24368 53.4805 10.4206 52.2923 14.374M36.5442 15.814L37.4896 3.78065C39.6349 3.90542 42.9112 5.33316 38.855 10.0459C44.0366 8.87097 42.1033 14.2445 38.0226 15.7481M11.779 20.3304C12.1064 16.4579 12.6932 9.54105 12.9596 6.4757M12.9596 6.4757C13.0372 5.58254 13.0876 5.01636 13.0965 4.94776C13.1359 4.64373 13.0216 5.83971 12.9596 6.4757ZM12.9596 6.4757C15.1257 6.75621 18.505 8.25647 14.6934 12.0135M17.0167 36.5923C16.4024 32.7489 17.306 25.0178 16.8311 21.9736M16.8311 21.9736C16.83 21.9668 16.8288 21.96 16.8275 21.9534M16.8311 21.9736C20.286 21.6696 23.8529 24.2951 19.1684 27.1092M16.8275 21.9534C16.7625 21.6168 16.4101 21.457 16.0044 21.3832M16.8275 21.9534C16.7763 21.71 16.4186 21.5137 16.0044 21.3832M16.0044 21.3832C15.3708 21.2679 14.6069 21.3624 14.6032 21.3207C14.587 21.1372 15.3633 21.1813 16.0044 21.3832ZM62.5603 3.67538C62.655 3.09883 62.4691 2.16848 60.968 3.05949C59.0916 4.17326 52.2383 12.4626 61.361 11.8846C62.8896 11.6105 63.6697 11.467 63.8686 11.4295M9.55231 18.4116C10.0419 18.6657 39.513 18.9167 43.2905 17.8288C46.3125 16.9585 63.4089 17.1168 71.5793 17.3047M34.3515 10.4079C34.0597 14.2674 33.5621 22.2107 33.9061 23.1074C34.25 24.004 34.9804 20.3837 35.3025 18.4614M34.615 24.5181C34.7235 27.9762 35.0411 35.0827 35.4432 35.8438C35.8454 36.6049 36.1617 33.3142 36.2695 31.5736M34.2307 12.0353C34.0397 13.4596 33.1703 16.0496 31.2203 15.0152C28.7827 13.7221 31.0204 10.7354 31.8567 10.2674C32.6931 9.79948 33.4413 8.54645 34.2316 10.5855M34.6621 25.9763C34.6259 27.261 34.082 29.6509 32.196 28.9325C29.8385 28.0345 31.5965 25.1516 32.3166 24.65C33.0368 24.1484 33.5998 22.9586 34.5219 24.6885M65.0607 1.04713C67.0038 4.40799 70.176 11.8234 67.3197 14.5982" stroke="url(#paint0_radial_2_21)" stroke-width="0.82691" stroke-linecap="round"/>
<defs>
<radialGradient id="paint0_radial_2_21" cx="0" cy="0" r="1" gradientUnits="userSpaceOnUse" gradientTransform="translate(36.1685 18.8263) rotate(87.4501) scale(17.0861 35.4434)">
<stop stop-color="#CAC8C8"/>
<stop offset="1" stop-color="white" stop-opacity="0"/>
</radialGradient>
</defs>
</svg>
