<svg width="88" height="38" viewBox="0 0 88 38" fill="none" xmlns="http://www.w3.org/2000/svg">
<path d="M3.88948 11.6088L9.56705 12.1503C6.50838 14.9673 0.481203 20.8754 0.841927 21.9713C1.20265 23.0673 7.03846 21.0335 9.91127 19.8795M12.4736 14.0478L16.6992 13.8596M14.0388 17.5049C14.2612 17.495 16.4582 16.9267 17.5288 16.6438M25.4556 18.4071C25.3485 18.0227 25.2284 15.508 25.1286 12.7787M25.1286 12.7787C25.0548 10.759 24.9921 8.62181 24.954 7.14356C28.114 7.44173 32.5728 8.9862 25.1286 12.7787ZM35.6071 14.4279C35.6872 13.8106 35.7979 13.0297 35.9309 12.1835M35.9309 12.1835C36.354 9.49266 37.0026 6.14211 37.6102 5.29531C38.2859 4.35352 38.5513 8.55427 38.6247 11.7922M35.9309 12.1835C33.9425 12.5169 31.7225 12.9292 32.2592 12.8454M35.9309 12.1835C37.1345 11.9817 38.2533 11.8088 38.6247 11.7922M38.6247 11.7922C38.6381 12.3811 38.6451 12.9382 38.647 13.4267C38.464 12.8897 38.2032 11.811 38.6247 11.7922ZM38.6247 11.7922L40.5946 11.7045M44.8367 11.9015L44.6831 8.45385M71.5663 10.0051L71.4128 6.55747M64.5722 27.2455L64.4187 23.7978M48.3747 27.9669L48.2212 24.5192M63.5141 24.7459C64.6782 24.961 67.1735 25.3526 67.8418 25.1983M46.3483 26.1989C47.5162 26.0052 49.9958 25.5246 50.5717 25.1522M75.7579 9.05815C76.6119 8.53761 78.4443 6.91201 78.9417 4.57385C79.439 2.2357 78.2789 7.98088 77.6366 11.1457M69.5086 28.3859C70.2756 27.7443 71.8349 25.9037 71.9358 23.6741C72.0366 21.4445 71.8508 26.9109 71.7453 29.9227M41.0395 36.7583C40.6756 32.8808 40.0278 25.9549 39.7477 22.8844M39.7477 22.8844C39.6661 21.9897 39.6157 21.4223 39.6126 21.3531C39.5989 21.0463 39.697 22.2461 39.7477 22.8844ZM39.7477 22.8844C42.1548 22.7772 46.1075 23.658 42.662 28.0389M39.7045 23.4159C39.2069 23.5236 38.2358 23.8277 38.332 24.1827M85.2902 2.72401C85.359 2.10459 85.1987 1.10089 84.0079 2.04148C82.5195 3.21722 77.1351 12.0553 84.4312 11.5454C85.6515 11.2692 86.2743 11.1243 86.4331 11.0865M24.6964 19.1462C25.1895 19.4769 54.689 20.1617 58.4563 18.8183C61.4702 17.7436 78.5831 18.1571 86.7629 18.4982M55.9478 7.87986C56.3533 11.7038 57.2944 19.5556 57.8146 20.3707C58.3348 21.1858 58.4268 17.5175 58.4078 15.5814M58.956 23.9195C58.6642 27.7791 58.1666 35.7223 58.5106 36.619C58.8545 37.5157 59.5849 33.8953 59.907 31.973M56.0009 9.07364C56.0694 10.6117 55.7333 13.5035 53.8408 12.7659C51.4753 11.8438 52.9525 8.2847 53.6125 7.63884C54.2725 6.99299 54.7241 5.53446 55.7606 7.54318M58.8346 25.5469C58.6437 26.9713 57.7742 29.5613 55.8242 28.5268C53.3866 27.2338 55.6244 24.247 56.4607 23.7791C57.297 23.3111 58.0452 22.0581 58.8356 24.0972M60.5814 2.03063C61.4201 5.32773 62.5564 12.0615 60.3927 12.6195M61.2682 0.589791C61.5663 0.476599 75.3233 7.65761 64.5236 12.4351" stroke="url(#paint0_radial_2_19)" stroke-width="0.82691" stroke-linecap="round"/>
<defs>
<radialGradient id="paint0_radial_2_19" cx="0" cy="0" r="1" gradientUnits="userSpaceOnUse" gradientTransform="translate(43.7596 19.3952) rotate(87.4501) scale(18.0087 43.0009)">
<stop stop-color="#CAC8C8"/>
<stop offset="1" stop-color="white" stop-opacity="0"/>
</radialGradient>
</defs>
</svg>
