<svg width="98" height="28" viewBox="0 0 98 28" fill="none" xmlns="http://www.w3.org/2000/svg">
<path d="M97.6233 9.49121V8.77453L95.3418 8.59536V3.98469L97.4322 3.8294V3.08883H94.2668V8.59536L92.1287 8.77453V9.49121H97.6233ZM94.9118 1.93019C95.1189 1.93019 95.298 1.86649 95.4493 1.73908C95.5927 1.61167 95.6643 1.42453 95.6643 1.17767C95.6643 0.914889 95.5927 0.723773 95.4493 0.604326C95.298 0.476915 95.1189 0.41321 94.9118 0.41321C94.7048 0.41321 94.5296 0.476915 94.3863 0.604326C94.235 0.723773 94.1593 0.914889 94.1593 1.17767C94.1593 1.42453 94.235 1.61167 94.3863 1.73908C94.5296 1.86649 94.7048 1.93019 94.9118 1.93019ZM88.538 9.49121V3.98469H90.6283V3.24411L88.538 3.08883V2.3602C88.538 1.85056 88.4424 1.4524 88.2513 1.16573C88.0522 0.871092 87.7775 0.66405 87.4271 0.544602C87.0768 0.417192 86.6706 0.353486 86.2088 0.353486C85.8584 0.353486 85.5518 0.377376 85.289 0.425154C85.0262 0.472934 84.7993 0.528676 84.6082 0.592381L84.8471 1.41657C85.0063 1.36879 85.2054 1.32897 85.4443 1.29712C85.6832 1.2573 85.9181 1.2374 86.1491 1.2374C86.5631 1.2374 86.8856 1.32499 87.1166 1.50018C87.3475 1.67537 87.463 2.00982 87.463 2.50354V3.08883H85.0501V3.98469H87.463V9.49121H88.538ZM80.1097 11.3785C80.7149 10.6777 81.1608 9.88539 81.4475 9.00148C81.7262 8.1096 81.8656 7.18189 81.8656 6.21835C81.8656 5.24685 81.7262 4.31118 81.4475 3.41134C81.1608 2.50354 80.7149 1.68732 80.1097 0.962668H79.1183C79.6757 1.71121 80.0977 2.53539 80.3844 3.43523C80.6631 4.33507 80.8025 5.25879 80.8025 6.20641C80.8025 7.13013 80.6631 8.03793 80.3844 8.92981C80.0977 9.81372 79.6797 10.6299 79.1302 11.3785H80.1097ZM76.4951 9.49121V3.08883H75.7545L75.5992 3.79357H75.5395C75.436 3.57857 75.3245 3.41134 75.2051 3.29189C75.0856 3.17244 74.9582 3.08883 74.8228 3.04105C74.6795 2.99327 74.5242 2.96938 74.357 2.96938C74.0305 2.96938 73.7797 3.04902 73.6045 3.20828C73.4213 3.35958 73.282 3.58653 73.1864 3.88913H73.1506C73.0152 3.59449 72.848 3.36754 72.6489 3.20828C72.4418 3.04902 72.1711 2.96938 71.8366 2.96938C71.5102 2.96938 71.2514 3.053 71.0602 3.22022C70.8612 3.38745 70.7218 3.64227 70.6422 3.98469C70.5546 4.3271 70.5108 4.76906 70.5108 5.31055V9.49121H71.4664V5.48972C71.4664 5.15527 71.4823 4.87258 71.5141 4.64165C71.538 4.40275 71.5938 4.2196 71.6814 4.09219C71.769 3.96478 71.9123 3.90107 72.1114 3.90107C72.3025 3.90107 72.4657 3.99265 72.6011 4.1758C72.7365 4.35099 72.84 4.61378 72.9117 4.96416C72.9833 5.31453 73.0192 5.75649 73.0192 6.29002V9.49121H73.9748V5.48972C73.9748 5.14731 73.9947 4.86063 74.0345 4.6297C74.0743 4.39081 74.146 4.21164 74.2495 4.09219C74.345 3.96478 74.4924 3.90107 74.6914 3.90107C74.8985 3.90107 75.0657 4.00061 75.1931 4.19969C75.3205 4.39081 75.4121 4.66554 75.4678 5.02388C75.5156 5.37426 75.5395 5.79631 75.5395 6.29002V9.49121H76.4951ZM66.9917 9.61066C67.6208 9.61066 68.1305 9.45538 68.5207 9.14481C68.9029 8.83425 69.094 8.36442 69.094 7.73533C69.094 7.27347 68.9825 6.89124 68.7596 6.58864C68.5366 6.27808 68.2101 6.04714 67.7801 5.89584C67.3421 5.73658 66.8126 5.64899 66.1914 5.63306L64.8178 5.59723V5.33444C64.8178 4.76109 64.9611 4.3709 65.2478 4.16386C65.5345 3.94885 65.9207 3.84135 66.4065 3.84135C66.7489 3.84135 67.0754 3.88515 67.3859 3.97274C67.6965 4.06034 67.9911 4.18377 68.2698 4.34303L68.6401 3.53079C68.3375 3.37949 68.0031 3.24809 67.6368 3.13661C67.2625 3.02513 66.8325 2.96938 66.3467 2.96938C65.5425 2.96938 64.9253 3.15254 64.4953 3.51884C64.0573 3.87718 63.8383 4.43859 63.8383 5.20305V9.49121H64.6984L64.8178 8.6073H64.8656C65.0408 8.83027 65.2359 9.0174 65.4509 9.1687C65.6579 9.31204 65.8888 9.41954 66.1437 9.49121C66.3985 9.57084 66.6812 9.61066 66.9917 9.61066ZM66.8126 8.73869C66.4542 8.73869 66.1238 8.67499 65.8212 8.54758C65.5186 8.4122 65.2757 8.21312 65.0925 7.95034C64.9094 7.67959 64.8178 7.34116 64.8178 6.93504V6.36169L65.9645 6.39752C66.4741 6.41345 66.8842 6.47716 67.1948 6.58864C67.5054 6.69216 67.7323 6.83948 67.8757 7.03059C68.011 7.21375 68.0787 7.43672 68.0787 7.6995C68.0787 8.06581 67.9633 8.33257 67.7323 8.4998C67.5014 8.65906 67.1948 8.73869 66.8126 8.73869ZM62.2305 9.49121L59.8057 6.21835L62.111 3.08883H60.9046L59.1846 5.48972L57.4645 3.08883H56.2581L58.5754 6.21835L56.1506 9.49121H57.357L59.1846 6.94698L61.024 9.49121H62.2305ZM42.3518 8.10562V7.17393L46.2458 5.29861L42.3518 3.1605V2.22881L47.3686 5.03582V5.63306L42.3518 8.10562ZM31.1809 9.61066C31.81 9.61066 32.3196 9.45538 32.7098 9.14481C33.092 8.83425 33.2831 8.36442 33.2831 7.73533C33.2831 7.27347 33.1717 6.89124 32.9487 6.58864C32.7257 6.27808 32.3992 6.04714 31.9692 5.89584C31.5312 5.73658 31.0017 5.64899 30.3806 5.63306L29.0069 5.59723V5.33444C29.0069 4.76109 29.1503 4.3709 29.4369 4.16386C29.7236 3.94885 30.1098 3.84135 30.5956 3.84135C30.938 3.84135 31.2645 3.88515 31.575 3.97274C31.8856 4.06034 32.1802 4.18377 32.459 4.34303L32.8292 3.53079C32.5266 3.37949 32.1922 3.24809 31.8259 3.13661C31.4516 3.02513 31.0216 2.96938 30.5358 2.96938C29.7316 2.96938 29.1144 3.15254 28.6844 3.51884C28.2464 3.87718 28.0275 4.43859 28.0275 5.20305V9.49121H28.8875L29.0069 8.6073H29.0547C29.2299 8.83027 29.425 9.0174 29.64 9.1687C29.847 9.31204 30.078 9.41954 30.3328 9.49121C30.5876 9.57084 30.8703 9.61066 31.1809 9.61066ZM31.0017 8.73869C30.6434 8.73869 30.3129 8.67499 30.0103 8.54758C29.7077 8.4122 29.4648 8.21312 29.2817 7.95034C29.0985 7.67959 29.0069 7.34116 29.0069 6.93504V6.36169L30.1536 6.39752C30.6633 6.41345 31.0734 6.47716 31.3839 6.58864C31.6945 6.69216 31.9214 6.83948 32.0648 7.03059C32.2001 7.21375 32.2678 7.43672 32.2678 7.6995C32.2678 8.06581 32.1524 8.33257 31.9214 8.4998C31.6905 8.65906 31.3839 8.73869 31.0017 8.73869ZM24.0904 11.3785V0.962668H21.4028V1.82269H23.0631V10.5185H21.4028V11.3785H24.0904ZM18.8393 9.49121V8.77453L16.5579 8.59536V3.98469L18.6482 3.8294V3.08883H15.4829V8.59536L13.3448 8.77453V9.49121H18.8393ZM16.1279 1.93019C16.3349 1.93019 16.5141 1.86649 16.6654 1.73908C16.8087 1.61167 16.8804 1.42453 16.8804 1.17767C16.8804 0.914889 16.8087 0.723773 16.6654 0.604326C16.5141 0.476915 16.3349 0.41321 16.1279 0.41321C15.9208 0.41321 15.7456 0.476915 15.6023 0.604326C15.451 0.723773 15.3754 0.914889 15.3754 1.17767C15.3754 1.42453 15.451 1.61167 15.6023 1.73908C15.7456 1.86649 15.9208 1.93019 16.1279 1.93019ZM8.33263 0.843221V11.259H11.0202V10.399H9.35988V1.70324H11.0202V0.843221H8.33263ZM2.44854 0.962668C1.84334 1.66343 1.40138 2.45974 1.12267 3.35162C0.836 4.23553 0.692663 5.15925 0.692663 6.12279C0.692663 7.0943 0.836 8.03395 1.12267 8.94175C1.40138 9.84159 1.84334 10.6538 2.44854 11.3785H3.43995C2.88253 10.6299 2.46447 9.80576 2.18576 8.90592C1.89908 8.00608 1.75574 7.08236 1.75574 6.13474C1.75574 5.21101 1.89908 4.30719 2.18576 3.42328C2.46447 2.53141 2.87855 1.71121 3.42801 0.962668H2.44854ZM97.9816 25.4912V19.0888H97.241L97.0858 19.7936H97.026C96.9225 19.5786 96.811 19.4113 96.6916 19.2919C96.5721 19.1724 96.4447 19.0888 96.3094 19.0411C96.166 18.9933 96.0107 18.9694 95.8435 18.9694C95.517 18.9694 95.2662 19.049 95.091 19.2083C94.9078 19.3596 94.7685 19.5865 94.6729 19.8891H94.6371C94.5017 19.5945 94.3345 19.3675 94.1354 19.2083C93.9284 19.049 93.6576 18.9694 93.3232 18.9694C92.9967 18.9694 92.7379 19.053 92.5468 19.2202C92.3477 19.3874 92.2083 19.6423 92.1287 19.9847C92.0411 20.3271 91.9973 20.7691 91.9973 21.3106V25.4912H92.9529V21.4897C92.9529 21.1553 92.9688 20.8726 93.0007 20.6416C93.0246 20.4028 93.0803 20.2196 93.1679 20.0922C93.2555 19.9648 93.3988 19.9011 93.5979 19.9011C93.789 19.9011 93.9523 19.9926 94.0876 20.1758C94.223 20.351 94.3265 20.6138 94.3982 20.9642C94.4699 21.3145 94.5057 21.7565 94.5057 22.29V25.4912H95.4613V21.4897C95.4613 21.1473 95.4812 20.8606 95.521 20.6297C95.5608 20.3908 95.6325 20.2116 95.736 20.0922C95.8316 19.9648 95.9789 19.9011 96.178 19.9011C96.385 19.9011 96.5522 20.0006 96.6796 20.1997C96.8071 20.3908 96.8986 20.6655 96.9544 21.0239C97.0022 21.3743 97.026 21.7963 97.026 22.29V25.4912H97.9816ZM88.4783 25.6107C89.1074 25.6107 89.617 25.4554 90.0072 25.1448C90.3894 24.8343 90.5805 24.3644 90.5805 23.7353C90.5805 23.2735 90.4691 22.8912 90.2461 22.5886C90.0231 22.2781 89.6966 22.0471 89.2666 21.8958C88.8287 21.7366 88.2991 21.649 87.678 21.6331L86.3043 21.5972V21.3344C86.3043 20.7611 86.4477 20.3709 86.7343 20.1639C87.021 19.9489 87.4072 19.8413 87.893 19.8413C88.2354 19.8413 88.5619 19.8851 88.8725 19.9727C89.183 20.0603 89.4777 20.1838 89.7564 20.343L90.1266 19.5308C89.824 19.3795 89.4896 19.2481 89.1233 19.1366C88.749 19.0251 88.319 18.9694 87.8333 18.9694C87.029 18.9694 86.4118 19.1525 85.9818 19.5188C85.5439 19.8772 85.3249 20.4386 85.3249 21.203V25.4912H86.1849L86.3043 24.6073H86.3521C86.5273 24.8303 86.7224 25.0174 86.9374 25.1687C87.1444 25.312 87.3754 25.4195 87.6302 25.4912C87.885 25.5708 88.1677 25.6107 88.4783 25.6107ZM88.2991 24.7387C87.9408 24.7387 87.6103 24.675 87.3077 24.5476C87.0051 24.4122 86.7622 24.2131 86.5791 23.9503C86.3959 23.6796 86.3043 23.3412 86.3043 22.935V22.3617L87.451 22.3975C87.9607 22.4135 88.3708 22.4772 88.6813 22.5886C88.9919 22.6922 89.2188 22.8395 89.3622 23.0306C89.4976 23.2137 89.5652 23.4367 89.5652 23.6995C89.5652 24.0658 89.4498 24.3326 89.2188 24.4998C88.9879 24.6591 88.6813 24.7387 88.2991 24.7387ZM83.717 25.4912L81.2922 22.2184L83.5975 19.0888H82.3911L80.6711 21.4897L78.951 19.0888H77.7446L80.0619 22.2184L77.6371 25.4912H78.8435L80.6711 22.947L82.5106 25.4912H83.717ZM69.094 20.6297V19.6741H63.5994V20.6297H69.094ZM69.094 22.8992V21.9436H63.5994V22.8992H69.094ZM52.6674 25.6107C53.2965 25.6107 53.8061 25.4554 54.1963 25.1448C54.5785 24.8343 54.7697 24.3644 54.7697 23.7353C54.7697 23.2735 54.6582 22.8912 54.4352 22.5886C54.2122 22.2781 53.8858 22.0471 53.4557 21.8958C53.0178 21.7366 52.4882 21.649 51.8671 21.6331L50.4934 21.5972V21.3344C50.4934 20.7611 50.6368 20.3709 50.9235 20.1639C51.2101 19.9489 51.5963 19.8413 52.0821 19.8413C52.4245 19.8413 52.751 19.8851 53.0616 19.9727C53.3721 20.0603 53.6668 20.1838 53.9455 20.343L54.3158 19.5308C54.0132 19.3795 53.6787 19.2481 53.3124 19.1366C52.9381 19.0251 52.5081 18.9694 52.0224 18.9694C51.2181 18.9694 50.601 19.1525 50.1709 19.5188C49.733 19.8772 49.514 20.4386 49.514 21.203V25.4912H50.374L50.4934 24.6073H50.5412C50.7164 24.8303 50.9115 25.0174 51.1265 25.1687C51.3336 25.312 51.5645 25.4195 51.8193 25.4912C52.0741 25.5708 52.3568 25.6107 52.6674 25.6107ZM52.4882 24.7387C52.1299 24.7387 51.7994 24.675 51.4968 24.5476C51.1942 24.4122 50.9513 24.2131 50.7682 23.9503C50.585 23.6796 50.4934 23.3412 50.4934 22.935V22.3617L51.6401 22.3975C52.1498 22.4135 52.5599 22.4772 52.8705 22.5886C53.181 22.6922 53.408 22.8395 53.5513 23.0306C53.6867 23.2137 53.7544 23.4367 53.7544 23.6995C53.7544 24.0658 53.6389 24.3326 53.408 24.4998C53.177 24.6591 52.8705 24.7387 52.4882 24.7387ZM45.5769 27.3785V16.9627H42.8893V17.8227H44.5496V26.5185H42.8893V27.3785H45.5769ZM40.3259 25.4912V24.7745L38.0444 24.5954V19.9847L40.1347 19.8294V19.0888H36.9694V24.5954L34.8313 24.7745V25.4912H40.3259ZM37.6144 17.9302C37.8215 17.9302 38.0006 17.8665 38.1519 17.7391C38.2953 17.6117 38.3669 17.4245 38.3669 17.1777C38.3669 16.9149 38.2953 16.7238 38.1519 16.6043C38.0006 16.4769 37.8215 16.4132 37.6144 16.4132C37.4074 16.4132 37.2322 16.4769 37.0888 16.6043C36.9375 16.7238 36.8619 16.9149 36.8619 17.1777C36.8619 17.4245 36.9375 17.6117 37.0888 17.7391C37.2322 17.8665 37.4074 17.9302 37.6144 17.9302ZM29.8192 16.8432V27.259H32.5067V26.399H30.8464V17.7032H32.5067V16.8432H29.8192ZM24.4368 27.1635C24.3492 26.8131 24.2655 26.4468 24.1859 26.0646C24.1063 25.6903 24.0306 25.32 23.959 24.9537C23.8873 24.5874 23.8316 24.2529 23.7917 23.9503H22.5136L22.4181 24.0937C22.4738 24.3246 22.5455 24.5715 22.6331 24.8343C22.7207 25.0891 22.8162 25.3479 22.9198 25.6107C23.0153 25.8814 23.1188 26.1482 23.2303 26.411C23.3339 26.6737 23.4414 26.9246 23.5528 27.1635H24.4368ZM23.0989 20.5939C23.306 20.5939 23.4812 20.5302 23.6245 20.4028C23.7678 20.2753 23.8395 20.0683 23.8395 19.7816C23.8395 19.479 23.7678 19.268 23.6245 19.1486C23.4812 19.0291 23.306 18.9694 23.0989 18.9694C22.8919 18.9694 22.7167 19.0291 22.5734 19.1486C22.43 19.268 22.3584 19.479 22.3584 19.7816C22.3584 20.0683 22.43 20.2753 22.5734 20.4028C22.7167 20.5302 22.8919 20.5939 23.0989 20.5939Z" fill="url(#paint0_radial_2_69)"/>
<defs>
<radialGradient id="paint0_radial_2_69" cx="0" cy="0" r="1" gradientUnits="userSpaceOnUse" gradientTransform="translate(44.5789 12.4912) rotate(90) scale(16 54)">
<stop offset="0.535826" stop-color="#B5C5FF"/>
<stop offset="1" stop-color="white" stop-opacity="0"/>
</radialGradient>
</defs>
</svg>
