<svg width="98" height="28" viewBox="0 0 98 28" fill="none" xmlns="http://www.w3.org/2000/svg">
<path d="M0.955579 9.49121V8.77453L3.23702 8.59536V3.98469L1.14669 3.8294V3.08883H4.31205V8.59536L6.45016 8.77453V9.49121H0.955579ZM3.66703 1.93019C3.45999 1.93019 3.28082 1.86649 3.12952 1.73908C2.98618 1.61167 2.91452 1.42453 2.91452 1.17767C2.91452 0.914889 2.98618 0.723773 3.12952 0.604326C3.28082 0.476915 3.45999 0.41321 3.66703 0.41321C3.87408 0.41321 4.04927 0.476915 4.1926 0.604326C4.3439 0.723773 4.41955 0.914889 4.41955 1.17767C4.41955 1.42453 4.3439 1.61167 4.1926 1.73908C4.04927 1.86649 3.87408 1.93019 3.66703 1.93019ZM10.0409 9.49121V3.98469H7.95053V3.24411L10.0409 3.08883V2.3602C10.0409 1.85056 10.1364 1.4524 10.3275 1.16573C10.5266 0.871092 10.8013 0.66405 11.1517 0.544602C11.5021 0.417192 11.9082 0.353486 12.3701 0.353486C12.7205 0.353486 13.027 0.377376 13.2898 0.425154C13.5526 0.472934 13.7796 0.528676 13.9707 0.592381L13.7318 1.41657C13.5725 1.36879 13.3734 1.32897 13.1345 1.29712C12.8957 1.2573 12.6607 1.2374 12.4298 1.2374C12.0157 1.2374 11.6932 1.32499 11.4623 1.50018C11.2314 1.67537 11.1159 2.00982 11.1159 2.50354V3.08883H13.5287V3.98469H11.1159V9.49121H10.0409ZM18.4692 11.3785C17.864 10.6777 17.418 9.88539 17.1314 9.00148C16.8527 8.1096 16.7133 7.18189 16.7133 6.21835C16.7133 5.24685 16.8527 4.31118 17.1314 3.41134C17.418 2.50354 17.864 1.68732 18.4692 0.962668H19.4606C18.9032 1.71121 18.4811 2.53539 18.1944 3.43523C17.9157 4.33507 17.7764 5.25879 17.7764 6.20641C17.7764 7.13013 17.9157 8.03793 18.1944 8.92981C18.4811 9.81372 18.8992 10.6299 19.4486 11.3785H18.4692ZM22.0838 9.49121V3.08883H22.8243L22.9796 3.79357H23.0393C23.1429 3.57857 23.2544 3.41134 23.3738 3.29189C23.4932 3.17244 23.6207 3.08883 23.756 3.04105C23.8994 2.99327 24.0546 2.96938 24.2219 2.96938C24.5484 2.96938 24.7992 3.04902 24.9744 3.20828C25.1575 3.35958 25.2969 3.58653 25.3925 3.88913H25.4283C25.5637 3.59449 25.7309 3.36754 25.93 3.20828C26.137 3.04902 26.4078 2.96938 26.7422 2.96938C27.0687 2.96938 27.3275 3.053 27.5186 3.22022C27.7177 3.38745 27.8571 3.64227 27.9367 3.98469C28.0243 4.3271 28.0681 4.76906 28.0681 5.31055V9.49121H27.1125V5.48972C27.1125 5.15527 27.0966 4.87258 27.0647 4.64165C27.0408 4.40275 26.9851 4.2196 26.8975 4.09219C26.8099 3.96478 26.6666 3.90107 26.4675 3.90107C26.2764 3.90107 26.1131 3.99265 25.9778 4.1758C25.8424 4.35099 25.7389 4.61378 25.6672 4.96416C25.5955 5.31453 25.5597 5.75649 25.5597 6.29002V9.49121H24.6041V5.48972C24.6041 5.14731 24.5842 4.86063 24.5444 4.6297C24.5046 4.39081 24.4329 4.21164 24.3294 4.09219C24.2338 3.96478 24.0865 3.90107 23.8874 3.90107C23.6804 3.90107 23.5132 4.00061 23.3857 4.19969C23.2583 4.39081 23.1668 4.66554 23.111 5.02388C23.0632 5.37426 23.0393 5.79631 23.0393 6.29002V9.49121H22.0838ZM31.5871 9.61066C30.958 9.61066 30.4484 9.45538 30.0582 9.14481C29.676 8.83425 29.4848 8.36442 29.4848 7.73533C29.4848 7.27347 29.5963 6.89124 29.8193 6.58864C30.0423 6.27808 30.3687 6.04714 30.7988 5.89584C31.2367 5.73658 31.7663 5.64899 32.3874 5.63306L33.7611 5.59723V5.33444C33.7611 4.76109 33.6177 4.3709 33.331 4.16386C33.0444 3.94885 32.6582 3.84135 32.1724 3.84135C31.83 3.84135 31.5035 3.88515 31.1929 3.97274C30.8824 4.06034 30.5877 4.18377 30.309 4.34303L29.9387 3.53079C30.2413 3.37949 30.5758 3.24809 30.9421 3.13661C31.3164 3.02513 31.7464 2.96938 32.2321 2.96938C33.0364 2.96938 33.6536 3.15254 34.0836 3.51884C34.5215 3.87718 34.7405 4.43859 34.7405 5.20305V9.49121H33.8805L33.7611 8.6073H33.7133C33.5381 8.83027 33.343 9.0174 33.128 9.1687C32.9209 9.31204 32.69 9.41954 32.4352 9.49121C32.1804 9.57084 31.8977 9.61066 31.5871 9.61066ZM31.7663 8.73869C32.1246 8.73869 32.4551 8.67499 32.7577 8.54758C33.0603 8.4122 33.3032 8.21312 33.4863 7.95034C33.6695 7.67959 33.7611 7.34116 33.7611 6.93504V6.36169L32.6144 6.39752C32.1047 6.41345 31.6946 6.47716 31.3841 6.58864C31.0735 6.69216 30.8465 6.83948 30.7032 7.03059C30.5678 7.21375 30.5001 7.43672 30.5001 7.6995C30.5001 8.06581 30.6156 8.33257 30.8465 8.4998C31.0775 8.65906 31.3841 8.73869 31.7663 8.73869ZM36.3484 9.49121L38.7732 6.21835L36.4678 3.08883H37.6743L39.3943 5.48972L41.1143 3.08883H42.3208L40.0035 6.21835L42.4283 9.49121H41.2218L39.3943 6.94698L37.5548 9.49121H36.3484ZM56.2271 8.10562V7.17393L52.3331 5.29861L56.2271 3.1605V2.22881L51.2103 5.03582V5.63306L56.2271 8.10562ZM67.398 9.61066C66.7689 9.61066 66.2593 9.45538 65.8691 9.14481C65.4868 8.83425 65.2957 8.36442 65.2957 7.73533C65.2957 7.27347 65.4072 6.89124 65.6302 6.58864C65.8531 6.27808 66.1796 6.04714 66.6096 5.89584C67.0476 5.73658 67.5772 5.64899 68.1983 5.63306L69.5719 5.59723V5.33444C69.5719 4.76109 69.4286 4.3709 69.1419 4.16386C68.8553 3.94885 68.469 3.84135 67.9833 3.84135C67.6409 3.84135 67.3144 3.88515 67.0038 3.97274C66.6933 4.06034 66.3986 4.18377 66.1199 4.34303L65.7496 3.53079C66.0522 3.37949 66.3867 3.24809 66.753 3.13661C67.1272 3.02513 67.5573 2.96938 68.043 2.96938C68.8473 2.96938 69.4644 3.15254 69.8944 3.51884C70.3324 3.87718 70.5514 4.43859 70.5514 5.20305V9.49121H69.6914L69.5719 8.6073H69.5242C69.349 8.83027 69.1539 9.0174 68.9389 9.1687C68.7318 9.31204 68.5009 9.41954 68.2461 9.49121C67.9912 9.57084 67.7086 9.61066 67.398 9.61066ZM67.5772 8.73869C67.9355 8.73869 68.266 8.67499 68.5686 8.54758C68.8712 8.4122 69.1141 8.21312 69.2972 7.95034C69.4804 7.67959 69.5719 7.34116 69.5719 6.93504V6.36169L68.4252 6.39752C67.9156 6.41345 67.5055 6.47716 67.1949 6.58864C66.8844 6.69216 66.6574 6.83948 66.5141 7.03059C66.3787 7.21375 66.311 7.43672 66.311 7.6995C66.311 8.06581 66.4265 8.33257 66.6574 8.4998C66.8884 8.65906 67.1949 8.73869 67.5772 8.73869ZM74.4885 11.3785V0.962668H77.1761V1.82269H75.5157V10.5185H77.1761V11.3785H74.4885ZM79.7395 9.49121V8.77453L82.021 8.59536V3.98469L79.9306 3.8294V3.08883H83.096V8.59536L85.2341 8.77453V9.49121H79.7395ZM82.451 1.93019C82.2439 1.93019 82.0648 1.86649 81.9135 1.73908C81.7701 1.61167 81.6985 1.42453 81.6985 1.17767C81.6985 0.914889 81.7701 0.723773 81.9135 0.604326C82.0648 0.476915 82.2439 0.41321 82.451 0.41321C82.658 0.41321 82.8332 0.476915 82.9765 0.604326C83.1278 0.723773 83.2035 0.914889 83.2035 1.17767C83.2035 1.42453 83.1278 1.61167 82.9765 1.73908C82.8332 1.86649 82.658 1.93019 82.451 1.93019ZM90.2462 0.843221V11.259H87.5587V10.399H89.219V1.70324H87.5587V0.843221H90.2462ZM96.1303 0.962668C96.7355 1.66343 97.1775 2.45974 97.4562 3.35162C97.7429 4.23553 97.8862 5.15925 97.8862 6.12279C97.8862 7.0943 97.7429 8.03395 97.4562 8.94175C97.1775 9.84159 96.7355 10.6538 96.1303 11.3785H95.1389C95.6963 10.6299 96.1144 9.80576 96.3931 8.90592C96.6798 8.00608 96.8231 7.08236 96.8231 6.13474C96.8231 5.21101 96.6798 4.30719 96.3931 3.42328C96.1144 2.53141 95.7003 1.71121 95.1508 0.962668H96.1303ZM0.597237 25.4912V19.0888H1.33781L1.49309 19.7936H1.55282C1.65634 19.5786 1.76782 19.4113 1.88727 19.2919C2.00672 19.1724 2.13413 19.0888 2.2695 19.0411C2.41284 18.9933 2.56812 18.9694 2.73535 18.9694C3.06183 18.9694 3.31267 19.049 3.48786 19.2083C3.67102 19.3596 3.81037 19.5865 3.90593 19.8891H3.94176C4.07714 19.5945 4.24436 19.3675 4.44344 19.2083C4.65048 19.049 4.92123 18.9694 5.25568 18.9694C5.58217 18.9694 5.84098 19.053 6.03209 19.2202C6.23117 19.3874 6.37053 19.6423 6.45016 19.9847C6.53775 20.3271 6.58155 20.7691 6.58155 21.3106V25.4912H5.62597V21.4897C5.62597 21.1553 5.61005 20.8726 5.57819 20.6416C5.5543 20.4028 5.49856 20.2196 5.41097 20.0922C5.32337 19.9648 5.18003 19.9011 4.98096 19.9011C4.78984 19.9011 4.6266 19.9926 4.49122 20.1758C4.35585 20.351 4.25233 20.6138 4.18066 20.9642C4.10899 21.3145 4.07316 21.7565 4.07316 22.29V25.4912H3.11758V21.4897C3.11758 21.1473 3.09767 20.8606 3.05785 20.6297C3.01804 20.3908 2.94637 20.2116 2.84285 20.0922C2.74729 19.9648 2.59997 19.9011 2.40089 19.9011C2.19385 19.9011 2.02662 20.0006 1.89921 20.1997C1.7718 20.3908 1.68023 20.6655 1.62448 21.0239C1.57671 21.3743 1.55282 21.7963 1.55282 22.29V25.4912H0.597237ZM10.1006 25.6107C9.47149 25.6107 8.96185 25.4554 8.57166 25.1448C8.18942 24.8343 7.99831 24.3644 7.99831 23.7353C7.99831 23.2735 8.10979 22.8912 8.33276 22.5886C8.55573 22.2781 8.88222 22.0471 9.31223 21.8958C9.7502 21.7366 10.2798 21.649 10.9009 21.6331L12.2745 21.5972V21.3344C12.2745 20.7611 12.1312 20.3709 11.8445 20.1639C11.5578 19.9489 11.1716 19.8413 10.6859 19.8413C10.3435 19.8413 10.017 19.8851 9.70641 19.9727C9.39584 20.0603 9.10121 20.1838 8.8225 20.343L8.45221 19.5308C8.75481 19.3795 9.08926 19.2481 9.45557 19.1366C9.82983 19.0251 10.2598 18.9694 10.7456 18.9694C11.5499 18.9694 12.167 19.1525 12.597 19.5188C13.035 19.8772 13.254 20.4386 13.254 21.203V25.4912H12.394L12.2745 24.6073H12.2267C12.0516 24.8303 11.8565 25.0174 11.6415 25.1687C11.4344 25.312 11.2035 25.4195 10.9487 25.4912C10.6938 25.5708 10.4111 25.6107 10.1006 25.6107ZM10.2798 24.7387C10.6381 24.7387 10.9686 24.675 11.2712 24.5476C11.5738 24.4122 11.8166 24.2131 11.9998 23.9503C12.1829 23.6796 12.2745 23.3412 12.2745 22.935V22.3617L11.1278 22.3975C10.6182 22.4135 10.2081 22.4772 9.89752 22.5886C9.58696 22.6922 9.36001 22.8395 9.21667 23.0306C9.0813 23.2137 9.01361 23.4367 9.01361 23.6995C9.01361 24.0658 9.12908 24.3326 9.36001 24.4998C9.59094 24.6591 9.89752 24.7387 10.2798 24.7387ZM14.8619 25.4912L17.2866 22.2184L14.9813 19.0888H16.1877L17.9078 21.4897L19.6278 19.0888H20.8342L18.517 22.2184L20.9417 25.4912H19.7353L17.9078 22.947L16.0683 25.4912H14.8619ZM29.4848 20.6297V19.6741H34.9794V20.6297H29.4848ZM29.4848 22.8992V21.9436H34.9794V22.8992H29.4848ZM45.9115 25.6107C45.2824 25.6107 44.7727 25.4554 44.3825 25.1448C44.0003 24.8343 43.8092 24.3644 43.8092 23.7353C43.8092 23.2735 43.9207 22.8912 44.1436 22.5886C44.3666 22.2781 44.6931 22.0471 45.1231 21.8958C45.5611 21.7366 46.0906 21.649 46.7118 21.6331L48.0854 21.5972V21.3344C48.0854 20.7611 47.9421 20.3709 47.6554 20.1639C47.3687 19.9489 46.9825 19.8413 46.4968 19.8413C46.1543 19.8413 45.8279 19.8851 45.5173 19.9727C45.2067 20.0603 44.9121 20.1838 44.6334 20.343L44.2631 19.5308C44.5657 19.3795 44.9001 19.2481 45.2665 19.1366C45.6407 19.0251 46.0707 18.9694 46.5565 18.9694C47.3608 18.9694 47.9779 19.1525 48.4079 19.5188C48.8459 19.8772 49.0649 20.4386 49.0649 21.203V25.4912H48.2049L48.0854 24.6073H48.0376C47.8624 24.8303 47.6673 25.0174 47.4523 25.1687C47.2453 25.312 47.0144 25.4195 46.7595 25.4912C46.5047 25.5708 46.222 25.6107 45.9115 25.6107ZM46.0906 24.7387C46.449 24.7387 46.7795 24.675 47.0821 24.5476C47.3847 24.4122 47.6275 24.2131 47.8107 23.9503C47.9938 23.6796 48.0854 23.3412 48.0854 22.935V22.3617L46.9387 22.3975C46.4291 22.4135 46.019 22.4772 45.7084 22.5886C45.3978 22.6922 45.1709 22.8395 45.0276 23.0306C44.8922 23.2137 44.8245 23.4367 44.8245 23.6995C44.8245 24.0658 44.94 24.3326 45.1709 24.4998C45.4018 24.6591 45.7084 24.7387 46.0906 24.7387ZM53.002 27.3785V16.9627H55.6895V17.8227H54.0292V26.5185H55.6895V27.3785H53.002ZM58.253 25.4912V24.7745L60.5344 24.5954V19.9847L58.4441 19.8294V19.0888H61.6095V24.5954L63.7476 24.7745V25.4912H58.253ZM60.9644 17.9302C60.7574 17.9302 60.5782 17.8665 60.4269 17.7391C60.2836 17.6117 60.2119 17.4245 60.2119 17.1777C60.2119 16.9149 60.2836 16.7238 60.4269 16.6043C60.5782 16.4769 60.7574 16.4132 60.9644 16.4132C61.1715 16.4132 61.3467 16.4769 61.49 16.6043C61.6413 16.7238 61.717 16.9149 61.717 17.1777C61.717 17.4245 61.6413 17.6117 61.49 17.7391C61.3467 17.8665 61.1715 17.9302 60.9644 17.9302ZM68.7597 16.8432V27.259H66.0721V26.399H67.7324V17.7032H66.0721V16.8432H68.7597ZM74.1421 27.1635C74.2297 26.8131 74.3133 26.4468 74.3929 26.0646C74.4726 25.6903 74.5482 25.32 74.6199 24.9537C74.6916 24.5874 74.7473 24.2529 74.7871 23.9503H76.0652L76.1608 24.0937C76.105 24.3246 76.0334 24.5715 75.9458 24.8343C75.8582 25.0891 75.7626 25.3479 75.6591 25.6107C75.5635 25.8814 75.46 26.1482 75.3485 26.411C75.245 26.6737 75.1375 26.9246 75.026 27.1635H74.1421ZM75.4799 20.5939C75.2729 20.5939 75.0977 20.5302 74.9543 20.4028C74.811 20.2753 74.7393 20.0683 74.7393 19.7816C74.7393 19.479 74.811 19.268 74.9543 19.1486C75.0977 19.0291 75.2729 18.9694 75.4799 18.9694C75.687 18.9694 75.8621 19.0291 76.0055 19.1486C76.1488 19.268 76.2205 19.479 76.2205 19.7816C76.2205 20.0683 76.1488 20.2753 76.0055 20.4028C75.8621 20.5302 75.687 20.5939 75.4799 20.5939Z" fill="url(#paint0_radial_2_68)"/>
<defs>
<radialGradient id="paint0_radial_2_68" cx="0" cy="0" r="1" gradientUnits="userSpaceOnUse" gradientTransform="translate(54 12.4912) rotate(90) scale(16 54)">
<stop offset="0.535826" stop-color="#B5C5FF"/>
<stop offset="1" stop-color="white" stop-opacity="0"/>
</radialGradient>
</defs>
</svg>
