<svg width="171" height="92" viewBox="0 0 171 92" fill="none" xmlns="http://www.w3.org/2000/svg">
<path d="M170.623 9.49121V8.77453L168.342 8.59536V3.98469L170.432 3.8294V3.08883H167.267V8.59536L165.129 8.77453V9.49121H170.623ZM167.912 1.93019C168.119 1.93019 168.298 1.86649 168.449 1.73908C168.593 1.61167 168.664 1.42453 168.664 1.17767C168.664 0.914889 168.593 0.723773 168.449 0.604326C168.298 0.476915 168.119 0.41321 167.912 0.41321C167.705 0.41321 167.53 0.476915 167.386 0.604326C167.235 0.723773 167.159 0.914889 167.159 1.17767C167.159 1.42453 167.235 1.61167 167.386 1.73908C167.53 1.86649 167.705 1.93019 167.912 1.93019ZM163.461 9.49121V3.08883H162.601L162.446 4.03247H162.386C162.259 3.78561 162.095 3.58653 161.896 3.43523C161.689 3.27597 161.45 3.1605 161.18 3.08883C160.909 3.0092 160.614 2.96938 160.296 2.96938C159.651 2.96938 159.133 3.15254 158.743 3.51884C158.345 3.87718 158.146 4.44257 158.146 5.21499V9.49121H159.221V5.40611C159.221 4.86462 159.332 4.47044 159.555 4.22358C159.77 3.96876 160.121 3.84135 160.606 3.84135C161.259 3.84135 161.721 4.04839 161.992 4.46248C162.255 4.87656 162.386 5.45787 162.386 6.20641V9.49121H163.461ZM152.453 9.61066C152.907 9.61066 153.313 9.55093 153.671 9.43149C154.029 9.31204 154.316 9.10102 154.531 8.79842C154.738 8.49582 154.842 8.07775 154.842 7.54422V3.98469H156.586V3.24411L154.842 3.053L154.627 1.38073H153.767V3.08883H151.27V3.98469H153.767V7.34116C153.767 7.65968 153.723 7.92247 153.635 8.12951C153.54 8.33655 153.388 8.49183 153.181 8.59536C152.974 8.69091 152.708 8.73869 152.381 8.73869C152.174 8.73869 151.951 8.71878 151.712 8.67897C151.473 8.63915 151.266 8.59934 151.091 8.55952V9.41954C151.282 9.46732 151.493 9.51112 151.724 9.55093C151.955 9.59075 152.198 9.61066 152.453 9.61066ZM138.893 9.61066C139.514 9.61066 140.051 9.49917 140.505 9.27621C140.959 9.04527 141.31 8.69091 141.557 8.21312C141.795 7.72737 141.915 7.10226 141.915 6.3378C141.915 5.51759 141.783 4.86063 141.521 4.36692C141.25 3.8732 140.88 3.51884 140.41 3.30384C139.932 3.08087 139.391 2.96938 138.785 2.96938C138.411 2.96938 138.073 3.0092 137.77 3.08883C137.459 3.1605 137.169 3.268 136.898 3.41134L137.221 4.28331C137.475 4.14793 137.722 4.05237 137.961 3.99663C138.2 3.93293 138.459 3.90107 138.738 3.90107C139.223 3.90107 139.621 3.99265 139.932 4.1758C140.235 4.35099 140.458 4.61776 140.601 4.9761C140.744 5.32648 140.816 5.77242 140.816 6.31391C140.816 6.87929 140.74 7.33718 140.589 7.68756C140.438 8.03793 140.211 8.29276 139.908 8.45202C139.598 8.61128 139.219 8.69091 138.773 8.69091C138.423 8.69091 138.093 8.65508 137.782 8.58341C137.471 8.50378 137.201 8.4122 136.97 8.30868V9.25232C137.209 9.3638 137.503 9.4514 137.854 9.5151C138.204 9.57881 138.55 9.61066 138.893 9.61066ZM134.812 9.49121V0.41321H133.737V2.99327C133.737 3.14457 133.745 3.33569 133.761 3.56662C133.769 3.79755 133.777 3.98071 133.785 4.11608H133.725C133.59 3.85329 133.423 3.63829 133.224 3.47106C133.017 3.30384 132.786 3.18041 132.531 3.10078C132.276 3.01318 132.005 2.96938 131.719 2.96938C131.058 2.96938 130.524 3.15652 130.118 3.53079C129.704 3.89709 129.497 4.49035 129.497 5.31055V9.49121H130.572V5.52556C130.572 4.94425 130.695 4.51822 130.942 4.24747C131.189 3.97672 131.54 3.84135 131.993 3.84135C132.344 3.84135 132.65 3.93293 132.913 4.11608C133.176 4.29923 133.379 4.566 133.522 4.91638C133.666 5.25879 133.737 5.67686 133.737 6.17057V9.49121H134.812ZM124.58 9.61066C125.265 9.61066 125.855 9.48325 126.348 9.22843C126.842 8.97361 127.224 8.60332 127.495 8.11757C127.758 7.62385 127.889 7.02263 127.889 6.31391C127.889 5.61315 127.762 5.01592 127.507 4.5222C127.252 4.02052 126.898 3.63829 126.444 3.37551C125.99 3.10476 125.46 2.96938 124.855 2.96938C124.298 2.96938 123.82 3.09281 123.422 3.33967C123.016 3.58653 122.705 3.93691 122.49 4.39081C122.267 4.83674 122.156 5.37426 122.156 6.00335V6.49308H126.802C126.786 7.0505 126.683 7.49246 126.492 7.81895C126.292 8.14544 126.026 8.38035 125.691 8.52369C125.349 8.65906 124.955 8.72675 124.509 8.72675C124.158 8.72675 123.812 8.67897 123.47 8.58341C123.127 8.48785 122.785 8.36044 122.442 8.20118V9.15676C122.809 9.31602 123.175 9.43149 123.541 9.50316C123.908 9.57482 124.254 9.61066 124.58 9.61066ZM123.231 5.63306C123.247 5.25879 123.318 4.94027 123.446 4.67748C123.573 4.40673 123.756 4.19969 123.995 4.05636C124.226 3.91302 124.513 3.84135 124.855 3.84135C125.389 3.84135 125.823 4.00459 126.157 4.33108C126.484 4.64961 126.691 5.0836 126.778 5.63306H123.231ZM117.406 9.61066C118.027 9.61066 118.565 9.49917 119.019 9.27621C119.473 9.04527 119.823 8.69091 120.07 8.21312C120.309 7.72737 120.428 7.10226 120.428 6.3378C120.428 5.51759 120.297 4.86063 120.034 4.36692C119.763 3.8732 119.393 3.51884 118.923 3.30384C118.445 3.08087 117.904 2.96938 117.299 2.96938C116.925 2.96938 116.586 3.0092 116.283 3.08883C115.973 3.1605 115.682 3.268 115.412 3.41134L115.734 4.28331C115.989 4.14793 116.236 4.05237 116.475 3.99663C116.714 3.93293 116.972 3.90107 117.251 3.90107C117.737 3.90107 118.135 3.99265 118.445 4.1758C118.748 4.35099 118.971 4.61776 119.114 4.9761C119.258 5.32648 119.329 5.77242 119.329 6.31391C119.329 6.87929 119.254 7.33718 119.102 7.68756C118.951 8.03793 118.724 8.29276 118.422 8.45202C118.111 8.61128 117.733 8.69091 117.287 8.69091C116.936 8.69091 116.606 8.65508 116.295 8.58341C115.985 8.50378 115.714 8.4122 115.483 8.30868V9.25232C115.722 9.3638 116.017 9.4514 116.367 9.5151C116.717 9.57881 117.064 9.61066 117.406 9.61066ZM113.027 9.49121V0.41321H111.952V4.78498C111.952 4.95221 111.956 5.13934 111.964 5.34639C111.972 5.55343 111.984 5.76445 112 5.97946C112.008 6.19446 112.02 6.39752 112.036 6.58864H112.012C111.861 6.38956 111.717 6.21039 111.582 6.05113C111.439 5.8839 111.291 5.71269 111.14 5.5375L108.93 3.08883H107.64L110.184 5.84807L107.473 9.49121H108.715L110.901 6.48114L111.952 7.49644V9.49121H113.027ZM105.985 9.49121V0.962668H103.548C102.529 0.962668 101.784 1.18165 101.314 1.61963C100.844 2.04964 100.609 2.6628 100.609 3.45912C100.609 3.92894 100.709 4.37488 100.908 4.79693C101.099 5.21898 101.422 5.56139 101.876 5.82418C102.321 6.079 102.931 6.20641 103.703 6.20641H104.909V9.49121H105.985ZM103.823 5.27472C103.353 5.27472 102.963 5.21499 102.652 5.09555C102.333 4.9761 102.098 4.78897 101.947 4.53414C101.788 4.27136 101.708 3.93293 101.708 3.51884C101.708 2.92957 101.868 2.5115 102.186 2.26464C102.497 2.01779 102.982 1.89436 103.643 1.89436H104.909V5.27472H103.823ZM99.2165 9.49121V8.77453L97.2695 8.59536V3.98469L99.0254 3.8294V3.08883H96.4095L96.2662 4.25942H96.2184C95.9954 3.83737 95.7525 3.51884 95.4898 3.30384C95.219 3.08087 94.8647 2.96938 94.4267 2.96938C94.1559 2.96938 93.917 2.99327 93.71 3.04105C93.495 3.08883 93.2999 3.15254 93.1247 3.23217L93.4114 4.1758C93.5388 4.10413 93.6901 4.04441 93.8653 3.99663C94.0405 3.94089 94.2276 3.91302 94.4267 3.91302C94.7691 3.91302 95.0717 4.02052 95.3345 4.23553C95.5973 4.45053 95.8043 4.73721 95.9556 5.09555C96.1069 5.45389 96.1826 5.84807 96.1826 6.27808V8.59536L94.3192 8.77453V9.49121H99.2165ZM91.8393 9.49121V8.77453L89.5579 8.59536V3.98469L91.6482 3.8294V3.08883H88.4829V8.59536L86.3448 8.77453V9.49121H91.8393ZM89.1279 1.93019C89.3349 1.93019 89.5141 1.86649 89.6654 1.73908C89.8087 1.61167 89.8804 1.42453 89.8804 1.17767C89.8804 0.914889 89.8087 0.723773 89.6654 0.604326C89.5141 0.476915 89.3349 0.41321 89.1279 0.41321C88.9208 0.41321 88.7456 0.476915 88.6023 0.604326C88.451 0.723773 88.3754 0.914889 88.3754 1.17767C88.3754 1.42453 88.451 1.61167 88.6023 1.73908C88.7456 1.86649 88.9208 1.93019 89.1279 1.93019ZM85.0355 9.49121V3.08883H84.2949L84.1396 3.79357H84.0799C83.9764 3.57857 83.8649 3.41134 83.7455 3.29189C83.626 3.17244 83.4986 3.08883 83.3632 3.04105C83.2199 2.99327 83.0646 2.96938 82.8974 2.96938C82.5709 2.96938 82.3201 3.04902 82.1449 3.20828C81.9617 3.35958 81.8224 3.58653 81.7268 3.88913H81.691C81.5556 3.59449 81.3884 3.36754 81.1893 3.20828C80.9823 3.04902 80.7115 2.96938 80.3771 2.96938C80.0506 2.96938 79.7918 3.053 79.6006 3.22022C79.4016 3.38745 79.2622 3.64227 79.1826 3.98469C79.095 4.3271 79.0512 4.76906 79.0512 5.31055V9.49121H80.0068V5.48972C80.0068 5.15527 80.0227 4.87258 80.0545 4.64165C80.0784 4.40275 80.1342 4.2196 80.2218 4.09219C80.3094 3.96478 80.4527 3.90107 80.6518 3.90107C80.8429 3.90107 81.0061 3.99265 81.1415 4.1758C81.2769 4.35099 81.3804 4.61378 81.4521 4.96416C81.5237 5.31453 81.5596 5.75649 81.5596 6.29002V9.49121H82.5152V5.48972C82.5152 5.14731 82.5351 4.86063 82.5749 4.6297C82.6147 4.39081 82.6864 4.21164 82.7899 4.09219C82.8854 3.96478 83.0328 3.90107 83.2318 3.90107C83.4389 3.90107 83.6061 4.00061 83.7335 4.19969C83.8609 4.39081 83.9525 4.66554 84.0083 5.02388C84.056 5.37426 84.0799 5.79631 84.0799 6.29002V9.49121H85.0355ZM74.4452 9.61066C75.13 9.61066 75.7193 9.48325 76.213 9.22843C76.7067 8.97361 77.089 8.60332 77.3597 8.11757C77.6225 7.62385 77.7539 7.02263 77.7539 6.31391C77.7539 5.61315 77.6265 5.01592 77.3716 4.5222C77.1168 4.02052 76.7625 3.63829 76.3086 3.37551C75.8547 3.10476 75.3251 2.96938 74.7199 2.96938C74.1625 2.96938 73.6847 3.09281 73.2865 3.33967C72.8804 3.58653 72.5699 3.93691 72.3549 4.39081C72.1319 4.83674 72.0204 5.37426 72.0204 6.00335V6.49308H76.6669C76.651 7.0505 76.5475 7.49246 76.3563 7.81895C76.1573 8.14544 75.8905 8.38035 75.556 8.52369C75.2136 8.65906 74.8194 8.72675 74.3735 8.72675C74.0231 8.72675 73.6767 8.67897 73.3343 8.58341C72.9919 8.48785 72.6495 8.36044 72.3071 8.20118V9.15676C72.6734 9.31602 73.0397 9.43149 73.406 9.50316C73.7723 9.57482 74.1187 9.61066 74.4452 9.61066ZM73.0954 5.63306C73.1114 5.25879 73.183 4.94027 73.3104 4.67748C73.4378 4.40673 73.621 4.19969 73.8599 4.05636C74.0908 3.91302 74.3775 3.84135 74.7199 3.84135C75.2534 3.84135 75.6874 4.00459 76.0219 4.33108C76.3484 4.64961 76.5554 5.0836 76.643 5.63306H73.0954ZM67.1636 11.3785C67.7688 10.6777 68.2147 9.88539 68.5014 9.00148C68.7801 8.1096 68.9194 7.18189 68.9194 6.21835C68.9194 5.24685 68.7801 4.31118 68.5014 3.41134C68.2147 2.50354 67.7688 1.68732 67.1636 0.962668H66.1722C66.7296 1.71121 67.1516 2.53539 67.4383 3.43523C67.717 4.33507 67.8564 5.25879 67.8564 6.20641C67.8564 7.13013 67.717 8.03793 67.4383 8.92981C67.1516 9.81372 66.7336 10.6299 66.1841 11.3785H67.1636ZM63.1906 9.49121V8.77453L60.9092 8.59536V3.98469L62.9995 3.8294V3.08883H59.8342V8.59536L57.6961 8.77453V9.49121H63.1906ZM60.4792 1.93019C60.6862 1.93019 60.8654 1.86649 61.0167 1.73908C61.16 1.61167 61.2317 1.42453 61.2317 1.17767C61.2317 0.914889 61.16 0.723773 61.0167 0.604326C60.8654 0.476915 60.6862 0.41321 60.4792 0.41321C60.2721 0.41321 60.0969 0.476915 59.9536 0.604326C59.8023 0.723773 59.7267 0.914889 59.7267 1.17767C59.7267 1.42453 59.8023 1.61167 59.9536 1.73908C60.0969 1.86649 60.2721 1.93019 60.4792 1.93019ZM56.0285 9.49121V3.08883H55.1684L55.0131 4.03247H54.9534C54.826 3.78561 54.6628 3.58653 54.4637 3.43523C54.2566 3.27597 54.0178 3.1605 53.747 3.08883C53.4763 3.0092 53.1816 2.96938 52.8631 2.96938C52.2181 2.96938 51.7005 3.15254 51.3103 3.51884C50.9121 3.87718 50.713 4.44257 50.713 5.21499V9.49121H51.7881V5.40611C51.7881 4.86462 51.8996 4.47044 52.1225 4.22358C52.3375 3.96876 52.6879 3.84135 53.1737 3.84135C53.8266 3.84135 54.2885 4.04839 54.5592 4.46248C54.822 4.87656 54.9534 5.45787 54.9534 6.20641V9.49121H56.0285ZM45.0201 9.61066C45.474 9.61066 45.8801 9.55093 46.2384 9.43149C46.5968 9.31204 46.8834 9.10102 47.0985 8.79842C47.3055 8.49582 47.409 8.07775 47.409 7.54422V3.98469H49.1529V3.24411L47.409 3.053L47.194 1.38073H46.334V3.08883H43.8375V3.98469H46.334V7.34116C46.334 7.65968 46.2902 7.92247 46.2026 8.12951C46.107 8.33655 45.9557 8.49183 45.7487 8.59536C45.5417 8.69091 45.2749 8.73869 44.9484 8.73869C44.7414 8.73869 44.5184 8.71878 44.2795 8.67897C44.0406 8.63915 43.8336 8.59934 43.6584 8.55952V9.41954C43.8495 9.46732 44.0605 9.51112 44.2914 9.55093C44.5224 9.59075 44.7652 9.61066 45.0201 9.61066ZM34.5419 9.49121V3.08883H33.6819L33.5266 4.03247H33.4669C33.3395 3.78561 33.1762 3.58653 32.9772 3.43523C32.7701 3.27597 32.5312 3.1605 32.2605 3.08883C31.9897 3.0092 31.6951 2.96938 31.3766 2.96938C30.7315 2.96938 30.2139 3.15254 29.8237 3.51884C29.4256 3.87718 29.2265 4.44257 29.2265 5.21499V9.49121H30.3015V5.40611C30.3015 4.86462 30.413 4.47044 30.636 4.22358C30.851 3.96876 31.2014 3.84135 31.6871 3.84135C32.3401 3.84135 32.802 4.04839 33.0727 4.46248C33.3355 4.87656 33.4669 5.45787 33.4669 6.20641V9.49121H34.5419ZM25.3133 0.962668C24.7081 1.66343 24.2662 2.45974 23.9874 3.35162C23.7008 4.23553 23.5574 5.15925 23.5574 6.12279C23.5574 7.0943 23.7008 8.03395 23.9874 8.94175C24.2662 9.84159 24.7081 10.6538 25.3133 11.3785H26.3047C25.7473 10.6299 25.3292 9.80576 25.0505 8.90592C24.7639 8.00608 24.6205 7.08236 24.6205 6.13474C24.6205 5.21101 24.7639 4.30719 25.0505 3.42328C25.3292 2.53141 25.7433 1.71121 26.2928 0.962668H25.3133ZM18.6528 11.1635C18.5652 10.8131 18.4816 10.4468 18.402 10.0646C18.3223 9.69029 18.2467 9.32 18.175 8.9537C18.1033 8.58739 18.0476 8.25294 18.0078 7.95034H16.7297L16.6341 8.09368C16.6899 8.32461 16.7616 8.57147 16.8491 8.83425C16.9367 9.08907 17.0323 9.34787 17.1358 9.61066C17.2314 9.88141 17.3349 10.1482 17.4464 10.411C17.5499 10.6737 17.6574 10.9246 17.7689 11.1635H18.6528ZM17.315 4.59387C17.522 4.59387 17.6972 4.53016 17.8406 4.40275C17.9839 4.27534 18.0556 4.0683 18.0556 3.78163C18.0556 3.47903 17.9839 3.268 17.8406 3.14856C17.6972 3.02911 17.522 2.96938 17.315 2.96938C17.1079 2.96938 16.9328 3.02911 16.7894 3.14856C16.6461 3.268 16.5744 3.47903 16.5744 3.78163C16.5744 4.0683 16.6461 4.27534 16.7894 4.40275C16.9328 4.53016 17.1079 4.59387 17.315 4.59387ZM170.623 25.4912V24.7745L168.342 24.5954V19.9847L170.432 19.8294V19.0888H167.267V24.5954L165.129 24.7745V25.4912H170.623ZM167.912 17.9302C168.119 17.9302 168.298 17.8665 168.449 17.7391C168.593 17.6117 168.664 17.4245 168.664 17.1777C168.664 16.9149 168.593 16.7238 168.449 16.6043C168.298 16.4769 168.119 16.4132 167.912 16.4132C167.705 16.4132 167.53 16.4769 167.386 16.6043C167.235 16.7238 167.159 16.9149 167.159 17.1777C167.159 17.4245 167.235 17.6117 167.386 17.7391C167.53 17.8665 167.705 17.9302 167.912 17.9302ZM163.461 25.4912V19.0888H162.601L162.446 20.0325H162.386C162.259 19.7856 162.095 19.5865 161.896 19.4352C161.689 19.276 161.45 19.1605 161.18 19.0888C160.909 19.0092 160.614 18.9694 160.296 18.9694C159.651 18.9694 159.133 19.1525 158.743 19.5188C158.345 19.8772 158.146 20.4426 158.146 21.215V25.4912H159.221V21.4061C159.221 20.8646 159.332 20.4704 159.555 20.2236C159.77 19.9688 160.121 19.8413 160.606 19.8413C161.259 19.8413 161.721 20.0484 161.992 20.4625C162.255 20.8766 162.386 21.4579 162.386 22.2064V25.4912H163.461ZM152.453 25.6107C152.907 25.6107 153.313 25.5509 153.671 25.4315C154.029 25.312 154.316 25.101 154.531 24.7984C154.738 24.4958 154.842 24.0778 154.842 23.5442V19.9847H156.586V19.2441L154.842 19.053L154.627 17.3807H153.767V19.0888H151.27V19.9847H153.767V23.3412C153.767 23.6597 153.723 23.9225 153.635 24.1295C153.54 24.3366 153.388 24.4918 153.181 24.5954C152.974 24.6909 152.708 24.7387 152.381 24.7387C152.174 24.7387 151.951 24.7188 151.712 24.679C151.473 24.6392 151.266 24.5993 151.091 24.5595V25.4195C151.282 25.4673 151.493 25.5111 151.724 25.5509C151.955 25.5908 152.198 25.6107 152.453 25.6107ZM142.333 25.4912V19.0888H141.592L141.437 19.7936H141.377C141.274 19.5786 141.162 19.4113 141.043 19.2919C140.923 19.1724 140.796 19.0888 140.661 19.0411C140.517 18.9933 140.362 18.9694 140.195 18.9694C139.868 18.9694 139.617 19.049 139.442 19.2083C139.259 19.3596 139.12 19.5865 139.024 19.8891H138.988C138.853 19.5945 138.686 19.3675 138.487 19.2083C138.28 19.049 138.009 18.9694 137.674 18.9694C137.348 18.9694 137.089 19.053 136.898 19.2202C136.699 19.3874 136.56 19.6423 136.48 19.9847C136.392 20.3271 136.349 20.7691 136.349 21.3106V25.4912H137.304V21.4897C137.304 21.1553 137.32 20.8726 137.352 20.6416C137.376 20.4028 137.432 20.2196 137.519 20.0922C137.607 19.9648 137.75 19.9011 137.949 19.9011C138.14 19.9011 138.304 19.9926 138.439 20.1758C138.574 20.351 138.678 20.6138 138.749 20.9642C138.821 21.3145 138.857 21.7565 138.857 22.29V25.4912H139.813V21.4897C139.813 21.1473 139.832 20.8606 139.872 20.6297C139.912 20.3908 139.984 20.2116 140.087 20.0922C140.183 19.9648 140.33 19.9011 140.529 19.9011C140.736 19.9011 140.904 20.0006 141.031 20.1997C141.158 20.3908 141.25 20.6655 141.306 21.0239C141.353 21.3743 141.377 21.7963 141.377 22.29V25.4912H142.333ZM132.83 25.6107C133.459 25.6107 133.968 25.4554 134.358 25.1448C134.741 24.8343 134.932 24.3644 134.932 23.7353C134.932 23.2735 134.82 22.8912 134.597 22.5886C134.374 22.2781 134.048 22.0471 133.618 21.8958C133.18 21.7366 132.65 21.649 132.029 21.6331L130.656 21.5972V21.3344C130.656 20.7611 130.799 20.3709 131.086 20.1639C131.372 19.9489 131.759 19.8413 132.244 19.8413C132.587 19.8413 132.913 19.8851 133.224 19.9727C133.534 20.0603 133.829 20.1838 134.108 20.343L134.478 19.5308C134.175 19.3795 133.841 19.2481 133.475 19.1366C133.1 19.0251 132.67 18.9694 132.185 18.9694C131.38 18.9694 130.763 19.1525 130.333 19.5188C129.895 19.8772 129.676 20.4386 129.676 21.203V25.4912H130.536L130.656 24.6073H130.703C130.879 24.8303 131.074 25.0174 131.289 25.1687C131.496 25.312 131.727 25.4195 131.981 25.4912C132.236 25.5708 132.519 25.6107 132.83 25.6107ZM132.65 24.7387C132.292 24.7387 131.962 24.675 131.659 24.5476C131.356 24.4122 131.114 24.2131 130.93 23.9503C130.747 23.6796 130.656 23.3412 130.656 22.935V22.3617L131.802 22.3975C132.312 22.4135 132.722 22.4772 133.033 22.5886C133.343 22.6922 133.57 22.8395 133.713 23.0306C133.849 23.2137 133.917 23.4367 133.917 23.6995C133.917 24.0658 133.801 24.3326 133.57 24.4998C133.339 24.6591 133.033 24.7387 132.65 24.7387ZM127.65 25.4912V24.7745L125.369 24.5954V19.9847L127.459 19.8294V19.0888H124.294V24.5954L122.156 24.7745V25.4912H127.65ZM124.939 17.9302C125.146 17.9302 125.325 17.8665 125.476 17.7391C125.62 17.6117 125.691 17.4245 125.691 17.1777C125.691 16.9149 125.62 16.7238 125.476 16.6043C125.325 16.4769 125.146 16.4132 124.939 16.4132C124.732 16.4132 124.557 16.4769 124.413 16.6043C124.262 16.7238 124.186 16.9149 124.186 17.1777C124.186 17.4245 124.262 17.6117 124.413 17.7391C124.557 17.8665 124.732 17.9302 124.939 17.9302ZM120.488 25.4912V19.0888H119.628L119.473 20.0325H119.413C119.286 19.7856 119.122 19.5865 118.923 19.4352C118.716 19.276 118.477 19.1605 118.207 19.0888C117.936 19.0092 117.641 18.9694 117.323 18.9694C116.678 18.9694 116.16 19.1525 115.77 19.5188C115.372 19.8772 115.173 20.4426 115.173 21.215V25.4912H116.248V21.4061C116.248 20.8646 116.359 20.4704 116.582 20.2236C116.797 19.9688 117.147 19.8413 117.633 19.8413C118.286 19.8413 118.748 20.0484 119.019 20.4625C119.282 20.8766 119.413 21.4579 119.413 22.2064V25.4912H120.488ZM110.137 27.3785C110.742 26.6777 111.188 25.8854 111.474 25.0015C111.753 24.1096 111.892 23.1819 111.892 22.2184C111.892 21.2468 111.753 20.3112 111.474 19.4113C111.188 18.5035 110.742 17.6873 110.137 16.9627H109.145C109.703 17.7112 110.125 18.5354 110.411 19.4352C110.69 20.3351 110.829 21.2588 110.829 22.2064C110.829 23.1301 110.69 24.0379 110.411 24.9298C110.125 25.8137 109.707 26.6299 109.157 27.3785H110.137ZM96.9351 16.9627C96.3299 17.6634 95.8879 18.4597 95.6092 19.3516C95.3225 20.2355 95.1792 21.1593 95.1792 22.1228C95.1792 23.0943 95.3225 24.034 95.6092 24.9418C95.8879 25.8416 96.3299 26.6538 96.9351 27.3785H97.9265C97.3691 26.6299 96.951 25.8058 96.6723 24.9059C96.3856 24.0061 96.2423 23.0824 96.2423 22.1347C96.2423 21.211 96.3856 20.3072 96.6723 19.4233C96.951 18.5314 97.3651 17.7112 97.9145 16.9627H96.9351ZM72.976 27.3785C73.4617 27.3705 73.8838 27.2988 74.2421 27.1635C74.5925 27.0281 74.8632 26.8171 75.0544 26.5304C75.2455 26.2517 75.341 25.9013 75.341 25.4793V23.7234C75.341 23.3173 75.4684 23.0306 75.7233 22.8634C75.9701 22.6882 76.3285 22.6006 76.7983 22.6006V21.7286C76.3285 21.7207 75.9701 21.6331 75.7233 21.4658C75.4684 21.2986 75.341 21.0159 75.341 20.6178V18.8499C75.341 18.4279 75.2415 18.0775 75.0424 17.7988C74.8433 17.5201 74.5646 17.313 74.2063 17.1777C73.8479 17.0343 73.4378 16.9627 72.976 16.9627V17.8227C73.2467 17.8307 73.4816 17.8744 73.6807 17.9541C73.8798 18.0337 74.0351 18.1532 74.1466 18.3124C74.2501 18.4717 74.3018 18.6827 74.3018 18.9455V20.6655C74.3018 21.0717 74.4093 21.3981 74.6244 21.645C74.8394 21.8839 75.1658 22.0432 75.6038 22.1228V22.1945C75.1579 22.2741 74.8314 22.4373 74.6244 22.6842C74.4093 22.9231 74.3018 23.2456 74.3018 23.6517V25.4076C74.3018 25.7978 74.1864 26.0765 73.9554 26.2437C73.7245 26.4189 73.398 26.5105 72.976 26.5185V27.3785ZM170.623 41.4912V40.7745L168.342 40.5954V35.9847L170.432 35.8294V35.0888H167.267V40.5954L165.129 40.7745V41.4912H170.623ZM167.912 33.9302C168.119 33.9302 168.298 33.8665 168.449 33.7391C168.593 33.6117 168.664 33.4245 168.664 33.1777C168.664 32.9149 168.593 32.7238 168.449 32.6043C168.298 32.4769 168.119 32.4132 167.912 32.4132C167.705 32.4132 167.53 32.4769 167.386 32.6043C167.235 32.7238 167.159 32.9149 167.159 33.1777C167.159 33.4245 167.235 33.6117 167.386 33.7391C167.53 33.8665 167.705 33.9302 167.912 33.9302ZM163.461 41.4912V35.0888H162.601L162.446 36.0325H162.386C162.259 35.7856 162.095 35.5865 161.896 35.4352C161.689 35.276 161.45 35.1605 161.18 35.0888C160.909 35.0092 160.614 34.9694 160.296 34.9694C159.651 34.9694 159.133 35.1525 158.743 35.5188C158.345 35.8772 158.146 36.4426 158.146 37.215V41.4912H159.221V37.4061C159.221 36.8646 159.332 36.4704 159.555 36.2236C159.77 35.9688 160.121 35.8413 160.606 35.8413C161.259 35.8413 161.721 36.0484 161.992 36.4625C162.255 36.8766 162.386 37.4579 162.386 38.2064V41.4912H163.461ZM152.453 41.6107C152.907 41.6107 153.313 41.5509 153.671 41.4315C154.029 41.312 154.316 41.101 154.531 40.7984C154.738 40.4958 154.842 40.0778 154.842 39.5442V35.9847H156.586V35.2441L154.842 35.053L154.627 33.3807H153.767V35.0888H151.27V35.9847H153.767V39.3412C153.767 39.6597 153.723 39.9225 153.635 40.1295C153.54 40.3366 153.388 40.4918 153.181 40.5954C152.974 40.6909 152.708 40.7387 152.381 40.7387C152.174 40.7387 151.951 40.7188 151.712 40.679C151.473 40.6392 151.266 40.5993 151.091 40.5595V41.4195C151.282 41.4673 151.493 41.5111 151.724 41.5509C151.955 41.5908 152.198 41.6107 152.453 41.6107ZM141.975 41.4912V35.0888H141.115L140.959 36.0325H140.9C140.772 35.7856 140.609 35.5865 140.41 35.4352C140.203 35.276 139.964 35.1605 139.693 35.0888C139.422 35.0092 139.128 34.9694 138.809 34.9694C138.164 34.9694 137.647 35.1525 137.256 35.5188C136.858 35.8772 136.659 36.4426 136.659 37.215V41.4912H137.734V37.4061C137.734 36.8646 137.846 36.4704 138.069 36.2236C138.284 35.9688 138.634 35.8413 139.12 35.8413C139.773 35.8413 140.235 36.0484 140.505 36.4625C140.768 36.8766 140.9 37.4579 140.9 38.2064V41.4912H141.975ZM133.248 43.1635C133.16 42.8131 133.076 42.4468 132.997 42.0646C132.917 41.6903 132.842 41.32 132.77 40.9537C132.698 40.5874 132.642 40.2529 132.603 39.9503H131.325L131.229 40.0937C131.285 40.3246 131.356 40.5715 131.444 40.8343C131.532 41.0891 131.627 41.3479 131.731 41.6107C131.826 41.8814 131.93 42.1482 132.041 42.411C132.145 42.6737 132.252 42.9246 132.364 43.1635H133.248ZM120.488 41.4912V40.7745L118.207 40.5954V35.9847L120.297 35.8294V35.0888H117.132V40.5954L114.993 40.7745V41.4912H120.488ZM117.777 33.9302C117.984 33.9302 118.163 33.8665 118.314 33.7391C118.457 33.6117 118.529 33.4245 118.529 33.1777C118.529 32.9149 118.457 32.7238 118.314 32.6043C118.163 32.4769 117.984 32.4132 117.777 32.4132C117.57 32.4132 117.394 32.4769 117.251 32.6043C117.1 32.7238 117.024 32.9149 117.024 33.1777C117.024 33.4245 117.1 33.6117 117.251 33.7391C117.394 33.8665 117.57 33.9302 117.777 33.9302ZM111.761 43.1635C111.674 42.8131 111.59 42.4468 111.51 42.0646C111.431 41.6903 111.355 41.32 111.283 40.9537C111.212 40.5874 111.156 40.2529 111.116 39.9503H109.838L109.742 40.0937C109.798 40.3246 109.87 40.5715 109.957 40.8343C110.045 41.0891 110.141 41.3479 110.244 41.6107C110.34 41.8814 110.443 42.1482 110.555 42.411C110.658 42.6737 110.766 42.9246 110.877 43.1635H111.761ZM97.0784 41.4912V35.9847H99.1687V35.2441L97.0784 35.0888V34.3602C97.0784 33.8506 96.9829 33.4524 96.7917 33.1657C96.5927 32.8711 96.3179 32.664 95.9675 32.5446C95.6172 32.4172 95.211 32.3535 94.7492 32.3535C94.3988 32.3535 94.0922 32.3774 93.8294 32.4252C93.5667 32.4729 93.3397 32.5287 93.1486 32.5924L93.3875 33.4166C93.5467 33.3688 93.7458 33.329 93.9847 33.2971C94.2236 33.2573 94.4585 33.2374 94.6895 33.2374C95.1035 33.2374 95.4261 33.325 95.657 33.5002C95.8879 33.6754 96.0034 34.0098 96.0034 34.5035V35.0888H93.5905V35.9847H96.0034V41.4912H97.0784ZM91.8393 41.4912V40.7745L89.4982 40.5954V33.3091L91.7677 33.1538V32.4132H88.4231V40.5954L86.3448 40.7745V41.4912H91.8393ZM82.6943 41.6107C83.3234 41.6107 83.8331 41.4554 84.2233 41.1448C84.6055 40.8343 84.7966 40.3644 84.7966 39.7353C84.7966 39.2735 84.6851 38.8912 84.4622 38.5886C84.2392 38.2781 83.9127 38.0471 83.4827 37.8958C83.0447 37.7366 82.5152 37.649 81.894 37.6331L80.5204 37.5972V37.3344C80.5204 36.7611 80.6637 36.3709 80.9504 36.1639C81.2371 35.9489 81.6233 35.8413 82.109 35.8413C82.4515 35.8413 82.7779 35.8851 83.0885 35.9727C83.3991 36.0603 83.6937 36.1838 83.9724 36.343L84.3427 35.5308C84.0401 35.3795 83.7057 35.2481 83.3393 35.1366C82.9651 35.0251 82.5351 34.9694 82.0493 34.9694C81.245 34.9694 80.6279 35.1525 80.1979 35.5188C79.7599 35.8772 79.5409 36.4386 79.5409 37.203V41.4912H80.4009L80.5204 40.6073H80.5682C80.7434 40.8303 80.9385 41.0174 81.1535 41.1687C81.3605 41.312 81.5914 41.4195 81.8463 41.4912C82.1011 41.5708 82.3838 41.6107 82.6943 41.6107ZM82.5152 40.7387C82.1568 40.7387 81.8263 40.675 81.5237 40.5476C81.2211 40.4122 80.9783 40.2131 80.7951 39.9503C80.612 39.6796 80.5204 39.3412 80.5204 38.935V38.3617L81.6671 38.3975C82.1767 38.4135 82.5868 38.4772 82.8974 38.5886C83.208 38.6922 83.4349 38.8395 83.5782 39.0306C83.7136 39.2137 83.7813 39.4367 83.7813 39.6995C83.7813 40.0658 83.6658 40.3326 83.4349 40.4998C83.204 40.6591 82.8974 40.7387 82.5152 40.7387ZM75.1738 44.4177C75.6118 44.4177 76.0259 44.3739 76.4161 44.2863C76.7983 44.2066 77.1527 44.0991 77.4791 43.9638V43.0082C77.1606 43.1913 76.7943 43.3267 76.3802 43.4143C75.9582 43.5099 75.568 43.5577 75.2096 43.5577C74.485 43.5577 73.9793 43.3864 73.6927 43.044C73.406 42.7096 73.2627 42.2477 73.2627 41.6584V41.4315C73.2627 41.3359 73.2627 41.2444 73.2627 41.1568C73.2547 41.0692 73.2427 40.9338 73.2268 40.7506H73.2746C73.4976 41.0771 73.7603 41.3041 74.0629 41.4315C74.3576 41.5509 74.7159 41.6107 75.138 41.6107C75.9821 41.6107 76.639 41.324 77.1089 40.7506C77.5787 40.1693 77.8136 39.3611 77.8136 38.3259C77.8136 37.2827 77.5827 36.4625 77.1208 35.8652C76.651 35.268 76.0099 34.9694 75.1977 34.9694C74.7677 34.9694 74.4054 35.0411 74.1107 35.1844C73.8161 35.3198 73.5533 35.5507 73.3224 35.8772H73.2627L73.1193 35.0888H72.2593V41.6584C72.2593 42.2636 72.3628 42.7693 72.5699 43.1754C72.7769 43.5895 73.0954 43.9001 73.5254 44.1071C73.9554 44.3142 74.5049 44.4177 75.1738 44.4177ZM74.9349 40.7387C74.6721 40.7387 74.4372 40.6989 74.2302 40.6192C74.0152 40.5317 73.836 40.4003 73.6927 40.2251C73.5414 40.0419 73.4259 39.815 73.3463 39.5442C73.2666 39.2655 73.2268 38.935 73.2268 38.5528V38.302C73.2268 37.7207 73.2985 37.2508 73.4418 36.8925C73.5772 36.5262 73.7763 36.2594 74.0391 36.0922C74.3018 35.925 74.6124 35.8413 74.9707 35.8413C75.576 35.8413 76.0179 36.0564 76.2966 36.4864C76.5753 36.9084 76.7147 37.5096 76.7147 38.29C76.7147 39.0863 76.5713 39.6955 76.2847 40.1176C75.99 40.5317 75.5401 40.7387 74.9349 40.7387ZM63.3101 36.6297V35.6741H57.8155V36.6297H63.3101ZM63.3101 38.8992V37.9436H57.8155V38.8992H63.3101ZM46.2504 41.6107C46.9113 41.6107 47.4528 41.4355 47.8749 41.0851C48.2969 40.7347 48.6075 40.233 48.8066 39.5801C49.0056 38.9191 49.1052 38.1308 49.1052 37.215C49.1052 36.2913 49.0096 35.5069 48.8185 34.8619C48.6274 34.2089 48.3248 33.7112 47.9107 33.3688C47.4886 33.0184 46.9352 32.8432 46.2504 32.8432C45.5815 32.8432 45.036 33.0144 44.6139 33.3568C44.1839 33.6993 43.8694 34.197 43.6703 34.8499C43.4712 35.5029 43.3717 36.2913 43.3717 37.215C43.3717 37.9078 43.4274 38.5249 43.5389 39.0664C43.6424 39.6079 43.8097 40.0698 44.0406 40.452C44.2636 40.8263 44.5582 41.113 44.9245 41.312C45.2908 41.5111 45.7328 41.6107 46.2504 41.6107ZM47.6121 40.2967L48.3168 39.6756L44.9723 34.0138L44.3512 34.8022L47.6121 40.2967ZM46.2504 40.667C45.5974 40.667 45.1156 40.3883 44.8051 39.8309C44.4945 39.2655 44.3392 38.3935 44.3392 37.215C44.3392 36.4585 44.4069 35.8294 44.5423 35.3277C44.6777 34.8181 44.8887 34.4359 45.1754 34.181C45.4541 33.9182 45.8124 33.7869 46.2504 33.7869C46.6804 33.7869 47.0308 33.9103 47.3015 34.1571C47.5723 34.404 47.7753 34.7822 47.9107 35.2919C48.0381 35.7936 48.1018 36.4346 48.1018 37.215C48.1018 38.3219 47.9625 39.1739 47.6837 39.7712C47.3971 40.3684 46.9193 40.667 46.2504 40.667ZM40.1393 43.1635C40.0517 42.8131 39.9681 42.4468 39.8885 42.0646C39.8089 41.6903 39.7332 41.32 39.6616 40.9537C39.5899 40.5874 39.5341 40.2529 39.4943 39.9503H38.2162L38.1207 40.0937C38.1764 40.3246 38.2481 40.5715 38.3357 40.8343C38.4233 41.0891 38.5188 41.3479 38.6224 41.6107C38.7179 41.8814 38.8214 42.1482 38.9329 42.411C39.0364 42.6737 39.1439 42.9246 39.2554 43.1635H40.1393ZM38.8015 36.5939C39.0086 36.5939 39.1838 36.5302 39.3271 36.4028C39.4704 36.2753 39.5421 36.0683 39.5421 35.7816C39.5421 35.479 39.4704 35.268 39.3271 35.1486C39.1838 35.0291 39.0086 34.9694 38.8015 34.9694C38.5945 34.9694 38.4193 35.0291 38.276 35.1486C38.1326 35.268 38.061 35.479 38.061 35.7816C38.061 36.0683 38.1326 36.2753 38.276 36.4028C38.4193 36.5302 38.5945 36.5939 38.8015 36.5939ZM170.623 60.3579V51.0888H169.739L169.608 51.9608H169.56C169.433 51.7538 169.281 51.5786 169.106 51.4352C168.931 51.2839 168.724 51.1685 168.485 51.0888C168.246 51.0092 167.968 50.9694 167.649 50.9694C167.259 50.9694 166.904 51.0411 166.586 51.1844C166.267 51.3198 165.997 51.5268 165.774 51.8055C165.543 52.0842 165.368 52.4306 165.248 52.8447C165.129 53.2588 165.069 53.7366 165.069 54.2781C165.069 55.0027 165.176 55.6159 165.391 56.1176C165.599 56.6113 165.897 56.9856 166.287 57.2404C166.67 57.4872 167.123 57.6107 167.649 57.6107C167.96 57.6107 168.238 57.5669 168.485 57.4793C168.724 57.3917 168.931 57.2762 169.106 57.1329C169.281 56.9895 169.433 56.8343 169.56 56.667H169.632C169.608 56.8183 169.592 56.9776 169.584 57.1448C169.568 57.3041 169.56 57.4633 169.56 57.6226V60.3579H170.623ZM167.876 56.7387C167.279 56.7387 166.845 56.5356 166.574 56.1295C166.303 55.7154 166.168 55.0903 166.168 54.2542C166.168 53.434 166.303 52.8288 166.574 52.4386C166.837 52.0404 167.275 51.8413 167.888 51.8413C168.469 51.8413 168.895 52.0325 169.166 52.4147C169.429 52.789 169.56 53.3305 169.56 54.0392V54.2781C169.56 55.0346 169.441 55.6358 169.202 56.0817C168.955 56.5197 168.513 56.7387 167.876 56.7387ZM163.676 57.4912V56.7745L161.729 56.5954V51.9847L163.485 51.8294V51.0888H160.869L160.726 52.2594H160.678C160.455 51.8374 160.212 51.5188 159.949 51.3038C159.679 51.0809 159.324 50.9694 158.886 50.9694C158.616 50.9694 158.377 50.9933 158.17 51.0411C157.955 51.0888 157.759 51.1525 157.584 51.2322L157.871 52.1758C157.998 52.1041 158.15 52.0444 158.325 51.9966C158.5 51.9409 158.687 51.913 158.886 51.913C159.229 51.913 159.531 52.0205 159.794 52.2355C160.057 52.4505 160.264 52.7372 160.415 53.0955C160.566 53.4539 160.642 53.8481 160.642 54.2781V56.5954L158.779 56.7745V57.4912H163.676ZM156.299 57.4912V56.7745L154.017 56.5954V51.9847L156.108 51.8294V51.0888H152.942V56.5954L150.804 56.7745V57.4912H156.299ZM153.587 49.9302C153.795 49.9302 153.974 49.8665 154.125 49.7391C154.268 49.6117 154.34 49.4245 154.34 49.1777C154.34 48.9149 154.268 48.7238 154.125 48.6043C153.974 48.4769 153.795 48.4132 153.587 48.4132C153.38 48.4132 153.205 48.4769 153.062 48.6043C152.911 48.7238 152.835 48.9149 152.835 49.1777C152.835 49.4245 152.911 49.6117 153.062 49.7391C153.205 49.8665 153.38 49.9302 153.587 49.9302ZM149.137 57.4912V51.0888H148.277L148.121 52.0325H148.062C147.934 51.7856 147.771 51.5865 147.572 51.4352C147.365 51.276 147.126 51.1605 146.855 51.0888C146.585 51.0092 146.29 50.9694 145.971 50.9694C145.326 50.9694 144.809 51.1525 144.419 51.5188C144.02 51.8772 143.821 52.4426 143.821 53.215V57.4912H144.896V53.4061C144.896 52.8646 145.008 52.4704 145.231 52.2236C145.446 51.9688 145.796 51.8413 146.282 51.8413C146.935 51.8413 147.397 52.0484 147.668 52.4625C147.93 52.8766 148.062 53.4579 148.062 54.2064V57.4912H149.137ZM138.128 57.6107C138.582 57.6107 138.988 57.5509 139.347 57.4315C139.705 57.312 139.992 57.101 140.207 56.7984C140.414 56.4958 140.517 56.0778 140.517 55.5442V51.9847H142.261V51.2441L140.517 51.053L140.302 49.3807H139.442V51.0888H136.946V51.9847H139.442V55.3412C139.442 55.6597 139.398 55.9225 139.311 56.1295C139.215 56.3366 139.064 56.4918 138.857 56.5954C138.65 56.6909 138.383 56.7387 138.057 56.7387C137.85 56.7387 137.627 56.7188 137.388 56.679C137.149 56.6392 136.942 56.5993 136.767 56.5595V57.4195C136.958 57.4673 137.169 57.5111 137.4 57.5509C137.631 57.5908 137.874 57.6107 138.128 57.6107ZM132.889 57.4912V51.9847H134.98V51.2441L132.889 51.0888V50.3602C132.889 49.8506 132.794 49.4524 132.603 49.1657C132.404 48.8711 132.129 48.664 131.778 48.5446C131.428 48.4172 131.022 48.3535 130.56 48.3535C130.21 48.3535 129.903 48.3774 129.64 48.4252C129.378 48.4729 129.151 48.5287 128.959 48.5924L129.198 49.4166C129.358 49.3688 129.557 49.329 129.796 49.2971C130.035 49.2573 130.269 49.2374 130.5 49.2374C130.914 49.2374 131.237 49.325 131.468 49.5002C131.699 49.6754 131.814 50.0098 131.814 50.5035V51.0888H129.401V51.9847H131.814V57.4912H132.889ZM124.461 59.3785C125.066 58.6777 125.512 57.8854 125.799 57.0015C126.077 56.1096 126.217 55.1819 126.217 54.2184C126.217 53.2468 126.077 52.3112 125.799 51.4113C125.512 50.5035 125.066 49.6873 124.461 48.9627H123.47C124.027 49.7112 124.449 50.5354 124.736 51.4352C125.014 52.3351 125.154 53.2588 125.154 54.2064C125.154 55.1301 125.014 56.0379 124.736 56.9298C124.449 57.8137 124.031 58.6299 123.482 59.3785H124.461ZM119.867 51.7577C119.795 51.479 119.704 51.1764 119.592 50.8499C119.481 50.5234 119.361 50.197 119.234 49.8705C119.098 49.544 118.967 49.2414 118.84 48.9627H118.063C118.135 49.2653 118.211 49.5918 118.29 49.9421C118.37 50.2846 118.442 50.627 118.505 50.9694C118.569 51.3038 118.621 51.6104 118.66 51.8891H119.795L119.867 51.7577ZM117.657 51.7577C117.585 51.479 117.494 51.1764 117.382 50.8499C117.271 50.5234 117.151 50.197 117.024 49.8705C116.889 49.544 116.757 49.2414 116.63 48.9627H115.853C115.925 49.2653 116.001 49.5918 116.08 49.9421C116.16 50.2846 116.232 50.627 116.295 50.9694C116.359 51.3038 116.411 51.6104 116.451 51.8891H117.585L117.657 51.7577ZM113.147 57.4912V48.9627H108.13V49.9182H112.072V52.558H108.357V53.5136H112.072V56.5356H108.13V57.4912H113.147ZM106.164 57.4912V51.0888H105.304L105.148 52.0325H105.089C104.961 51.7856 104.798 51.5865 104.599 51.4352C104.392 51.276 104.153 51.1605 103.882 51.0888C103.611 51.0092 103.317 50.9694 102.998 50.9694C102.353 50.9694 101.836 51.1525 101.446 51.5188C101.047 51.8772 100.848 52.4426 100.848 53.215V57.4912H101.923V53.4061C101.923 52.8646 102.035 52.4704 102.258 52.2236C102.473 51.9688 102.823 51.8413 103.309 51.8413C103.962 51.8413 104.424 52.0484 104.694 52.4625C104.957 52.8766 105.089 53.4579 105.089 54.2064V57.4912H106.164ZM95.1553 57.6107C95.6092 57.6107 96.0153 57.5509 96.3737 57.4315C96.732 57.312 97.0187 57.101 97.2337 56.7984C97.4407 56.4958 97.5443 56.0778 97.5443 55.5442V51.9847H99.2882V51.2441L97.5443 51.053L97.3292 49.3807H96.4692V51.0888H93.9728V51.9847H96.4692V55.3412C96.4692 55.6597 96.4254 55.9225 96.3378 56.1295C96.2423 56.3366 96.091 56.4918 95.8839 56.5954C95.6769 56.6909 95.4101 56.7387 95.0836 56.7387C94.8766 56.7387 94.6536 56.7188 94.4147 56.679C94.1758 56.6392 93.9688 56.5993 93.7936 56.5595V57.4195C93.9847 57.4673 94.1957 57.5111 94.4267 57.5509C94.6576 57.5908 94.9005 57.6107 95.1553 57.6107ZM88.7695 57.6107C89.4544 57.6107 90.0436 57.4832 90.5374 57.2284C91.0311 56.9736 91.4133 56.6033 91.6841 56.1176C91.9468 55.6239 92.0782 55.0226 92.0782 54.3139C92.0782 53.6132 91.9508 53.0159 91.696 52.5222C91.4412 52.0205 91.0868 51.6383 90.6329 51.3755C90.179 51.1048 89.6495 50.9694 89.0443 50.9694C88.4868 50.9694 88.0091 51.0928 87.6109 51.3397C87.2048 51.5865 86.8942 51.9369 86.6792 52.3908C86.4562 52.8367 86.3448 53.3743 86.3448 54.0033V54.4931H90.9913C90.9753 55.0505 90.8718 55.4925 90.6807 55.8189C90.4816 56.1454 90.2149 56.3804 89.8804 56.5237C89.538 56.6591 89.1438 56.7267 88.6979 56.7267C88.3475 56.7267 88.0011 56.679 87.6587 56.5834C87.3163 56.4879 86.9738 56.3604 86.6314 56.2012V57.1568C86.9977 57.316 87.364 57.4315 87.7303 57.5032C88.0967 57.5748 88.443 57.6107 88.7695 57.6107ZM87.4198 53.6331C87.4357 53.2588 87.5074 52.9403 87.6348 52.6775C87.7622 52.4067 87.9454 52.1997 88.1842 52.0564C88.4152 51.913 88.7019 51.8413 89.0443 51.8413C89.5778 51.8413 90.0118 52.0046 90.3462 52.3311C90.6727 52.6496 90.8798 53.0836 90.9674 53.6331H87.4198ZM84.8922 57.4912V56.7745L82.9452 56.5954V51.9847L84.701 51.8294V51.0888H82.0851L81.9418 52.2594H81.894C81.6711 51.8374 81.4282 51.5188 81.1654 51.3038C80.8947 51.0809 80.5403 50.9694 80.1023 50.9694C79.8316 50.9694 79.5927 50.9933 79.3856 51.0411C79.1706 51.0888 78.9755 51.1525 78.8003 51.2322L79.087 52.1758C79.2144 52.1041 79.3657 52.0444 79.5409 51.9966C79.7161 51.9409 79.9032 51.913 80.1023 51.913C80.4447 51.913 80.7473 52.0205 81.0101 52.2355C81.2729 52.4505 81.4799 52.7372 81.6312 53.0955C81.7825 53.4539 81.8582 53.8481 81.8582 54.2781V56.5954L79.9948 56.7745V57.4912H84.8922ZM68.37 57.6107C68.9991 57.6107 69.5087 57.4554 69.8989 57.1448C70.2811 56.8343 70.4723 56.3644 70.4723 55.7353C70.4723 55.2735 70.3608 54.8912 70.1378 54.5886C69.9148 54.2781 69.5883 54.0471 69.1583 53.8958C68.7204 53.7366 68.1908 53.649 67.5697 53.6331L66.196 53.5972V53.3344C66.196 52.7611 66.3394 52.3709 66.6261 52.1639C66.9127 51.9489 67.2989 51.8413 67.7847 51.8413C68.1271 51.8413 68.4536 51.8851 68.7642 51.9727C69.0747 52.0603 69.3694 52.1838 69.6481 52.343L70.0184 51.5308C69.7158 51.3795 69.3813 51.2481 69.015 51.1366C68.6407 51.0251 68.2107 50.9694 67.725 50.9694C66.9207 50.9694 66.3035 51.1525 65.8735 51.5188C65.4356 51.8772 65.2166 52.4386 65.2166 53.203V57.4912H66.0766L66.196 56.6073H66.2438C66.419 56.8303 66.6141 57.0174 66.8291 57.1687C67.0362 57.312 67.2671 57.4195 67.5219 57.4912C67.7767 57.5708 68.0594 57.6107 68.37 57.6107ZM68.1908 56.7387C67.8325 56.7387 67.502 56.675 67.1994 56.5476C66.8968 56.4122 66.6539 56.2131 66.4708 55.9503C66.2876 55.6796 66.196 55.3412 66.196 54.935V54.3617L67.3427 54.3975C67.8524 54.4135 68.2625 54.4772 68.573 54.5886C68.8836 54.6922 69.1106 54.8395 69.2539 55.0306C69.3893 55.2137 69.457 55.4367 69.457 55.6995C69.457 56.0658 69.3415 56.3326 69.1106 56.4998C68.8796 56.6591 68.573 56.7387 68.1908 56.7387ZM56.0285 60.3579V51.0888H55.1445L55.0131 51.9608H54.9654C54.838 51.7538 54.6867 51.5786 54.5115 51.4352C54.3363 51.2839 54.1292 51.1685 53.8903 51.0888C53.6514 51.0092 53.3727 50.9694 53.0542 50.9694C52.664 50.9694 52.3097 51.0411 51.9911 51.1844C51.6726 51.3198 51.4019 51.5268 51.1789 51.8055C50.948 52.0842 50.7728 52.4306 50.6533 52.8447C50.5339 53.2588 50.4741 53.7366 50.4741 54.2781C50.4741 55.0027 50.5817 55.6159 50.7967 56.1176C51.0037 56.6113 51.3023 56.9856 51.6925 57.2404C52.0747 57.4872 52.5286 57.6107 53.0542 57.6107C53.3648 57.6107 53.6435 57.5669 53.8903 57.4793C54.1292 57.3917 54.3363 57.2762 54.5115 57.1329C54.6867 56.9895 54.838 56.8343 54.9654 56.667H55.037C55.0131 56.8183 54.9972 56.9776 54.9893 57.1448C54.9733 57.3041 54.9654 57.4633 54.9654 57.6226V60.3579H56.0285ZM53.2812 56.7387C52.6839 56.7387 52.2499 56.5356 51.9792 56.1295C51.7084 55.7154 51.5731 55.0903 51.5731 54.2542C51.5731 53.434 51.7084 52.8288 51.9792 52.4386C52.242 52.0404 52.6799 51.8413 53.2931 51.8413C53.8744 51.8413 54.3004 52.0325 54.5712 52.4147C54.834 52.789 54.9654 53.3305 54.9654 54.0392V54.2781C54.9654 55.0346 54.8459 55.6358 54.607 56.0817C54.3602 56.5197 53.9182 56.7387 53.2812 56.7387ZM46.2265 57.6107C46.6406 57.6107 47.0268 57.543 47.3851 57.4076C47.7435 57.2722 48.058 57.0652 48.3288 56.7865C48.5915 56.5078 48.7986 56.1614 48.9499 55.7473C49.0932 55.3252 49.1649 54.8315 49.1649 54.2661C49.1649 53.5256 49.0415 52.9124 48.7946 52.4266C48.5398 51.9409 48.1934 51.5786 47.7554 51.3397C47.3174 51.0928 46.8197 50.9694 46.2623 50.9694C45.7049 50.9694 45.2032 51.0928 44.7573 51.3397C44.3113 51.5786 43.961 51.9449 43.7061 52.4386C43.4434 52.9243 43.312 53.5455 43.312 54.302C43.312 54.8594 43.3876 55.3451 43.5389 55.7592C43.6823 56.1733 43.8853 56.5197 44.1481 56.7984C44.4029 57.0692 44.7095 57.2722 45.0678 57.4076C45.4182 57.543 45.8044 57.6107 46.2265 57.6107ZM46.2384 56.7387C45.8243 56.7387 45.4819 56.6392 45.2112 56.4401C44.9404 56.241 44.7374 55.9583 44.602 55.592C44.4666 55.2177 44.3989 54.7798 44.3989 54.2781C44.3989 53.7684 44.4666 53.3344 44.602 52.9761C44.7374 52.6098 44.9444 52.3311 45.2231 52.14C45.4939 51.9409 45.8363 51.8413 46.2504 51.8413C46.8715 51.8413 47.3373 52.0603 47.6479 52.4983C47.9505 52.9283 48.1018 53.5216 48.1018 54.2781C48.1018 54.7798 48.0341 55.2177 47.8988 55.592C47.7554 55.9583 47.5484 56.241 47.2776 56.4401C46.9989 56.6392 46.6525 56.7387 46.2384 56.7387ZM39.3271 57.6107C39.7253 57.6107 40.1075 57.5748 40.4738 57.5032C40.8321 57.4315 41.1427 57.3319 41.4055 57.2045V56.2131C41.1268 56.3405 40.8202 56.46 40.4857 56.5715C40.1433 56.675 39.7372 56.7267 39.2674 56.7267C38.7418 56.7267 38.3715 56.6471 38.1565 56.4879C37.9335 56.3206 37.8221 56.0817 37.8221 55.7712C37.8221 55.6039 37.8619 55.4686 37.9415 55.365C38.0132 55.2536 38.1565 55.1421 38.3715 55.0306C38.5865 54.9191 38.9011 54.7758 39.3152 54.6006C39.7292 54.4174 40.0836 54.2462 40.3782 54.087C40.6729 53.9277 40.8998 53.7406 41.0591 53.5256C41.2184 53.3026 41.298 53.0199 41.298 52.6775C41.298 52.2952 41.2024 51.9807 41.0113 51.7338C40.8122 51.479 40.5295 51.2879 40.1632 51.1605C39.789 51.0331 39.347 50.9694 38.8374 50.9694C38.487 50.9694 38.1525 51.0012 37.834 51.0649C37.5155 51.1286 37.185 51.2322 36.8426 51.3755L37.1651 52.2116C37.4836 52.0763 37.7783 51.9847 38.049 51.9369C38.3118 51.8891 38.5746 51.8652 38.8374 51.8652C39.3311 51.8652 39.6934 51.9289 39.9243 52.0564C40.1473 52.1838 40.2588 52.3828 40.2588 52.6536C40.2588 52.8288 40.211 52.9761 40.1155 53.0955C40.0119 53.215 39.8487 53.3305 39.6257 53.4419C39.3948 53.5534 39.0922 53.6888 38.7179 53.8481C38.2959 54.0233 37.9375 54.1865 37.6429 54.3378C37.3483 54.4891 37.1253 54.6723 36.974 54.8873C36.8227 55.0943 36.747 55.381 36.747 55.7473C36.747 56.1534 36.8466 56.4958 37.0457 56.7745C37.2368 57.0453 37.5234 57.2523 37.9057 57.3957C38.2879 57.539 38.7617 57.6107 39.3271 57.6107ZM34.5419 57.4912V56.7745L32.2605 56.5954V51.9847L34.3508 51.8294V51.0888H31.1854V56.5954L29.0473 56.7745V57.4912H34.5419ZM31.8305 49.9302C32.0375 49.9302 32.2167 49.8665 32.368 49.7391C32.5113 49.6117 32.583 49.4245 32.583 49.1777C32.583 48.9149 32.5113 48.7238 32.368 48.6043C32.2167 48.4769 32.0375 48.4132 31.8305 48.4132C31.6234 48.4132 31.4482 48.4769 31.3049 48.6043C31.1536 48.7238 31.0779 48.9149 31.0779 49.1777C31.0779 49.4245 31.1536 49.6117 31.3049 49.7391C31.4482 49.8665 31.6234 49.9302 31.8305 49.9302ZM23.5335 57.6107C23.9874 57.6107 24.3936 57.5509 24.7519 57.4315C25.1102 57.312 25.3969 57.101 25.6119 56.7984C25.819 56.4958 25.9225 56.0778 25.9225 55.5442V51.9847H27.6664V51.2441L25.9225 51.053L25.7075 49.3807H24.8475V51.0888H22.351V51.9847H24.8475V55.3412C24.8475 55.6597 24.8037 55.9225 24.7161 56.1295C24.6205 56.3366 24.4692 56.4918 24.2622 56.5954C24.0551 56.6909 23.7884 56.7387 23.4619 56.7387C23.2548 56.7387 23.0319 56.7188 22.793 56.679C22.5541 56.6392 22.347 56.5993 22.1718 56.5595V57.4195C22.363 57.4673 22.574 57.5111 22.8049 57.5509C23.0358 57.5908 23.2787 57.6107 23.5335 57.6107ZM20.2176 57.4912V56.7745L17.9361 56.5954V51.9847L20.0264 51.8294V51.0888H16.8611V56.5954L14.723 56.7745V57.4912H20.2176ZM17.5061 49.9302C17.7131 49.9302 17.8923 49.8665 18.0436 49.7391C18.187 49.6117 18.2586 49.4245 18.2586 49.1777C18.2586 48.9149 18.187 48.7238 18.0436 48.6043C17.8923 48.4769 17.7131 48.4132 17.5061 48.4132C17.2991 48.4132 17.1239 48.4769 16.9805 48.6043C16.8292 48.7238 16.7536 48.9149 16.7536 49.1777C16.7536 49.4245 16.8292 49.6117 16.9805 49.7391C17.1239 49.8665 17.2991 49.9302 17.5061 49.9302ZM11.1084 57.4912L13.4735 51.0888H12.3745L11.0367 54.8873C10.9491 55.1421 10.8576 55.4088 10.762 55.6876C10.6585 55.9663 10.555 56.2649 10.4514 56.5834H10.4156C10.3121 56.2649 10.2086 55.9663 10.105 55.6876C9.99356 55.4009 9.898 55.1341 9.81837 54.8873L8.51639 51.0888H7.39359L9.78253 57.4912H11.1084ZM2.82342 57.6107C3.50826 57.6107 4.09753 57.4832 4.59125 57.2284C5.08496 56.9736 5.46719 56.6033 5.73794 56.1176C6.00072 55.6239 6.13212 55.0226 6.13212 54.3139C6.13212 53.6132 6.00471 53.0159 5.74988 52.5222C5.49506 52.0205 5.1407 51.6383 4.6868 51.3755C4.2329 51.1048 3.70335 50.9694 3.09815 50.9694C2.54073 50.9694 2.06294 51.0928 1.66478 51.3397C1.25866 51.5865 0.9481 51.9369 0.733095 52.3908C0.510126 52.8367 0.398642 53.3743 0.398642 54.0033V54.4931H5.04515C5.02922 55.0505 4.9257 55.4925 4.73458 55.8189C4.5355 56.1454 4.26874 56.3804 3.93428 56.5237C3.59187 56.6591 3.19769 56.7267 2.75176 56.7267C2.40138 56.7267 2.05498 56.679 1.71256 56.5834C1.37015 56.4879 1.02773 56.3604 0.685316 56.2012V57.1568C1.05162 57.316 1.41793 57.4315 1.78423 57.5032C2.15054 57.5748 2.49693 57.6107 2.82342 57.6107ZM1.47367 53.6331C1.48959 53.2588 1.56126 52.9403 1.68867 52.6775C1.81608 52.4067 1.99924 52.1997 2.23813 52.0564C2.46906 51.913 2.75574 51.8413 3.09815 51.8413C3.63168 51.8413 4.06568 52.0046 4.40013 52.3311C4.72662 52.6496 4.93366 53.0836 5.02126 53.6331H1.47367ZM170.623 73.4912V72.7745L168.342 72.5954V67.9847L170.432 67.8294V67.0888H167.267V72.5954L165.129 72.7745V73.4912H170.623ZM167.912 65.9302C168.119 65.9302 168.298 65.8665 168.449 65.7391C168.593 65.6117 168.664 65.4245 168.664 65.1777C168.664 64.9149 168.593 64.7238 168.449 64.6043C168.298 64.4769 168.119 64.4132 167.912 64.4132C167.705 64.4132 167.53 64.4769 167.386 64.6043C167.235 64.7238 167.159 64.9149 167.159 65.1777C167.159 65.4245 167.235 65.6117 167.386 65.7391C167.53 65.8665 167.705 65.9302 167.912 65.9302ZM163.461 73.4912V67.0888H162.601L162.446 68.0325H162.386C162.259 67.7856 162.095 67.5865 161.896 67.4352C161.689 67.276 161.45 67.1605 161.18 67.0888C160.909 67.0092 160.614 66.9694 160.296 66.9694C159.651 66.9694 159.133 67.1525 158.743 67.5188C158.345 67.8772 158.146 68.4426 158.146 69.215V73.4912H159.221V69.4061C159.221 68.8646 159.332 68.4704 159.555 68.2236C159.77 67.9688 160.121 67.8413 160.606 67.8413C161.259 67.8413 161.721 68.0484 161.992 68.4625C162.255 68.8766 162.386 69.4579 162.386 70.2064V73.4912H163.461ZM152.453 73.6107C152.907 73.6107 153.313 73.5509 153.671 73.4315C154.029 73.312 154.316 73.101 154.531 72.7984C154.738 72.4958 154.842 72.0778 154.842 71.5442V67.9847H156.586V67.2441L154.842 67.053L154.627 65.3807H153.767V67.0888H151.27V67.9847H153.767V71.3412C153.767 71.6597 153.723 71.9225 153.635 72.1295C153.54 72.3366 153.388 72.4918 153.181 72.5954C152.974 72.6909 152.708 72.7387 152.381 72.7387C152.174 72.7387 151.951 72.7188 151.712 72.679C151.473 72.6392 151.266 72.5993 151.091 72.5595V73.4195C151.282 73.4673 151.493 73.5111 151.724 73.5509C151.955 73.5908 152.198 73.6107 152.453 73.6107ZM146.067 73.6107C146.752 73.6107 147.341 73.4832 147.835 73.2284C148.328 72.9736 148.711 72.6033 148.981 72.1176C149.244 71.6239 149.376 71.0226 149.376 70.3139C149.376 69.6132 149.248 69.0159 148.993 68.5222C148.739 68.0205 148.384 67.6383 147.93 67.3755C147.476 67.1048 146.947 66.9694 146.342 66.9694C145.784 66.9694 145.306 67.0928 144.908 67.3397C144.502 67.5865 144.192 67.9369 143.977 68.3908C143.754 68.8367 143.642 69.3743 143.642 70.0033V70.4931H148.289C148.273 71.0505 148.169 71.4925 147.978 71.8189C147.779 72.1454 147.512 72.3804 147.178 72.5237C146.835 72.6591 146.441 72.7267 145.995 72.7267C145.645 72.7267 145.299 72.679 144.956 72.5834C144.614 72.4879 144.271 72.3604 143.929 72.2012V73.1568C144.295 73.316 144.661 73.4315 145.028 73.5032C145.394 73.5748 145.74 73.6107 146.067 73.6107ZM144.717 69.6331C144.733 69.2588 144.805 68.9403 144.932 68.6775C145.06 68.4067 145.243 68.1997 145.482 68.0564C145.713 67.913 145.999 67.8413 146.342 67.8413C146.875 67.8413 147.309 68.0046 147.644 68.3311C147.97 68.6496 148.177 69.0836 148.265 69.6331H144.717ZM139.633 76.4177C140.071 76.4177 140.485 76.3739 140.876 76.2863C141.258 76.2066 141.612 76.0991 141.939 75.9638V75.0082C141.62 75.1913 141.254 75.3267 140.84 75.4143C140.418 75.5099 140.028 75.5577 139.669 75.5577C138.945 75.5577 138.439 75.3864 138.152 75.044C137.866 74.7096 137.722 74.2477 137.722 73.6584V73.4315C137.722 73.3359 137.722 73.2444 137.722 73.1568C137.714 73.0692 137.702 72.9338 137.686 72.7506H137.734C137.957 73.0771 138.22 73.3041 138.523 73.4315C138.817 73.5509 139.176 73.6107 139.598 73.6107C140.442 73.6107 141.099 73.324 141.568 72.7506C142.038 72.1693 142.273 71.3611 142.273 70.3259C142.273 69.2827 142.042 68.4625 141.58 67.8652C141.111 67.268 140.47 66.9694 139.657 66.9694C139.227 66.9694 138.865 67.0411 138.57 67.1844C138.276 67.3198 138.013 67.5507 137.782 67.8772H137.722L137.579 67.0888H136.719V73.6584C136.719 74.2636 136.822 74.7693 137.029 75.1754C137.236 75.5895 137.555 75.9001 137.985 76.1071C138.415 76.3142 138.964 76.4177 139.633 76.4177ZM139.395 72.7387C139.132 72.7387 138.897 72.6989 138.69 72.6192C138.475 72.5317 138.296 72.4003 138.152 72.2251C138.001 72.0419 137.885 71.815 137.806 71.5442C137.726 71.2655 137.686 70.935 137.686 70.5528V70.302C137.686 69.7207 137.758 69.2508 137.901 68.8925C138.037 68.5262 138.236 68.2594 138.499 68.0922C138.761 67.925 139.072 67.8413 139.43 67.8413C140.036 67.8413 140.477 68.0564 140.756 68.4864C141.035 68.9084 141.174 69.5096 141.174 70.29C141.174 71.0863 141.031 71.6955 140.744 72.1176C140.45 72.5317 140 72.7387 139.395 72.7387ZM131.743 73.6107C132.427 73.6107 133.017 73.4832 133.51 73.2284C134.004 72.9736 134.386 72.6033 134.657 72.1176C134.92 71.6239 135.051 71.0226 135.051 70.3139C135.051 69.6132 134.924 69.0159 134.669 68.5222C134.414 68.0205 134.06 67.6383 133.606 67.3755C133.152 67.1048 132.623 66.9694 132.017 66.9694C131.46 66.9694 130.982 67.0928 130.584 67.3397C130.178 67.5865 129.867 67.9369 129.652 68.3908C129.429 68.8367 129.318 69.3743 129.318 70.0033V70.4931H133.964C133.948 71.0505 133.845 71.4925 133.654 71.8189C133.455 72.1454 133.188 72.3804 132.853 72.5237C132.511 72.6591 132.117 72.7267 131.671 72.7267C131.321 72.7267 130.974 72.679 130.632 72.5834C130.289 72.4879 129.947 72.3604 129.604 72.2012V73.1568C129.971 73.316 130.337 73.4315 130.703 73.5032C131.07 73.5748 131.416 73.6107 131.743 73.6107ZM130.393 69.6331C130.409 69.2588 130.48 68.9403 130.608 68.6775C130.735 68.4067 130.918 68.1997 131.157 68.0564C131.388 67.913 131.675 67.8413 132.017 67.8413C132.551 67.8413 132.985 68.0046 133.319 68.3311C133.646 68.6496 133.853 69.0836 133.94 69.6331H130.393ZM127.865 73.4912V72.7745L125.918 72.5954V67.9847L127.674 67.8294V67.0888H125.058L124.915 68.2594H124.867C124.644 67.8374 124.401 67.5188 124.138 67.3038C123.868 67.0809 123.513 66.9694 123.075 66.9694C122.805 66.9694 122.566 66.9933 122.359 67.0411C122.144 67.0888 121.949 67.1525 121.773 67.2322L122.06 68.1758C122.187 68.1041 122.339 68.0444 122.514 67.9966C122.689 67.9409 122.876 67.913 123.075 67.913C123.418 67.913 123.72 68.0205 123.983 68.2355C124.246 68.4505 124.453 68.7372 124.604 69.0955C124.756 69.4539 124.831 69.8481 124.831 70.2781V72.5954L122.968 72.7745V73.4912H127.865ZM117.848 68.5939C118.055 68.5939 118.23 68.5302 118.374 68.4028C118.517 68.2753 118.589 68.0683 118.589 67.7816C118.589 67.479 118.517 67.268 118.374 67.1486C118.23 67.0291 118.055 66.9694 117.848 66.9694C117.641 66.9694 117.47 67.0291 117.335 67.1486C117.191 67.268 117.12 67.479 117.12 67.7816C117.12 68.0683 117.191 68.2753 117.335 68.4028C117.47 68.5302 117.641 68.5939 117.848 68.5939ZM117.86 73.6107C118.067 73.6107 118.242 73.547 118.386 73.4195C118.529 73.2921 118.601 73.0851 118.601 72.7984C118.601 72.4958 118.529 72.2848 118.386 72.1653C118.242 72.0459 118.067 71.9862 117.86 71.9862C117.653 71.9862 117.482 72.0459 117.347 72.1653C117.203 72.2848 117.132 72.4958 117.132 72.7984C117.132 73.0851 117.203 73.2921 117.347 73.4195C117.482 73.547 117.653 73.6107 117.86 73.6107ZM105.543 67.7577C105.471 67.479 105.379 67.1764 105.268 66.8499C105.156 66.5234 105.037 66.197 104.909 65.8705C104.774 65.544 104.643 65.2414 104.515 64.9627H103.739C103.811 65.2653 103.886 65.5918 103.966 65.9421C104.045 66.2846 104.117 66.627 104.181 66.9694C104.245 67.3038 104.296 67.6104 104.336 67.8891H105.471L105.543 67.7577ZM103.333 67.7577C103.261 67.479 103.17 67.1764 103.058 66.8499C102.947 66.5234 102.827 66.197 102.7 65.8705C102.564 65.544 102.433 65.2414 102.306 64.9627H101.529C101.601 65.2653 101.676 65.5918 101.756 65.9421C101.836 66.2846 101.907 66.627 101.971 66.9694C102.035 67.3038 102.087 67.6104 102.126 67.8891H103.261L103.333 67.7577ZM96.9351 64.9627C96.3299 65.6634 95.8879 66.4597 95.6092 67.3516C95.3225 68.2355 95.1792 69.1593 95.1792 70.1228C95.1792 71.0943 95.3225 72.034 95.6092 72.9418C95.8879 73.8416 96.3299 74.6538 96.9351 75.3785H97.9265C97.3691 74.6299 96.951 73.8058 96.6723 72.9059C96.3856 72.0061 96.2423 71.0824 96.2423 70.1347C96.2423 69.211 96.3856 68.3072 96.6723 67.4233C96.951 66.5314 97.3651 65.7112 97.9145 64.9627H96.9351ZM90.2746 75.1635C90.187 74.8131 90.1034 74.4468 90.0237 74.0646C89.9441 73.6903 89.8685 73.32 89.7968 72.9537C89.7251 72.5874 89.6694 72.2529 89.6296 71.9503H88.3515L88.2559 72.0937C88.3117 72.3246 88.3833 72.5715 88.4709 72.8343C88.5585 73.0891 88.6541 73.3479 88.7576 73.6107C88.8532 73.8814 88.9567 74.1482 89.0682 74.411C89.1717 74.6737 89.2792 74.9246 89.3907 75.1635H90.2746ZM88.9368 68.5939C89.1438 68.5939 89.319 68.5302 89.4623 68.4028C89.6057 68.2753 89.6773 68.0683 89.6773 67.7816C89.6773 67.479 89.6057 67.268 89.4623 67.1486C89.319 67.0291 89.1438 66.9694 88.9368 66.9694C88.7297 66.9694 88.5545 67.0291 88.4112 67.1486C88.2679 67.268 88.1962 67.479 88.1962 67.7816C88.1962 68.0683 88.2679 68.2753 88.4112 68.4028C88.5545 68.5302 88.7297 68.5939 88.9368 68.5939ZM168.246 89.6107C168.644 89.6107 169.027 89.5748 169.393 89.5032C169.751 89.4315 170.062 89.3319 170.325 89.2045V88.2131C170.046 88.3405 169.739 88.46 169.405 88.5715C169.062 88.675 168.656 88.7267 168.187 88.7267C167.661 88.7267 167.291 88.6471 167.076 88.4879C166.853 88.3206 166.741 88.0817 166.741 87.7712C166.741 87.6039 166.781 87.4686 166.861 87.365C166.932 87.2536 167.076 87.1421 167.291 87.0306C167.506 86.9191 167.82 86.7758 168.234 86.6006C168.648 86.4174 169.003 86.2462 169.297 86.087C169.592 85.9277 169.819 85.7406 169.978 85.5256C170.138 85.3026 170.217 85.0199 170.217 84.6775C170.217 84.2952 170.122 83.9807 169.93 83.7338C169.731 83.479 169.449 83.2879 169.082 83.1605C168.708 83.0331 168.266 82.9694 167.757 82.9694C167.406 82.9694 167.072 83.0012 166.753 83.0649C166.435 83.1286 166.104 83.2322 165.762 83.3755L166.084 84.2116C166.403 84.0763 166.697 83.9847 166.968 83.9369C167.231 83.8891 167.494 83.8652 167.757 83.8652C168.25 83.8652 168.613 83.9289 168.844 84.0564C169.066 84.1838 169.178 84.3828 169.178 84.6536C169.178 84.8288 169.13 84.9761 169.035 85.0955C168.931 85.215 168.768 85.3305 168.545 85.4419C168.314 85.5534 168.011 85.6888 167.637 85.8481C167.215 86.0233 166.857 86.1865 166.562 86.3378C166.267 86.4891 166.044 86.6723 165.893 86.8873C165.742 87.0943 165.666 87.381 165.666 87.7473C165.666 88.1534 165.766 88.4958 165.965 88.7745C166.156 89.0453 166.443 89.2523 166.825 89.3957C167.207 89.539 167.681 89.6107 168.246 89.6107ZM160.379 89.6107C161 89.6107 161.538 89.4992 161.992 89.2762C162.446 89.0453 162.796 88.6909 163.043 88.2131C163.282 87.7274 163.401 87.1023 163.401 86.3378C163.401 85.5176 163.27 84.8606 163.007 84.3669C162.736 83.8732 162.366 83.5188 161.896 83.3038C161.419 83.0809 160.877 82.9694 160.272 82.9694C159.898 82.9694 159.559 83.0092 159.257 83.0888C158.946 83.1605 158.655 83.268 158.385 83.4113L158.707 84.2833C158.962 84.1479 159.209 84.0524 159.448 83.9966C159.687 83.9329 159.945 83.9011 160.224 83.9011C160.71 83.9011 161.108 83.9926 161.419 84.1758C161.721 84.351 161.944 84.6178 162.087 84.9761C162.231 85.3265 162.302 85.7724 162.302 86.3139C162.302 86.8793 162.227 87.3372 162.076 87.6876C161.924 88.0379 161.697 88.2928 161.395 88.452C161.084 88.6113 160.706 88.6909 160.26 88.6909C159.91 88.6909 159.579 88.6551 159.268 88.5834C158.958 88.5038 158.687 88.4122 158.456 88.3087V89.2523C158.695 89.3638 158.99 89.4514 159.34 89.5151C159.691 89.5788 160.037 89.6107 160.379 89.6107ZM154.316 89.6107C154.945 89.6107 155.455 89.4554 155.845 89.1448C156.227 88.8343 156.418 88.3644 156.418 87.7353C156.418 87.2735 156.307 86.8912 156.084 86.5886C155.861 86.2781 155.534 86.0471 155.104 85.8958C154.666 85.7366 154.137 85.649 153.516 85.6331L152.142 85.5972V85.3344C152.142 84.7611 152.285 84.3709 152.572 84.1639C152.859 83.9489 153.245 83.8413 153.731 83.8413C154.073 83.8413 154.4 83.8851 154.71 83.9727C155.021 84.0603 155.315 84.1838 155.594 84.343L155.964 83.5308C155.662 83.3795 155.327 83.2481 154.961 83.1366C154.587 83.0251 154.157 82.9694 153.671 82.9694C152.867 82.9694 152.25 83.1525 151.82 83.5188C151.382 83.8772 151.163 84.4386 151.163 85.203V89.4912H152.023L152.142 88.6073H152.19C152.365 88.8303 152.56 89.0174 152.775 89.1687C152.982 89.312 153.213 89.4195 153.468 89.4912C153.723 89.5708 154.006 89.6107 154.316 89.6107ZM154.137 88.7387C153.779 88.7387 153.448 88.675 153.146 88.5476C152.843 88.4122 152.6 88.2131 152.417 87.9503C152.234 87.6796 152.142 87.3412 152.142 86.935V86.3617L153.289 86.3975C153.798 86.4135 154.209 86.4772 154.519 86.5886C154.83 86.6922 155.057 86.8395 155.2 87.0306C155.335 87.2137 155.403 87.4367 155.403 87.6995C155.403 88.0658 155.288 88.3326 155.057 88.4998C154.826 88.6591 154.519 88.7387 154.137 88.7387ZM149.137 89.4912V83.0888H148.277L148.121 84.0325H148.062C147.934 83.7856 147.771 83.5865 147.572 83.4352C147.365 83.276 147.126 83.1605 146.855 83.0888C146.585 83.0092 146.29 82.9694 145.971 82.9694C145.326 82.9694 144.809 83.1525 144.419 83.5188C144.02 83.8772 143.821 84.4426 143.821 85.215V89.4912H144.896V85.4061C144.896 84.8646 145.008 84.4704 145.231 84.2236C145.446 83.9688 145.796 83.8413 146.282 83.8413C146.935 83.8413 147.397 84.0484 147.668 84.4625C147.93 84.8766 148.062 85.4579 148.062 86.2064V89.4912H149.137ZM140.051 89.4912V83.9847H142.142V83.2441L140.051 83.0888V82.3602C140.051 81.8506 139.956 81.4524 139.765 81.1657C139.566 80.8711 139.291 80.664 138.941 80.5446C138.59 80.4172 138.184 80.3535 137.722 80.3535C137.372 80.3535 137.065 80.3774 136.803 80.4252C136.54 80.4729 136.313 80.5287 136.122 80.5924L136.361 81.4166C136.52 81.3688 136.719 81.329 136.958 81.2971C137.197 81.2573 137.432 81.2374 137.663 81.2374C138.077 81.2374 138.399 81.325 138.63 81.5002C138.861 81.6754 138.976 82.0098 138.976 82.5035V83.0888H136.564V83.9847H138.976V89.4912H140.051ZM131.623 91.3785C132.228 90.6777 132.674 89.8854 132.961 89.0015C133.24 88.1096 133.379 87.1819 133.379 86.2184C133.379 85.2468 133.24 84.3112 132.961 83.4113C132.674 82.5035 132.228 81.6873 131.623 80.9627H130.632C131.189 81.7112 131.611 82.5354 131.898 83.4352C132.177 84.3351 132.316 85.2588 132.316 86.2064C132.316 87.1301 132.177 88.0379 131.898 88.9298C131.611 89.8137 131.193 90.6299 130.644 91.3785H131.623ZM127.029 83.7577C126.957 83.479 126.866 83.1764 126.754 82.8499C126.643 82.5234 126.523 82.197 126.396 81.8705C126.261 81.544 126.129 81.2414 126.002 80.9627H125.225C125.297 81.2653 125.373 81.5918 125.452 81.9421C125.532 82.2846 125.604 82.627 125.667 82.9694C125.731 83.3038 125.783 83.6104 125.823 83.8891H126.957L127.029 83.7577ZM124.819 83.7577C124.748 83.479 124.656 83.1764 124.545 82.8499C124.433 82.5234 124.314 82.197 124.186 81.8705C124.051 81.544 123.919 81.2414 123.792 80.9627H123.016C123.087 81.2653 123.163 81.5918 123.243 81.9421C123.322 82.2846 123.394 82.627 123.458 82.9694C123.521 83.3038 123.573 83.6104 123.613 83.8891H124.748L124.819 83.7577ZM120.452 89.4912L116.2 80.9627H115.28L119.532 89.4912H120.452ZM115.997 89.5987C116.483 89.5987 116.889 89.4235 117.215 89.0731C117.534 88.7148 117.693 88.2131 117.693 87.5681C117.693 86.9231 117.542 86.4254 117.239 86.075C116.929 85.7246 116.506 85.5494 115.973 85.5494C115.487 85.5494 115.085 85.7246 114.767 86.075C114.44 86.4254 114.277 86.9231 114.277 87.5681C114.277 88.2131 114.432 88.7148 114.743 89.0731C115.053 89.4235 115.471 89.5987 115.997 89.5987ZM115.985 88.9059C115.714 88.9059 115.511 88.7984 115.376 88.5834C115.24 88.3684 115.173 88.03 115.173 87.5681C115.173 87.0983 115.24 86.7638 115.376 86.5648C115.511 86.3577 115.714 86.2542 115.985 86.2542C116.256 86.2542 116.463 86.3577 116.606 86.5648C116.741 86.7638 116.809 87.0983 116.809 87.5681C116.809 88.03 116.741 88.3684 116.606 88.5834C116.463 88.7984 116.256 88.9059 115.985 88.9059ZM119.747 84.9164C120.233 84.9164 120.639 84.7412 120.966 84.3908C121.284 84.0325 121.444 83.5308 121.444 82.8858C121.444 82.2408 121.292 81.7431 120.99 81.3927C120.679 81.0423 120.257 80.8671 119.724 80.8671C119.238 80.8671 118.836 81.0423 118.517 81.3927C118.191 81.7431 118.027 82.2408 118.027 82.8858C118.027 83.5308 118.183 84.0325 118.493 84.3908C118.804 84.7412 119.222 84.9164 119.747 84.9164ZM119.736 84.2236C119.465 84.2236 119.262 84.1161 119.126 83.9011C118.991 83.6861 118.923 83.3476 118.923 82.8858C118.923 82.4159 118.991 82.0815 119.126 81.8824C119.262 81.6754 119.465 81.5718 119.736 81.5718C120.006 81.5718 120.213 81.6754 120.357 81.8824C120.492 82.0815 120.56 82.4159 120.56 82.8858C120.56 83.3476 120.492 83.6861 120.357 83.9011C120.213 84.1161 120.006 84.2236 119.736 84.2236ZM111.009 89.6107C111.399 89.6107 111.757 89.543 112.084 89.4076C112.402 89.2722 112.677 89.0652 112.908 88.7865C113.139 88.5078 113.318 88.1574 113.445 87.7353C113.565 87.3133 113.624 86.8196 113.624 86.2542C113.624 85.5455 113.525 84.9482 113.326 84.4625C113.119 83.9688 112.812 83.5985 112.406 83.3516C112 83.0968 111.494 82.9694 110.889 82.9694C110.595 82.9694 110.336 83.0092 110.113 83.0888C109.882 83.1685 109.687 83.2799 109.527 83.4233C109.36 83.5587 109.229 83.7179 109.133 83.9011H109.062C109.07 83.8214 109.082 83.7299 109.097 83.6263C109.105 83.5149 109.113 83.4034 109.121 83.2919C109.129 83.1724 109.133 83.061 109.133 82.9574V80.4132H108.07V89.4912H108.954L109.074 88.6312H109.121C109.241 88.8223 109.388 88.9935 109.563 89.1448C109.73 89.2882 109.934 89.4036 110.172 89.4912C110.403 89.5708 110.682 89.6107 111.009 89.6107ZM110.806 88.7387C110.24 88.7387 109.822 88.5436 109.551 88.1534C109.273 87.7552 109.133 87.2177 109.133 86.5409V86.302C109.133 85.8321 109.185 85.4141 109.289 85.0478C109.392 84.6735 109.563 84.3789 109.802 84.1639C110.041 83.9489 110.364 83.8413 110.77 83.8413C111.327 83.8413 111.761 84.0484 112.072 84.4625C112.374 84.8766 112.526 85.5096 112.526 86.3617C112.526 87.15 112.386 87.7433 112.108 88.1415C111.821 88.5396 111.387 88.7387 110.806 88.7387ZM101.541 81.0941C101.613 81.3728 101.704 81.6754 101.816 82.0019C101.927 82.3283 102.051 82.6548 102.186 82.9813C102.314 83.3078 102.441 83.6104 102.568 83.8891H103.345C103.273 83.5865 103.197 83.264 103.118 82.9216C103.038 82.5712 102.966 82.2288 102.903 81.8944C102.839 81.5519 102.787 81.2414 102.747 80.9627H101.613L101.541 81.0941ZM103.751 81.0941C103.823 81.3728 103.914 81.6754 104.026 82.0019C104.137 82.3283 104.26 82.6548 104.396 82.9813C104.523 83.3078 104.651 83.6104 104.778 83.8891H105.555C105.483 83.5865 105.407 83.264 105.328 82.9216C105.248 82.5712 105.176 82.2288 105.113 81.8944C105.049 81.5519 104.997 81.2414 104.957 80.9627H103.823L103.751 81.0941ZM97.4368 91.1635C97.3492 90.8131 97.2655 90.4468 97.1859 90.0646C97.1063 89.6903 97.0306 89.32 96.959 88.9537C96.8873 88.5874 96.8316 88.2529 96.7917 87.9503H95.5136L95.4181 88.0937C95.4738 88.3246 95.5455 88.5715 95.6331 88.8343C95.7207 89.0891 95.8162 89.3479 95.9198 89.6107C96.0153 89.8814 96.1188 90.1482 96.2303 90.411C96.3339 90.6737 96.4414 90.9246 96.5528 91.1635H97.4368Z" fill="url(#paint0_radial_2_67)"/>
<defs>
<radialGradient id="paint0_radial_2_67" cx="0" cy="0" r="1" gradientUnits="userSpaceOnUse" gradientTransform="translate(61.1817 54.6809) rotate(90) scale(58.1897 110.397)">
<stop offset="0.535826" stop-color="#B5C5FF"/>
<stop offset="1" stop-color="white" stop-opacity="0"/>
</radialGradient>
</defs>
</svg>
