<svg width="172" height="92" viewBox="0 0 172 92" fill="none" xmlns="http://www.w3.org/2000/svg">
<path d="M0.955579 9.49121V8.77453L3.23702 8.59536V3.98469L1.14669 3.8294V3.08883H4.31205V8.59536L6.45016 8.77453V9.49121H0.955579ZM3.66703 1.93019C3.45999 1.93019 3.28082 1.86649 3.12952 1.73908C2.98618 1.61167 2.91452 1.42453 2.91452 1.17767C2.91452 0.914889 2.98618 0.723773 3.12952 0.604326C3.28082 0.476915 3.45999 0.41321 3.66703 0.41321C3.87408 0.41321 4.04927 0.476915 4.1926 0.604326C4.3439 0.723773 4.41955 0.914889 4.41955 1.17767C4.41955 1.42453 4.3439 1.61167 4.1926 1.73908C4.04927 1.86649 3.87408 1.93019 3.66703 1.93019ZM8.11776 9.49121V3.08883H8.97778L9.13306 4.03247H9.19278C9.32019 3.78561 9.48344 3.58653 9.68252 3.43523C9.88956 3.27597 10.1285 3.1605 10.3992 3.08883C10.6699 3.0092 10.9646 2.96938 11.2831 2.96938C11.9281 2.96938 12.4457 3.15254 12.8359 3.51884C13.2341 3.87718 13.4332 4.44257 13.4332 5.21499V9.49121H12.3581V5.40611C12.3581 4.86462 12.2467 4.47044 12.0237 4.22358C11.8087 3.96876 11.4583 3.84135 10.9725 3.84135C10.3196 3.84135 9.85771 4.04839 9.58696 4.46248C9.32417 4.87656 9.19278 5.45787 9.19278 6.20641V9.49121H8.11776ZM19.1261 9.61066C18.6722 9.61066 18.2661 9.55093 17.9078 9.43149C17.5494 9.31204 17.2628 9.10102 17.0478 8.79842C16.8407 8.49582 16.7372 8.07775 16.7372 7.54422V3.98469H14.9933V3.24411L16.7372 3.053L16.9522 1.38073H17.8122V3.08883H20.3087V3.98469H17.8122V7.34116C17.8122 7.65968 17.856 7.92247 17.9436 8.12951C18.0392 8.33655 18.1905 8.49183 18.3975 8.59536C18.6046 8.69091 18.8713 8.73869 19.1978 8.73869C19.4048 8.73869 19.6278 8.71878 19.8667 8.67897C20.1056 8.63915 20.3126 8.59934 20.4878 8.55952V9.41954C20.2967 9.46732 20.0857 9.51112 19.8548 9.55093C19.6238 9.59075 19.381 9.61066 19.1261 9.61066ZM32.686 9.61066C32.0649 9.61066 31.5274 9.49917 31.0735 9.27621C30.6196 9.04527 30.2692 8.69091 30.0224 8.21312C29.7835 7.72737 29.664 7.10226 29.664 6.3378C29.664 5.51759 29.7954 4.86063 30.0582 4.36692C30.3289 3.8732 30.6992 3.51884 31.169 3.30384C31.6468 3.08087 32.1883 2.96938 32.7935 2.96938C33.1678 2.96938 33.5062 3.0092 33.8088 3.08883C34.1194 3.1605 34.4101 3.268 34.6808 3.41134L34.3583 4.28331C34.1035 4.14793 33.8566 4.05237 33.6177 3.99663C33.3788 3.93293 33.12 3.90107 32.8413 3.90107C32.3556 3.90107 31.9574 3.99265 31.6468 4.1758C31.3442 4.35099 31.1213 4.61776 30.9779 4.9761C30.8346 5.32648 30.7629 5.77242 30.7629 6.31391C30.7629 6.87929 30.8386 7.33718 30.9899 7.68756C31.1412 8.03793 31.3681 8.29276 31.6707 8.45202C31.9813 8.61128 32.3595 8.69091 32.8055 8.69091C33.1559 8.69091 33.4863 8.65508 33.7969 8.58341C34.1075 8.50378 34.3782 8.4122 34.6091 8.30868V9.25232C34.3702 9.3638 34.0756 9.4514 33.7252 9.5151C33.3748 9.57881 33.0284 9.61066 32.686 9.61066ZM36.7665 9.49121V0.41321H37.8415V2.99327C37.8415 3.14457 37.8335 3.33569 37.8176 3.56662C37.8096 3.79755 37.8017 3.98071 37.7937 4.11608H37.8534C37.9888 3.85329 38.156 3.63829 38.3551 3.47106C38.5622 3.30384 38.7931 3.18041 39.0479 3.10078C39.3027 3.01318 39.5735 2.96938 39.8601 2.96938C40.5211 2.96938 41.0546 3.15652 41.4607 3.53079C41.8748 3.89709 42.0819 4.49035 42.0819 5.31055V9.49121H41.0068V5.52556C41.0068 4.94425 40.8834 4.51822 40.6366 4.24747C40.3897 3.97672 40.0393 3.84135 39.5854 3.84135C39.235 3.84135 38.9285 3.93293 38.6657 4.11608C38.4029 4.29923 38.1998 4.566 38.0565 4.91638C37.9132 5.25879 37.8415 5.67686 37.8415 6.17057V9.49121H36.7665ZM46.9984 9.61066C46.3136 9.61066 45.7243 9.48325 45.2306 9.22843C44.7369 8.97361 44.3547 8.60332 44.0839 8.11757C43.8211 7.62385 43.6897 7.02263 43.6897 6.31391C43.6897 5.61315 43.8172 5.01592 44.072 4.5222C44.3268 4.02052 44.6812 3.63829 45.1351 3.37551C45.589 3.10476 46.1185 2.96938 46.7237 2.96938C47.2811 2.96938 47.7589 3.09281 48.1571 3.33967C48.5632 3.58653 48.8738 3.93691 49.0888 4.39081C49.3117 4.83674 49.4232 5.37426 49.4232 6.00335V6.49308H44.7767C44.7926 7.0505 44.8962 7.49246 45.0873 7.81895C45.2864 8.14544 45.5531 8.38035 45.8876 8.52369C46.23 8.65906 46.6242 8.72675 47.0701 8.72675C47.4205 8.72675 47.7669 8.67897 48.1093 8.58341C48.4517 8.48785 48.7941 8.36044 49.1365 8.20118V9.15676C48.7702 9.31602 48.4039 9.43149 48.0376 9.50316C47.6713 9.57482 47.3249 9.61066 46.9984 9.61066ZM48.3482 5.63306C48.3323 5.25879 48.2606 4.94027 48.1332 4.67748C48.0058 4.40673 47.8226 4.19969 47.5837 4.05636C47.3528 3.91302 47.0661 3.84135 46.7237 3.84135C46.1902 3.84135 45.7562 4.00459 45.4217 4.33108C45.0952 4.64961 44.8882 5.0836 44.8006 5.63306H48.3482ZM54.1726 9.61066C53.5514 9.61066 53.0139 9.49917 52.56 9.27621C52.1061 9.04527 51.7557 8.69091 51.5089 8.21312C51.27 7.72737 51.1505 7.10226 51.1505 6.3378C51.1505 5.51759 51.2819 4.86063 51.5447 4.36692C51.8155 3.8732 52.1857 3.51884 52.6556 3.30384C53.1334 3.08087 53.6749 2.96938 54.2801 2.96938C54.6543 2.96938 54.9928 3.0092 55.2954 3.08883C55.6059 3.1605 55.8966 3.268 56.1673 3.41134L55.8448 4.28331C55.59 4.14793 55.3431 4.05237 55.1042 3.99663C54.8654 3.93293 54.6065 3.90107 54.3278 3.90107C53.8421 3.90107 53.4439 3.99265 53.1334 4.1758C52.8308 4.35099 52.6078 4.61776 52.4645 4.9761C52.3211 5.32648 52.2495 5.77242 52.2495 6.31391C52.2495 6.87929 52.3251 7.33718 52.4764 7.68756C52.6277 8.03793 52.8547 8.29276 53.1573 8.45202C53.4678 8.61128 53.8461 8.69091 54.292 8.69091C54.6424 8.69091 54.9729 8.65508 55.2834 8.58341C55.594 8.50378 55.8647 8.4122 56.0957 8.30868V9.25232C55.8568 9.3638 55.5621 9.4514 55.2117 9.5151C54.8614 9.57881 54.515 9.61066 54.1726 9.61066ZM58.5516 9.49121V0.41321H59.6266V4.78498C59.6266 4.95221 59.6227 5.13934 59.6147 5.34639C59.6067 5.55343 59.5948 5.76445 59.5789 5.97946C59.5709 6.19446 59.5589 6.39752 59.543 6.58864H59.5669C59.7182 6.38956 59.8615 6.21039 59.9969 6.05113C60.1403 5.8839 60.2876 5.71269 60.4389 5.5375L62.6487 3.08883H63.9387L61.3945 5.84807L64.1059 9.49121H62.8637L60.6778 6.48114L59.6266 7.49644V9.49121H58.5516ZM65.5943 9.49121V0.962668H68.0311C69.0503 0.962668 69.7949 1.18165 70.2647 1.61963C70.7346 2.04964 70.9695 2.6628 70.9695 3.45912C70.9695 3.92894 70.8699 4.37488 70.6709 4.79693C70.4797 5.21898 70.1572 5.56139 69.7033 5.82418C69.2574 6.079 68.6482 6.20641 67.8758 6.20641H66.6694V9.49121H65.5943ZM67.7563 5.27472C68.2262 5.27472 68.6164 5.21499 68.9269 5.09555C69.2454 4.9761 69.4804 4.78897 69.6317 4.53414C69.7909 4.27136 69.8706 3.93293 69.8706 3.51884C69.8706 2.92957 69.7113 2.5115 69.3928 2.26464C69.0822 2.01779 68.5964 1.89436 67.9355 1.89436H66.6694V5.27472H67.7563ZM72.3623 9.49121V8.77453L74.3093 8.59536V3.98469L72.5535 3.8294V3.08883H75.1694L75.3127 4.25942H75.3605C75.5834 3.83737 75.8263 3.51884 76.0891 3.30384C76.3598 3.08087 76.7142 2.96938 77.1522 2.96938C77.4229 2.96938 77.6618 2.99327 77.8689 3.04105C78.0839 3.08883 78.279 3.15254 78.4542 3.23217L78.1675 4.1758C78.0401 4.10413 77.8888 4.04441 77.7136 3.99663C77.5384 3.94089 77.3513 3.91302 77.1522 3.91302C76.8098 3.91302 76.5072 4.02052 76.2444 4.23553C75.9816 4.45053 75.7746 4.73721 75.6233 5.09555C75.472 5.45389 75.3963 5.84807 75.3963 6.27808V8.59536L77.2597 8.77453V9.49121H72.3623ZM79.7395 9.49121V8.77453L82.021 8.59536V3.98469L79.9306 3.8294V3.08883H83.096V8.59536L85.2341 8.77453V9.49121H79.7395ZM82.451 1.93019C82.2439 1.93019 82.0648 1.86649 81.9135 1.73908C81.7701 1.61167 81.6985 1.42453 81.6985 1.17767C81.6985 0.914889 81.7701 0.723773 81.9135 0.604326C82.0648 0.476915 82.2439 0.41321 82.451 0.41321C82.658 0.41321 82.8332 0.476915 82.9765 0.604326C83.1278 0.723773 83.2035 0.914889 83.2035 1.17767C83.2035 1.42453 83.1278 1.61167 82.9765 1.73908C82.8332 1.86649 82.658 1.93019 82.451 1.93019ZM86.5434 9.49121V3.08883H87.2839L87.4392 3.79357H87.4989C87.6025 3.57857 87.7139 3.41134 87.8334 3.29189C87.9528 3.17244 88.0802 3.08883 88.2156 3.04105C88.359 2.99327 88.5142 2.96938 88.6815 2.96938C89.008 2.96938 89.2588 3.04902 89.434 3.20828C89.6171 3.35958 89.7565 3.58653 89.8521 3.88913H89.8879C90.0233 3.59449 90.1905 3.36754 90.3896 3.20828C90.5966 3.04902 90.8674 2.96938 91.2018 2.96938C91.5283 2.96938 91.7871 3.053 91.9782 3.22022C92.1773 3.38745 92.3166 3.64227 92.3963 3.98469C92.4839 4.3271 92.5277 4.76906 92.5277 5.31055V9.49121H91.5721V5.48972C91.5721 5.15527 91.5562 4.87258 91.5243 4.64165C91.5004 4.40275 91.4447 4.2196 91.3571 4.09219C91.2695 3.96478 91.1262 3.90107 90.9271 3.90107C90.736 3.90107 90.5727 3.99265 90.4373 4.1758C90.302 4.35099 90.1984 4.61378 90.1268 4.96416C90.0551 5.31453 90.0193 5.75649 90.0193 6.29002V9.49121H89.0637V5.48972C89.0637 5.14731 89.0438 4.86063 89.004 4.6297C88.9642 4.39081 88.8925 4.21164 88.789 4.09219C88.6934 3.96478 88.5461 3.90107 88.347 3.90107C88.14 3.90107 87.9727 4.00061 87.8453 4.19969C87.7179 4.39081 87.6263 4.66554 87.5706 5.02388C87.5228 5.37426 87.4989 5.79631 87.4989 6.29002V9.49121H86.5434ZM97.1337 9.61066C96.4488 9.61066 95.8596 9.48325 95.3659 9.22843C94.8721 8.97361 94.4899 8.60332 94.2192 8.11757C93.9564 7.62385 93.825 7.02263 93.825 6.31391C93.825 5.61315 93.9524 5.01592 94.2072 4.5222C94.462 4.02052 94.8164 3.63829 95.2703 3.37551C95.7242 3.10476 96.2537 2.96938 96.8589 2.96938C97.4164 2.96938 97.8942 3.09281 98.2923 3.33967C98.6984 3.58653 99.009 3.93691 99.224 4.39081C99.447 4.83674 99.5585 5.37426 99.5585 6.00335V6.49308H94.912C94.9279 7.0505 95.0314 7.49246 95.2225 7.81895C95.4216 8.14544 95.6884 8.38035 96.0228 8.52369C96.3652 8.65906 96.7594 8.72675 97.2053 8.72675C97.5557 8.72675 97.9021 8.67897 98.2445 8.58341C98.587 8.48785 98.9294 8.36044 99.2718 8.20118V9.15676C98.9055 9.31602 98.5392 9.43149 98.1729 9.50316C97.8066 9.57482 97.4602 9.61066 97.1337 9.61066ZM98.4834 5.63306C98.4675 5.25879 98.3958 4.94027 98.2684 4.67748C98.141 4.40673 97.9579 4.19969 97.719 4.05636C97.488 3.91302 97.2014 3.84135 96.8589 3.84135C96.3254 3.84135 95.8914 4.00459 95.557 4.33108C95.2305 4.64961 95.0234 5.0836 94.9358 5.63306H98.4834ZM104.415 11.3785C103.81 10.6777 103.364 9.88539 103.077 9.00148C102.799 8.1096 102.659 7.18189 102.659 6.21835C102.659 5.24685 102.799 4.31118 103.077 3.41134C103.364 2.50354 103.81 1.68732 104.415 0.962668H105.407C104.849 1.71121 104.427 2.53539 104.141 3.43523C103.862 4.33507 103.722 5.25879 103.722 6.20641C103.722 7.13013 103.862 8.03793 104.141 8.92981C104.427 9.81372 104.845 10.6299 105.395 11.3785H104.415ZM108.388 9.49121V8.77453L110.67 8.59536V3.98469L108.579 3.8294V3.08883H111.745V8.59536L113.883 8.77453V9.49121H108.388ZM111.1 1.93019C110.893 1.93019 110.713 1.86649 110.562 1.73908C110.419 1.61167 110.347 1.42453 110.347 1.17767C110.347 0.914889 110.419 0.723773 110.562 0.604326C110.713 0.476915 110.893 0.41321 111.1 0.41321C111.307 0.41321 111.482 0.476915 111.625 0.604326C111.777 0.723773 111.852 0.914889 111.852 1.17767C111.852 1.42453 111.777 1.61167 111.625 1.73908C111.482 1.86649 111.307 1.93019 111.1 1.93019ZM115.55 9.49121V3.08883H116.41L116.566 4.03247H116.625C116.753 3.78561 116.916 3.58653 117.115 3.43523C117.322 3.27597 117.561 3.1605 117.832 3.08883C118.103 3.0092 118.397 2.96938 118.716 2.96938C119.361 2.96938 119.878 3.15254 120.269 3.51884C120.667 3.87718 120.866 4.44257 120.866 5.21499V9.49121H119.791V5.40611C119.791 4.86462 119.679 4.47044 119.456 4.22358C119.241 3.96876 118.891 3.84135 118.405 3.84135C117.752 3.84135 117.29 4.04839 117.02 4.46248C116.757 4.87656 116.625 5.45787 116.625 6.20641V9.49121H115.55ZM126.559 9.61066C126.105 9.61066 125.699 9.55093 125.34 9.43149C124.982 9.31204 124.695 9.10102 124.48 8.79842C124.273 8.49582 124.17 8.07775 124.17 7.54422V3.98469H122.426V3.24411L124.17 3.053L124.385 1.38073H125.245V3.08883H127.741V3.98469H125.245V7.34116C125.245 7.65968 125.289 7.92247 125.376 8.12951C125.472 8.33655 125.623 8.49183 125.83 8.59536C126.037 8.69091 126.304 8.73869 126.63 8.73869C126.837 8.73869 127.06 8.71878 127.299 8.67897C127.538 8.63915 127.745 8.59934 127.92 8.55952V9.41954C127.729 9.46732 127.518 9.51112 127.287 9.55093C127.056 9.59075 126.814 9.61066 126.559 9.61066ZM137.037 9.49121V3.08883H137.897L138.052 4.03247H138.112C138.239 3.78561 138.403 3.58653 138.602 3.43523C138.809 3.27597 139.048 3.1605 139.318 3.08883C139.589 3.0092 139.884 2.96938 140.202 2.96938C140.847 2.96938 141.365 3.15254 141.755 3.51884C142.153 3.87718 142.352 4.44257 142.352 5.21499V9.49121H141.277V5.40611C141.277 4.86462 141.166 4.47044 140.943 4.22358C140.728 3.96876 140.377 3.84135 139.892 3.84135C139.239 3.84135 138.777 4.04839 138.506 4.46248C138.243 4.87656 138.112 5.45787 138.112 6.20641V9.49121H137.037ZM146.266 0.962668C146.871 1.66343 147.313 2.45974 147.591 3.35162C147.878 4.23553 148.021 5.15925 148.021 6.12279C148.021 7.0943 147.878 8.03395 147.591 8.94175C147.313 9.84159 146.871 10.6538 146.266 11.3785H145.274C145.832 10.6299 146.25 9.80576 146.528 8.90592C146.815 8.00608 146.958 7.08236 146.958 6.13474C146.958 5.21101 146.815 4.30719 146.528 3.42328C146.25 2.53141 145.836 1.71121 145.286 0.962668H146.266ZM152.926 11.1635C153.014 10.8131 153.097 10.4468 153.177 10.0646C153.257 9.69029 153.332 9.32 153.404 8.9537C153.476 8.58739 153.531 8.25294 153.571 7.95034H154.849L154.945 8.09368C154.889 8.32461 154.817 8.57147 154.73 8.83425C154.642 9.08907 154.547 9.34787 154.443 9.61066C154.347 9.88141 154.244 10.1482 154.132 10.411C154.029 10.6737 153.921 10.9246 153.81 11.1635H152.926ZM154.264 4.59387C154.057 4.59387 153.882 4.53016 153.738 4.40275C153.595 4.27534 153.523 4.0683 153.523 3.78163C153.523 3.47903 153.595 3.268 153.738 3.14856C153.882 3.02911 154.057 2.96938 154.264 2.96938C154.471 2.96938 154.646 3.02911 154.789 3.14856C154.933 3.268 155.004 3.47903 155.004 3.78163C155.004 4.0683 154.933 4.27534 154.789 4.40275C154.646 4.53016 154.471 4.59387 154.264 4.59387ZM0.955579 25.4912V24.7745L3.23702 24.5954V19.9847L1.14669 19.8294V19.0888H4.31205V24.5954L6.45016 24.7745V25.4912H0.955579ZM3.66703 17.9302C3.45999 17.9302 3.28082 17.8665 3.12952 17.7391C2.98618 17.6117 2.91452 17.4245 2.91452 17.1777C2.91452 16.9149 2.98618 16.7238 3.12952 16.6043C3.28082 16.4769 3.45999 16.4132 3.66703 16.4132C3.87408 16.4132 4.04927 16.4769 4.1926 16.6043C4.3439 16.7238 4.41955 16.9149 4.41955 17.1777C4.41955 17.4245 4.3439 17.6117 4.1926 17.7391C4.04927 17.8665 3.87408 17.9302 3.66703 17.9302ZM8.11776 25.4912V19.0888H8.97778L9.13306 20.0325H9.19278C9.32019 19.7856 9.48344 19.5865 9.68252 19.4352C9.88956 19.276 10.1285 19.1605 10.3992 19.0888C10.6699 19.0092 10.9646 18.9694 11.2831 18.9694C11.9281 18.9694 12.4457 19.1525 12.8359 19.5188C13.2341 19.8772 13.4332 20.4426 13.4332 21.215V25.4912H12.3581V21.4061C12.3581 20.8646 12.2467 20.4704 12.0237 20.2236C11.8087 19.9688 11.4583 19.8413 10.9725 19.8413C10.3196 19.8413 9.85771 20.0484 9.58696 20.4625C9.32417 20.8766 9.19278 21.4579 9.19278 22.2064V25.4912H8.11776ZM19.1261 25.6107C18.6722 25.6107 18.2661 25.5509 17.9078 25.4315C17.5494 25.312 17.2628 25.101 17.0478 24.7984C16.8407 24.4958 16.7372 24.0778 16.7372 23.5442V19.9847H14.9933V19.2441L16.7372 19.053L16.9522 17.3807H17.8122V19.0888H20.3087V19.9847H17.8122V23.3412C17.8122 23.6597 17.856 23.9225 17.9436 24.1295C18.0392 24.3366 18.1905 24.4918 18.3975 24.5954C18.6046 24.6909 18.8713 24.7387 19.1978 24.7387C19.4048 24.7387 19.6278 24.7188 19.8667 24.679C20.1056 24.6392 20.3126 24.5993 20.4878 24.5595V25.4195C20.2967 25.4673 20.0857 25.5111 19.8548 25.5509C19.6238 25.5908 19.381 25.6107 19.1261 25.6107ZM29.2459 25.4912V19.0888H29.9865L30.1418 19.7936H30.2015C30.305 19.5786 30.4165 19.4113 30.536 19.2919C30.6554 19.1724 30.7828 19.0888 30.9182 19.0411C31.0615 18.9933 31.2168 18.9694 31.3841 18.9694C31.7105 18.9694 31.9614 19.049 32.1366 19.2083C32.3197 19.3596 32.4591 19.5865 32.5546 19.8891H32.5905C32.7258 19.5945 32.8931 19.3675 33.0921 19.2083C33.2992 19.049 33.5699 18.9694 33.9044 18.9694C34.2309 18.9694 34.4897 19.053 34.6808 19.2202C34.8799 19.3874 35.0192 19.6423 35.0989 19.9847C35.1865 20.3271 35.2303 20.7691 35.2303 21.3106V25.4912H34.2747V21.4897C34.2747 21.1553 34.2588 20.8726 34.2269 20.6416C34.203 20.4028 34.1473 20.2196 34.0597 20.0922C33.9721 19.9648 33.8287 19.9011 33.6297 19.9011C33.4385 19.9011 33.2753 19.9926 33.1399 20.1758C33.0046 20.351 32.901 20.6138 32.8294 20.9642C32.7577 21.3145 32.7219 21.7565 32.7219 22.29V25.4912H31.7663V21.4897C31.7663 21.1473 31.7464 20.8606 31.7066 20.6297C31.6667 20.3908 31.5951 20.2116 31.4916 20.0922C31.396 19.9648 31.2487 19.9011 31.0496 19.9011C30.8426 19.9011 30.6753 20.0006 30.5479 20.1997C30.4205 20.3908 30.3289 20.6655 30.2732 21.0239C30.2254 21.3743 30.2015 21.7963 30.2015 22.29V25.4912H29.2459ZM38.7493 25.6107C38.1202 25.6107 37.6106 25.4554 37.2204 25.1448C36.8381 24.8343 36.647 24.3644 36.647 23.7353C36.647 23.2735 36.7585 22.8912 36.9815 22.5886C37.2044 22.2781 37.5309 22.0471 37.9609 21.8958C38.3989 21.7366 38.9285 21.649 39.5496 21.6331L40.9232 21.5972V21.3344C40.9232 20.7611 40.7799 20.3709 40.4932 20.1639C40.2065 19.9489 39.8203 19.8413 39.3346 19.8413C38.9922 19.8413 38.6657 19.8851 38.3551 19.9727C38.0445 20.0603 37.7499 20.1838 37.4712 20.343L37.1009 19.5308C37.4035 19.3795 37.738 19.2481 38.1043 19.1366C38.4785 19.0251 38.9086 18.9694 39.3943 18.9694C40.1986 18.9694 40.8157 19.1525 41.2457 19.5188C41.6837 19.8772 41.9027 20.4386 41.9027 21.203V25.4912H41.0427L40.9232 24.6073H40.8755C40.7003 24.8303 40.5052 25.0174 40.2902 25.1687C40.0831 25.312 39.8522 25.4195 39.5974 25.4912C39.3425 25.5708 39.0599 25.6107 38.7493 25.6107ZM38.9285 24.7387C39.2868 24.7387 39.6173 24.675 39.9199 24.5476C40.2225 24.4122 40.4653 24.2131 40.6485 23.9503C40.8317 23.6796 40.9232 23.3412 40.9232 22.935V22.3617L39.7765 22.3975C39.2669 22.4135 38.8568 22.4772 38.5462 22.5886C38.2357 22.6922 38.0087 22.8395 37.8654 23.0306C37.73 23.2137 37.6623 23.4367 37.6623 23.6995C37.6623 24.0658 37.7778 24.3326 38.0087 24.4998C38.2396 24.6591 38.5462 24.7387 38.9285 24.7387ZM43.9286 25.4912V24.7745L46.2101 24.5954V19.9847L44.1198 19.8294V19.0888H47.2851V24.5954L49.4232 24.7745V25.4912H43.9286ZM46.6401 17.9302C46.4331 17.9302 46.2539 17.8665 46.1026 17.7391C45.9592 17.6117 45.8876 17.4245 45.8876 17.1777C45.8876 16.9149 45.9592 16.7238 46.1026 16.6043C46.2539 16.4769 46.4331 16.4132 46.6401 16.4132C46.8471 16.4132 47.0223 16.4769 47.1657 16.6043C47.317 16.7238 47.3926 16.9149 47.3926 17.1777C47.3926 17.4245 47.317 17.6117 47.1657 17.7391C47.0223 17.8665 46.8471 17.9302 46.6401 17.9302ZM51.0908 25.4912V19.0888H51.9508L52.1061 20.0325H52.1658C52.2933 19.7856 52.4565 19.5865 52.6556 19.4352C52.8626 19.276 53.1015 19.1605 53.3723 19.0888C53.643 19.0092 53.9376 18.9694 54.2562 18.9694C54.9012 18.9694 55.4188 19.1525 55.809 19.5188C56.2071 19.8772 56.4062 20.4426 56.4062 21.215V25.4912H55.3312V21.4061C55.3312 20.8646 55.2197 20.4704 54.9967 20.2236C54.7817 19.9688 54.4314 19.8413 53.9456 19.8413C53.2926 19.8413 52.8308 20.0484 52.56 20.4625C52.2972 20.8766 52.1658 21.4579 52.1658 22.2064V25.4912H51.0908ZM61.4422 27.3785C60.837 26.6777 60.3911 25.8854 60.1044 25.0015C59.8257 24.1096 59.6864 23.1819 59.6864 22.2184C59.6864 21.2468 59.8257 20.3112 60.1044 19.4113C60.3911 18.5035 60.837 17.6873 61.4422 16.9627H62.4337C61.8762 17.7112 61.4542 18.5354 61.1675 19.4352C60.8888 20.3351 60.7494 21.2588 60.7494 22.2064C60.7494 23.1301 60.8888 24.0379 61.1675 24.9298C61.4542 25.8137 61.8722 26.6299 62.4217 27.3785H61.4422ZM74.6438 16.9627C75.249 17.6634 75.6909 18.4597 75.9696 19.3516C76.2563 20.2355 76.3997 21.1593 76.3997 22.1228C76.3997 23.0943 76.2563 24.034 75.9696 24.9418C75.6909 25.8416 75.249 26.6538 74.6438 27.3785H73.6524C74.2098 26.6299 74.6279 25.8058 74.9066 24.9059C75.1932 24.0061 75.3366 23.0824 75.3366 22.1347C75.3366 21.211 75.1932 20.3072 74.9066 19.4233C74.6279 18.5314 74.2138 17.7112 73.6643 16.9627H74.6438ZM98.6029 27.3785C98.1171 27.3705 97.6951 27.2988 97.3367 27.1635C96.9864 27.0281 96.7156 26.8171 96.5245 26.5304C96.3334 26.2517 96.2378 25.9013 96.2378 25.4793V23.7234C96.2378 23.3173 96.1104 23.0306 95.8556 22.8634C95.6087 22.6882 95.2504 22.6006 94.7806 22.6006V21.7286C95.2504 21.7207 95.6087 21.6331 95.8556 21.4658C96.1104 21.2986 96.2378 21.0159 96.2378 20.6178V18.8499C96.2378 18.4279 96.3374 18.0775 96.5364 17.7988C96.7355 17.5201 97.0142 17.313 97.3726 17.1777C97.7309 17.0343 98.141 16.9627 98.6029 16.9627V17.8227C98.3321 17.8307 98.0972 17.8744 97.8981 17.9541C97.6991 18.0337 97.5438 18.1532 97.4323 18.3124C97.3288 18.4717 97.277 18.6827 97.277 18.9455V20.6655C97.277 21.0717 97.1695 21.3981 96.9545 21.645C96.7395 21.8839 96.413 22.0432 95.975 22.1228V22.1945C96.421 22.2741 96.7475 22.4373 96.9545 22.6842C97.1695 22.9231 97.277 23.2456 97.277 23.6517V25.4076C97.277 25.7978 97.3925 26.0765 97.6234 26.2437C97.8543 26.4189 98.1808 26.5105 98.6029 26.5185V27.3785ZM0.955579 41.4912V40.7745L3.23702 40.5954V35.9847L1.14669 35.8294V35.0888H4.31205V40.5954L6.45016 40.7745V41.4912H0.955579ZM3.66703 33.9302C3.45999 33.9302 3.28082 33.8665 3.12952 33.7391C2.98618 33.6117 2.91452 33.4245 2.91452 33.1777C2.91452 32.9149 2.98618 32.7238 3.12952 32.6043C3.28082 32.4769 3.45999 32.4132 3.66703 32.4132C3.87408 32.4132 4.04927 32.4769 4.1926 32.6043C4.3439 32.7238 4.41955 32.9149 4.41955 33.1777C4.41955 33.4245 4.3439 33.6117 4.1926 33.7391C4.04927 33.8665 3.87408 33.9302 3.66703 33.9302ZM8.11776 41.4912V35.0888H8.97778L9.13306 36.0325H9.19278C9.32019 35.7856 9.48344 35.5865 9.68252 35.4352C9.88956 35.276 10.1285 35.1605 10.3992 35.0888C10.6699 35.0092 10.9646 34.9694 11.2831 34.9694C11.9281 34.9694 12.4457 35.1525 12.8359 35.5188C13.2341 35.8772 13.4332 36.4426 13.4332 37.215V41.4912H12.3581V37.4061C12.3581 36.8646 12.2467 36.4704 12.0237 36.2236C11.8087 35.9688 11.4583 35.8413 10.9725 35.8413C10.3196 35.8413 9.85771 36.0484 9.58696 36.4625C9.32417 36.8766 9.19278 37.4579 9.19278 38.2064V41.4912H8.11776ZM19.1261 41.6107C18.6722 41.6107 18.2661 41.5509 17.9078 41.4315C17.5494 41.312 17.2628 41.101 17.0478 40.7984C16.8407 40.4958 16.7372 40.0778 16.7372 39.5442V35.9847H14.9933V35.2441L16.7372 35.053L16.9522 33.3807H17.8122V35.0888H20.3087V35.9847H17.8122V39.3412C17.8122 39.6597 17.856 39.9225 17.9436 40.1295C18.0392 40.3366 18.1905 40.4918 18.3975 40.5954C18.6046 40.6909 18.8713 40.7387 19.1978 40.7387C19.4048 40.7387 19.6278 40.7188 19.8667 40.679C20.1056 40.6392 20.3126 40.5993 20.4878 40.5595V41.4195C20.2967 41.4673 20.0857 41.5111 19.8548 41.5509C19.6238 41.5908 19.381 41.6107 19.1261 41.6107ZM29.6043 41.4912V35.0888H30.4643L30.6196 36.0325H30.6793C30.8067 35.7856 30.97 35.5865 31.169 35.4352C31.3761 35.276 31.615 35.1605 31.8857 35.0888C32.1565 35.0092 32.4511 34.9694 32.7696 34.9694C33.4147 34.9694 33.9323 35.1525 34.3225 35.5188C34.7206 35.8772 34.9197 36.4426 34.9197 37.215V41.4912H33.8447V37.4061C33.8447 36.8646 33.7332 36.4704 33.5102 36.2236C33.2952 35.9688 32.9448 35.8413 32.4591 35.8413C31.8061 35.8413 31.3442 36.0484 31.0735 36.4625C30.8107 36.8766 30.6793 37.4579 30.6793 38.2064V41.4912H29.6043ZM38.3312 43.1635C38.4188 42.8131 38.5024 42.4468 38.5821 42.0646C38.6617 41.6903 38.7373 41.32 38.809 40.9537C38.8807 40.5874 38.9364 40.2529 38.9762 39.9503H40.2543L40.3499 40.0937C40.2941 40.3246 40.2225 40.5715 40.1349 40.8343C40.0473 41.0891 39.9517 41.3479 39.8482 41.6107C39.7526 41.8814 39.6491 42.1482 39.5376 42.411C39.4341 42.6737 39.3266 42.9246 39.2151 43.1635H38.3312ZM51.0908 41.4912V40.7745L53.3723 40.5954V35.9847L51.2819 35.8294V35.0888H54.4473V40.5954L56.5854 40.7745V41.4912H51.0908ZM53.8023 33.9302C53.5952 33.9302 53.4161 33.8665 53.2648 33.7391C53.1214 33.6117 53.0498 33.4245 53.0498 33.1777C53.0498 32.9149 53.1214 32.7238 53.2648 32.6043C53.4161 32.4769 53.5952 32.4132 53.8023 32.4132C54.0093 32.4132 54.1845 32.4769 54.3278 32.6043C54.4791 32.7238 54.5548 32.9149 54.5548 33.1777C54.5548 33.4245 54.4791 33.6117 54.3278 33.7391C54.1845 33.8665 54.0093 33.9302 53.8023 33.9302ZM59.8178 43.1635C59.9053 42.8131 59.989 42.4468 60.0686 42.0646C60.1482 41.6903 60.2239 41.32 60.2955 40.9537C60.3672 40.5874 60.423 40.2529 60.4628 39.9503H61.7409L61.8364 40.0937C61.7807 40.3246 61.709 40.5715 61.6214 40.8343C61.5338 41.0891 61.4383 41.3479 61.3347 41.6107C61.2392 41.8814 61.1357 42.1482 61.0242 42.411C60.9207 42.6737 60.8131 42.9246 60.7017 43.1635H59.8178ZM74.5004 41.4912V35.9847H72.4101V35.2441L74.5004 35.0888V34.3602C74.5004 33.8506 74.596 33.4524 74.7871 33.1657C74.9862 32.8711 75.2609 32.664 75.6113 32.5446C75.9617 32.4172 76.3678 32.3535 76.8297 32.3535C77.18 32.3535 77.4866 32.3774 77.7494 32.4252C78.0122 32.4729 78.2391 32.5287 78.4303 32.5924L78.1914 33.4166C78.0321 33.3688 77.833 33.329 77.5941 33.2971C77.3552 33.2573 77.1203 33.2374 76.8894 33.2374C76.4753 33.2374 76.1528 33.325 75.9219 33.5002C75.6909 33.6754 75.5755 34.0098 75.5755 34.5035V35.0888H77.9883V35.9847H75.5755V41.4912H74.5004ZM79.7395 41.4912V40.7745L82.0807 40.5954V33.3091L79.8112 33.1538V32.4132H83.1557V40.5954L85.2341 40.7745V41.4912H79.7395ZM88.8845 41.6107C88.2554 41.6107 87.7458 41.4554 87.3556 41.1448C86.9734 40.8343 86.7823 40.3644 86.7823 39.7353C86.7823 39.2735 86.8937 38.8912 87.1167 38.5886C87.3397 38.2781 87.6662 38.0471 88.0962 37.8958C88.5341 37.7366 89.0637 37.649 89.6848 37.6331L91.0585 37.5972V37.3344C91.0585 36.7611 90.9151 36.3709 90.6285 36.1639C90.3418 35.9489 89.9556 35.8413 89.4698 35.8413C89.1274 35.8413 88.8009 35.8851 88.4904 35.9727C88.1798 36.0603 87.8852 36.1838 87.6064 36.343L87.2362 35.5308C87.5388 35.3795 87.8732 35.2481 88.2395 35.1366C88.6138 35.0251 89.0438 34.9694 89.5295 34.9694C90.3338 34.9694 90.951 35.1525 91.381 35.5188C91.819 35.8772 92.0379 36.4386 92.0379 37.203V41.4912H91.1779L91.0585 40.6073H91.0107C90.8355 40.8303 90.6404 41.0174 90.4254 41.1687C90.2184 41.312 89.9874 41.4195 89.7326 41.4912C89.4778 41.5708 89.1951 41.6107 88.8845 41.6107ZM89.0637 40.7387C89.422 40.7387 89.7525 40.675 90.0551 40.5476C90.3577 40.4122 90.6006 40.2131 90.7837 39.9503C90.9669 39.6796 91.0585 39.3412 91.0585 38.935V38.3617L89.9118 38.3975C89.4021 38.4135 88.992 38.4772 88.6815 38.5886C88.3709 38.6922 88.144 38.8395 88.0006 39.0306C87.8652 39.2137 87.7976 39.4367 87.7976 39.6995C87.7976 40.0658 87.913 40.3326 88.144 40.4998C88.3749 40.6591 88.6815 40.7387 89.0637 40.7387ZM96.405 44.4177C95.9671 44.4177 95.553 44.3739 95.1628 44.2863C94.7806 44.2066 94.4262 44.0991 94.0997 43.9638V43.0082C94.4182 43.1913 94.7845 43.3267 95.1986 43.4143C95.6207 43.5099 96.0109 43.5577 96.3692 43.5577C97.0939 43.5577 97.5995 43.3864 97.8862 43.044C98.1729 42.7096 98.3162 42.2477 98.3162 41.6584V41.4315C98.3162 41.3359 98.3162 41.2444 98.3162 41.1568C98.3242 41.0692 98.3361 40.9338 98.352 40.7506H98.3043C98.0813 41.0771 97.8185 41.3041 97.5159 41.4315C97.2213 41.5509 96.8629 41.6107 96.4409 41.6107C95.5968 41.6107 94.9398 41.324 94.47 40.7506C94.0002 40.1693 93.7653 39.3611 93.7653 38.3259C93.7653 37.2827 93.9962 36.4625 94.4581 35.8652C94.9279 35.268 95.5689 34.9694 96.3812 34.9694C96.8112 34.9694 97.1735 35.0411 97.4681 35.1844C97.7628 35.3198 98.0255 35.5507 98.2565 35.8772H98.3162L98.4595 35.0888H99.3196V41.6584C99.3196 42.2636 99.216 42.7693 99.009 43.1754C98.802 43.5895 98.4834 43.9001 98.0534 44.1071C97.6234 44.3142 97.074 44.4177 96.405 44.4177ZM96.6439 40.7387C96.9067 40.7387 97.1416 40.6989 97.3487 40.6192C97.5637 40.5317 97.7429 40.4003 97.8862 40.2251C98.0375 40.0419 98.153 39.815 98.2326 39.5442C98.3122 39.2655 98.352 38.935 98.352 38.5528V38.302C98.352 37.7207 98.2804 37.2508 98.137 36.8925C98.0017 36.5262 97.8026 36.2594 97.5398 36.0922C97.277 35.925 96.9664 35.8413 96.6081 35.8413C96.0029 35.8413 95.561 36.0564 95.2822 36.4864C95.0035 36.9084 94.8642 37.5096 94.8642 38.29C94.8642 39.0863 95.0075 39.6955 95.2942 40.1176C95.5888 40.5317 96.0387 40.7387 96.6439 40.7387ZM108.269 36.6297V35.6741H113.763V36.6297H108.269ZM108.269 38.8992V37.9436H113.763V38.8992H108.269ZM125.328 41.6107C124.668 41.6107 124.126 41.4355 123.704 41.0851C123.282 40.7347 122.971 40.233 122.772 39.5801C122.573 38.9191 122.474 38.1308 122.474 37.215C122.474 36.2913 122.569 35.5069 122.76 34.8619C122.951 34.2089 123.254 33.7112 123.668 33.3688C124.09 33.0184 124.644 32.8432 125.328 32.8432C125.997 32.8432 126.543 33.0144 126.965 33.3568C127.395 33.6993 127.709 34.197 127.909 34.8499C128.108 35.5029 128.207 36.2913 128.207 37.215C128.207 37.9078 128.151 38.5249 128.04 39.0664C127.936 39.6079 127.769 40.0698 127.538 40.452C127.315 40.8263 127.021 41.113 126.654 41.312C126.288 41.5111 125.846 41.6107 125.328 41.6107ZM123.967 40.2967L123.262 39.6756L126.607 34.0138L127.228 34.8022L123.967 40.2967ZM125.328 40.667C125.981 40.667 126.463 40.3883 126.774 39.8309C127.084 39.2655 127.24 38.3935 127.24 37.215C127.24 36.4585 127.172 35.8294 127.037 35.3277C126.901 34.8181 126.69 34.4359 126.404 34.181C126.125 33.9182 125.766 33.7869 125.328 33.7869C124.898 33.7869 124.548 33.9103 124.277 34.1571C124.007 34.404 123.804 34.7822 123.668 35.2919C123.541 35.7936 123.477 36.4346 123.477 37.215C123.477 38.3219 123.616 39.1739 123.895 39.7712C124.182 40.3684 124.66 40.667 125.328 40.667ZM131.44 43.1635C131.527 42.8131 131.611 42.4468 131.69 42.0646C131.77 41.6903 131.846 41.32 131.917 40.9537C131.989 40.5874 132.045 40.2529 132.085 39.9503H133.363L133.458 40.0937C133.402 40.3246 133.331 40.5715 133.243 40.8343C133.156 41.0891 133.06 41.3479 132.956 41.6107C132.861 41.8814 132.757 42.1482 132.646 42.411C132.542 42.6737 132.435 42.9246 132.323 43.1635H131.44ZM132.777 36.5939C132.57 36.5939 132.395 36.5302 132.252 36.4028C132.108 36.2753 132.037 36.0683 132.037 35.7816C132.037 35.479 132.108 35.268 132.252 35.1486C132.395 35.0291 132.57 34.9694 132.777 34.9694C132.984 34.9694 133.16 35.0291 133.303 35.1486C133.446 35.268 133.518 35.479 133.518 35.7816C133.518 36.0683 133.446 36.2753 133.303 36.4028C133.16 36.5302 132.984 36.5939 132.777 36.5939ZM0.955579 60.3579V51.0888H1.83949L1.97088 51.9608H2.01866C2.14607 51.7538 2.29737 51.5786 2.47256 51.4352C2.64775 51.2839 2.85479 51.1685 3.09369 51.0888C3.33258 51.0092 3.61129 50.9694 3.92982 50.9694C4.32001 50.9694 4.67437 51.0411 4.9929 51.1844C5.31143 51.3198 5.58217 51.5268 5.80514 51.8055C6.03607 52.0842 6.21126 52.4306 6.33071 52.8447C6.45016 53.2588 6.50988 53.7366 6.50988 54.2781C6.50988 55.0027 6.40238 55.6159 6.18737 56.1176C5.98033 56.6113 5.68171 56.9856 5.29152 57.2404C4.90929 57.4872 4.45539 57.6107 3.92982 57.6107C3.61926 57.6107 3.34055 57.5669 3.09369 57.4793C2.85479 57.3917 2.64775 57.2762 2.47256 57.1329C2.29737 56.9895 2.14607 56.8343 2.01866 56.667H1.94699C1.97088 56.8183 1.98681 56.9776 1.99477 57.1448C2.0107 57.3041 2.01866 57.4633 2.01866 57.6226V60.3579H0.955579ZM3.70287 56.7387C4.30011 56.7387 4.7341 56.5356 5.00485 56.1295C5.27559 55.7154 5.41097 55.0903 5.41097 54.2542C5.41097 53.434 5.27559 52.8288 5.00485 52.4386C4.74206 52.0404 4.30409 51.8413 3.69092 51.8413C3.10961 51.8413 2.68358 52.0325 2.41284 52.4147C2.15005 52.789 2.01866 53.3305 2.01866 54.0392V54.2781C2.01866 55.0346 2.13811 55.6358 2.377 56.0817C2.62386 56.5197 3.06582 56.7387 3.70287 56.7387ZM7.90275 57.4912V56.7745L9.84974 56.5954V51.9847L8.09387 51.8294V51.0888H10.7098L10.8531 52.2594H10.9009C11.1238 51.8374 11.3667 51.5188 11.6295 51.3038C11.9003 51.0809 12.2546 50.9694 12.6926 50.9694C12.9633 50.9694 13.2022 50.9933 13.4093 51.0411C13.6243 51.0888 13.8194 51.1525 13.9946 51.2322L13.7079 52.1758C13.5805 52.1041 13.4292 52.0444 13.254 51.9966C13.0788 51.9409 12.8917 51.913 12.6926 51.913C12.3502 51.913 12.0476 52.0205 11.7848 52.2355C11.522 52.4505 11.315 52.7372 11.1637 53.0955C11.0124 53.4539 10.9367 53.8481 10.9367 54.2781V56.5954L12.8001 56.7745V57.4912H7.90275ZM15.2799 57.4912V56.7745L17.5614 56.5954V51.9847L15.471 51.8294V51.0888H18.6364V56.5954L20.7745 56.7745V57.4912H15.2799ZM17.9914 49.9302C17.7843 49.9302 17.6052 49.8665 17.4539 49.7391C17.3105 49.6117 17.2389 49.4245 17.2389 49.1777C17.2389 48.9149 17.3105 48.7238 17.4539 48.6043C17.6052 48.4769 17.7843 48.4132 17.9914 48.4132C18.1984 48.4132 18.3736 48.4769 18.517 48.6043C18.6683 48.7238 18.7439 48.9149 18.7439 49.1777C18.7439 49.4245 18.6683 49.6117 18.517 49.7391C18.3736 49.8665 18.1984 49.9302 17.9914 49.9302ZM22.4421 57.4912V51.0888H23.3021L23.4574 52.0325H23.5171C23.6445 51.7856 23.8078 51.5865 24.0069 51.4352C24.2139 51.276 24.4528 51.1605 24.7236 51.0888C24.9943 51.0092 25.2889 50.9694 25.6075 50.9694C26.2525 50.9694 26.7701 51.1525 27.1603 51.5188C27.5584 51.8772 27.7575 52.4426 27.7575 53.215V57.4912H26.6825V53.4061C26.6825 52.8646 26.571 52.4704 26.348 52.2236C26.133 51.9688 25.7827 51.8413 25.2969 51.8413C24.6439 51.8413 24.1821 52.0484 23.9113 52.4625C23.6485 52.8766 23.5171 53.4579 23.5171 54.2064V57.4912H22.4421ZM33.4505 57.6107C32.9966 57.6107 32.5905 57.5509 32.2321 57.4315C31.8738 57.312 31.5871 57.101 31.3721 56.7984C31.1651 56.4958 31.0615 56.0778 31.0615 55.5442V51.9847H29.3176V51.2441L31.0615 51.053L31.2765 49.3807H32.1366V51.0888H34.633V51.9847H32.1366V55.3412C32.1366 55.6597 32.1804 55.9225 32.268 56.1295C32.3635 56.3366 32.5148 56.4918 32.7219 56.5954C32.9289 56.6909 33.1957 56.7387 33.5222 56.7387C33.7292 56.7387 33.9522 56.7188 34.1911 56.679C34.43 56.6392 34.637 56.5993 34.8122 56.5595V57.4195C34.6211 57.4673 34.4101 57.5111 34.1791 57.5509C33.9482 57.5908 33.7053 57.6107 33.4505 57.6107ZM38.6896 57.4912V51.9847H36.5992V51.2441L38.6896 51.0888V50.3602C38.6896 49.8506 38.7851 49.4524 38.9762 49.1657C39.1753 48.8711 39.45 48.664 39.8004 48.5446C40.1508 48.4172 40.5569 48.3535 41.0188 48.3535C41.3692 48.3535 41.6757 48.3774 41.9385 48.4252C42.2013 48.4729 42.4283 48.5287 42.6194 48.5924L42.3805 49.4166C42.2212 49.3688 42.0221 49.329 41.7833 49.2971C41.5444 49.2573 41.3094 49.2374 41.0785 49.2374C40.6644 49.2374 40.3419 49.325 40.111 49.5002C39.8801 49.6754 39.7646 50.0098 39.7646 50.5035V51.0888H42.1774V51.9847H39.7646V57.4912H38.6896ZM47.1179 59.3785C46.5127 58.6777 46.0667 57.8854 45.7801 57.0015C45.5014 56.1096 45.362 55.1819 45.362 54.2184C45.362 53.2468 45.5014 52.3112 45.7801 51.4113C46.0667 50.5035 46.5127 49.6873 47.1179 48.9627H48.1093C47.5519 49.7112 47.1298 50.5354 46.8432 51.4352C46.5644 52.3351 46.4251 53.2588 46.4251 54.2064C46.4251 55.1301 46.5644 56.0379 46.8432 56.9298C47.1298 57.8137 47.5479 58.6299 48.0974 59.3785H47.1179ZM51.7119 51.7577C51.7836 51.479 51.8752 51.1764 51.9867 50.8499C52.0982 50.5234 52.2176 50.197 52.345 49.8705C52.4804 49.544 52.6118 49.2414 52.7392 48.9627H53.5156C53.4439 49.2653 53.3683 49.5918 53.2886 49.9421C53.209 50.2846 53.1373 50.627 53.0736 50.9694C53.0099 51.3038 52.9582 51.6104 52.9184 51.8891H51.7836L51.7119 51.7577ZM53.9217 51.7577C53.9934 51.479 54.085 51.1764 54.1964 50.8499C54.3079 50.5234 54.4274 50.197 54.5548 49.8705C54.6902 49.544 54.8216 49.2414 54.949 48.9627H55.7254C55.6537 49.2653 55.5781 49.5918 55.4984 49.9421C55.4188 50.2846 55.3471 50.627 55.2834 50.9694C55.2197 51.3038 55.168 51.6104 55.1281 51.8891H53.9934L53.9217 51.7577ZM58.4322 57.4912V48.9627H63.449V49.9182H59.5072V52.558H63.222V53.5136H59.5072V56.5356H63.449V57.4912H58.4322ZM65.4152 57.4912V51.0888H66.2752L66.4305 52.0325H66.4902C66.6176 51.7856 66.7808 51.5865 66.9799 51.4352C67.187 51.276 67.4259 51.1605 67.6966 51.0888C67.9674 51.0092 68.262 50.9694 68.5805 50.9694C69.2255 50.9694 69.7431 51.1525 70.1333 51.5188C70.5315 51.8772 70.7306 52.4426 70.7306 53.215V57.4912H69.6555V53.4061C69.6555 52.8646 69.5441 52.4704 69.3211 52.2236C69.1061 51.9688 68.7557 51.8413 68.27 51.8413C67.617 51.8413 67.1551 52.0484 66.8844 52.4625C66.6216 52.8766 66.4902 53.4579 66.4902 54.2064V57.4912H65.4152ZM76.4235 57.6107C75.9696 57.6107 75.5635 57.5509 75.2052 57.4315C74.8468 57.312 74.5602 57.101 74.3452 56.7984C74.1381 56.4958 74.0346 56.0778 74.0346 55.5442V51.9847H72.2907V51.2441L74.0346 51.053L74.2496 49.3807H75.1096V51.0888H77.6061V51.9847H75.1096V55.3412C75.1096 55.6597 75.1534 55.9225 75.241 56.1295C75.3366 56.3366 75.4879 56.4918 75.6949 56.5954C75.902 56.6909 76.1687 56.7387 76.4952 56.7387C76.7023 56.7387 76.9252 56.7188 77.1641 56.679C77.403 56.6392 77.6101 56.5993 77.7853 56.5595V57.4195C77.5941 57.4673 77.3831 57.5111 77.1522 57.5509C76.9212 57.5908 76.6784 57.6107 76.4235 57.6107ZM82.8093 57.6107C82.1245 57.6107 81.5352 57.4832 81.0415 57.2284C80.5478 56.9736 80.1656 56.6033 79.8948 56.1176C79.632 55.6239 79.5006 55.0226 79.5006 54.3139C79.5006 53.6132 79.628 53.0159 79.8829 52.5222C80.1377 52.0205 80.492 51.6383 80.9459 51.3755C81.3998 51.1048 81.9294 50.9694 82.5346 50.9694C83.092 50.9694 83.5698 51.0928 83.968 51.3397C84.3741 51.5865 84.6846 51.9369 84.8996 52.3908C85.1226 52.8367 85.2341 53.3743 85.2341 54.0033V54.4931H80.5876C80.6035 55.0505 80.707 55.4925 80.8982 55.8189C81.0972 56.1454 81.364 56.3804 81.6985 56.5237C82.0409 56.6591 82.4351 56.7267 82.881 56.7267C83.2314 56.7267 83.5778 56.679 83.9202 56.5834C84.2626 56.4879 84.605 56.3604 84.9474 56.2012V57.1568C84.5811 57.316 84.2148 57.4315 83.8485 57.5032C83.4822 57.5748 83.1358 57.6107 82.8093 57.6107ZM84.1591 53.6331C84.1431 53.2588 84.0715 52.9403 83.9441 52.6775C83.8167 52.4067 83.6335 52.1997 83.3946 52.0564C83.1637 51.913 82.877 51.8413 82.5346 51.8413C82.0011 51.8413 81.5671 52.0046 81.2326 52.3311C80.9061 52.6496 80.6991 53.0836 80.6115 53.6331H84.1591ZM86.6867 57.4912V56.7745L88.6337 56.5954V51.9847L86.8778 51.8294V51.0888H89.4937L89.637 52.2594H89.6848C89.9078 51.8374 90.1507 51.5188 90.4135 51.3038C90.6842 51.0809 91.0386 50.9694 91.4765 50.9694C91.7473 50.9694 91.9862 50.9933 92.1932 51.0411C92.4082 51.0888 92.6033 51.1525 92.7785 51.2322L92.4918 52.1758C92.3644 52.1041 92.2131 52.0444 92.0379 51.9966C91.8627 51.9409 91.6756 51.913 91.4765 51.913C91.1341 51.913 90.8315 52.0205 90.5687 52.2355C90.306 52.4505 90.0989 52.7372 89.9476 53.0955C89.7963 53.4539 89.7207 53.8481 89.7207 54.2781V56.5954L91.584 56.7745V57.4912H86.6867ZM103.209 57.6107C102.58 57.6107 102.07 57.4554 101.68 57.1448C101.298 56.8343 101.107 56.3644 101.107 55.7353C101.107 55.2735 101.218 54.8912 101.441 54.5886C101.664 54.2781 101.991 54.0471 102.421 53.8958C102.858 53.7366 103.388 53.649 104.009 53.6331L105.383 53.5972V53.3344C105.383 52.7611 105.239 52.3709 104.953 52.1639C104.666 51.9489 104.28 51.8413 103.794 51.8413C103.452 51.8413 103.125 51.8851 102.815 51.9727C102.504 52.0603 102.209 52.1838 101.931 52.343L101.561 51.5308C101.863 51.3795 102.198 51.2481 102.564 51.1366C102.938 51.0251 103.368 50.9694 103.854 50.9694C104.658 50.9694 105.275 51.1525 105.705 51.5188C106.143 51.8772 106.362 52.4386 106.362 53.203V57.4912H105.502L105.383 56.6073H105.335C105.16 56.8303 104.965 57.0174 104.75 57.1687C104.543 57.312 104.312 57.4195 104.057 57.4912C103.802 57.5708 103.519 57.6107 103.209 57.6107ZM103.388 56.7387C103.746 56.7387 104.077 56.675 104.379 56.5476C104.682 56.4122 104.925 56.2131 105.108 55.9503C105.291 55.6796 105.383 55.3412 105.383 54.935V54.3617L104.236 54.3975C103.726 54.4135 103.316 54.4772 103.006 54.5886C102.695 54.6922 102.468 54.8395 102.325 55.0306C102.19 55.2137 102.122 55.4367 102.122 55.6995C102.122 56.0658 102.237 56.3326 102.468 56.4998C102.699 56.6591 103.006 56.7387 103.388 56.7387ZM115.55 60.3579V51.0888H116.434L116.566 51.9608H116.613C116.741 51.7538 116.892 51.5786 117.067 51.4352C117.243 51.2839 117.45 51.1685 117.689 51.0888C117.927 51.0092 118.206 50.9694 118.525 50.9694C118.915 50.9694 119.269 51.0411 119.588 51.1844C119.906 51.3198 120.177 51.5268 120.4 51.8055C120.631 52.0842 120.806 52.4306 120.926 52.8447C121.045 53.2588 121.105 53.7366 121.105 54.2781C121.105 55.0027 120.997 55.6159 120.782 56.1176C120.575 56.6113 120.277 56.9856 119.886 57.2404C119.504 57.4872 119.05 57.6107 118.525 57.6107C118.214 57.6107 117.935 57.5669 117.689 57.4793C117.45 57.3917 117.243 57.2762 117.067 57.1329C116.892 56.9895 116.741 56.8343 116.613 56.667H116.542C116.566 56.8183 116.582 56.9776 116.59 57.1448C116.606 57.3041 116.613 57.4633 116.613 57.6226V60.3579H115.55ZM118.298 56.7387C118.895 56.7387 119.329 56.5356 119.6 56.1295C119.87 55.7154 120.006 55.0903 120.006 54.2542C120.006 53.434 119.87 52.8288 119.6 52.4386C119.337 52.0404 118.899 51.8413 118.286 51.8413C117.704 51.8413 117.278 52.0325 117.008 52.4147C116.745 52.789 116.613 53.3305 116.613 54.0392V54.2781C116.613 55.0346 116.733 55.6358 116.972 56.0817C117.219 56.5197 117.661 56.7387 118.298 56.7387ZM125.352 57.6107C124.938 57.6107 124.552 57.543 124.194 57.4076C123.835 57.2722 123.521 57.0652 123.25 56.7865C122.987 56.5078 122.78 56.1614 122.629 55.7473C122.486 55.3252 122.414 54.8315 122.414 54.2661C122.414 53.5256 122.537 52.9124 122.784 52.4266C123.039 51.9409 123.385 51.5786 123.823 51.3397C124.261 51.0928 124.759 50.9694 125.317 50.9694C125.874 50.9694 126.376 51.0928 126.822 51.3397C127.268 51.5786 127.618 51.9449 127.873 52.4386C128.135 52.9243 128.267 53.5455 128.267 54.302C128.267 54.8594 128.191 55.3451 128.04 55.7592C127.897 56.1733 127.694 56.5197 127.431 56.7984C127.176 57.0692 126.869 57.2722 126.511 57.4076C126.161 57.543 125.774 57.6107 125.352 57.6107ZM125.34 56.7387C125.755 56.7387 126.097 56.6392 126.368 56.4401C126.638 56.241 126.841 55.9583 126.977 55.592C127.112 55.2177 127.18 54.7798 127.18 54.2781C127.18 53.7684 127.112 53.3344 126.977 52.9761C126.841 52.6098 126.634 52.3311 126.356 52.14C126.085 51.9409 125.743 51.8413 125.328 51.8413C124.707 51.8413 124.242 52.0603 123.931 52.4983C123.628 52.9283 123.477 53.5216 123.477 54.2781C123.477 54.7798 123.545 55.2177 123.68 55.592C123.823 55.9583 124.03 56.241 124.301 56.4401C124.58 56.6392 124.926 56.7387 125.34 56.7387ZM132.252 57.6107C131.854 57.6107 131.471 57.5748 131.105 57.5032C130.747 57.4315 130.436 57.3319 130.173 57.2045V56.2131C130.452 56.3405 130.759 56.46 131.093 56.5715C131.436 56.675 131.842 56.7267 132.311 56.7267C132.837 56.7267 133.207 56.6471 133.422 56.4879C133.645 56.3206 133.757 56.0817 133.757 55.7712C133.757 55.6039 133.717 55.4686 133.637 55.365C133.566 55.2536 133.422 55.1421 133.207 55.0306C132.992 54.9191 132.678 54.7758 132.264 54.6006C131.85 54.4174 131.495 54.2462 131.201 54.087C130.906 53.9277 130.679 53.7406 130.52 53.5256C130.361 53.3026 130.281 53.0199 130.281 52.6775C130.281 52.2952 130.376 51.9807 130.568 51.7338C130.767 51.479 131.049 51.2879 131.416 51.1605C131.79 51.0331 132.232 50.9694 132.741 50.9694C133.092 50.9694 133.426 51.0012 133.745 51.0649C134.063 51.1286 134.394 51.2322 134.736 51.3755L134.414 52.2116C134.095 52.0763 133.801 51.9847 133.53 51.9369C133.267 51.8891 133.004 51.8652 132.741 51.8652C132.248 51.8652 131.885 51.9289 131.655 52.0564C131.432 52.1838 131.32 52.3828 131.32 52.6536C131.32 52.8288 131.368 52.9761 131.463 53.0955C131.567 53.215 131.73 53.3305 131.953 53.4419C132.184 53.5534 132.487 53.6888 132.861 53.8481C133.283 54.0233 133.641 54.1865 133.936 54.3378C134.231 54.4891 134.454 54.6723 134.605 54.8873C134.756 55.0943 134.832 55.381 134.832 55.7473C134.832 56.1534 134.732 56.4958 134.533 56.7745C134.342 57.0453 134.055 57.2523 133.673 57.3957C133.291 57.539 132.817 57.6107 132.252 57.6107ZM137.037 57.4912V56.7745L139.318 56.5954V51.9847L137.228 51.8294V51.0888H140.393V56.5954L142.532 56.7745V57.4912H137.037ZM139.748 49.9302C139.541 49.9302 139.362 49.8665 139.211 49.7391C139.068 49.6117 138.996 49.4245 138.996 49.1777C138.996 48.9149 139.068 48.7238 139.211 48.6043C139.362 48.4769 139.541 48.4132 139.748 48.4132C139.955 48.4132 140.131 48.4769 140.274 48.6043C140.425 48.7238 140.501 48.9149 140.501 49.1777C140.501 49.4245 140.425 49.6117 140.274 49.7391C140.131 49.8665 139.955 49.9302 139.748 49.9302ZM148.045 57.6107C147.591 57.6107 147.185 57.5509 146.827 57.4315C146.469 57.312 146.182 57.101 145.967 56.7984C145.76 56.4958 145.656 56.0778 145.656 55.5442V51.9847H143.912V51.2441L145.656 51.053L145.871 49.3807H146.731V51.0888H149.228V51.9847H146.731V55.3412C146.731 55.6597 146.775 55.9225 146.863 56.1295C146.958 56.3366 147.11 56.4918 147.317 56.5954C147.524 56.6909 147.79 56.7387 148.117 56.7387C148.324 56.7387 148.547 56.7188 148.786 56.679C149.025 56.6392 149.232 56.5993 149.407 56.5595V57.4195C149.216 57.4673 149.005 57.5111 148.774 57.5509C148.543 57.5908 148.3 57.6107 148.045 57.6107ZM151.361 57.4912V56.7745L153.643 56.5954V51.9847L151.552 51.8294V51.0888H154.718V56.5954L156.856 56.7745V57.4912H151.361ZM154.073 49.9302C153.866 49.9302 153.687 49.8665 153.535 49.7391C153.392 49.6117 153.32 49.4245 153.32 49.1777C153.32 48.9149 153.392 48.7238 153.535 48.6043C153.687 48.4769 153.866 48.4132 154.073 48.4132C154.28 48.4132 154.455 48.4769 154.598 48.6043C154.75 48.7238 154.825 48.9149 154.825 49.1777C154.825 49.4245 154.75 49.6117 154.598 49.7391C154.455 49.8665 154.28 49.9302 154.073 49.9302ZM160.47 57.4912L158.105 51.0888H159.204L160.542 54.8873C160.63 55.1421 160.721 55.4088 160.817 55.6876C160.92 55.9663 161.024 56.2649 161.127 56.5834H161.163C161.267 56.2649 161.37 55.9663 161.474 55.6876C161.585 55.4009 161.681 55.1341 161.76 54.8873L163.062 51.0888H164.185L161.796 57.4912H160.47ZM168.755 57.6107C168.071 57.6107 167.481 57.4832 166.988 57.2284C166.494 56.9736 166.112 56.6033 165.841 56.1176C165.578 55.6239 165.447 55.0226 165.447 54.3139C165.447 53.6132 165.574 53.0159 165.829 52.5222C166.084 52.0205 166.438 51.6383 166.892 51.3755C167.346 51.1048 167.876 50.9694 168.481 50.9694C169.038 50.9694 169.516 51.0928 169.914 51.3397C170.32 51.5865 170.631 51.9369 170.846 52.3908C171.069 52.8367 171.18 53.3743 171.18 54.0033V54.4931H166.534C166.55 55.0505 166.653 55.4925 166.844 55.8189C167.043 56.1454 167.31 56.3804 167.645 56.5237C167.987 56.6591 168.381 56.7267 168.827 56.7267C169.177 56.7267 169.524 56.679 169.866 56.5834C170.209 56.4879 170.551 56.3604 170.894 56.2012V57.1568C170.527 57.316 170.161 57.4315 169.795 57.5032C169.428 57.5748 169.082 57.6107 168.755 57.6107ZM170.105 53.6331C170.089 53.2588 170.018 52.9403 169.89 52.6775C169.763 52.4067 169.58 52.1997 169.341 52.0564C169.11 51.913 168.823 51.8413 168.481 51.8413C167.947 51.8413 167.513 52.0046 167.179 52.3311C166.852 52.6496 166.645 53.0836 166.558 53.6331H170.105ZM0.955579 73.4912V72.7745L3.23702 72.5954V67.9847L1.14669 67.8294V67.0888H4.31205V72.5954L6.45016 72.7745V73.4912H0.955579ZM3.66703 65.9302C3.45999 65.9302 3.28082 65.8665 3.12952 65.7391C2.98618 65.6117 2.91452 65.4245 2.91452 65.1777C2.91452 64.9149 2.98618 64.7238 3.12952 64.6043C3.28082 64.4769 3.45999 64.4132 3.66703 64.4132C3.87408 64.4132 4.04927 64.4769 4.1926 64.6043C4.3439 64.7238 4.41955 64.9149 4.41955 65.1777C4.41955 65.4245 4.3439 65.6117 4.1926 65.7391C4.04927 65.8665 3.87408 65.9302 3.66703 65.9302ZM8.11776 73.4912V67.0888H8.97778L9.13306 68.0325H9.19278C9.32019 67.7856 9.48344 67.5865 9.68252 67.4352C9.88956 67.276 10.1285 67.1605 10.3992 67.0888C10.6699 67.0092 10.9646 66.9694 11.2831 66.9694C11.9281 66.9694 12.4457 67.1525 12.8359 67.5188C13.2341 67.8772 13.4332 68.4426 13.4332 69.215V73.4912H12.3581V69.4061C12.3581 68.8646 12.2467 68.4704 12.0237 68.2236C11.8087 67.9688 11.4583 67.8413 10.9725 67.8413C10.3196 67.8413 9.85771 68.0484 9.58696 68.4625C9.32417 68.8766 9.19278 69.4579 9.19278 70.2064V73.4912H8.11776ZM19.1261 73.6107C18.6722 73.6107 18.2661 73.5509 17.9078 73.4315C17.5494 73.312 17.2628 73.101 17.0478 72.7984C16.8407 72.4958 16.7372 72.0778 16.7372 71.5442V67.9847H14.9933V67.2441L16.7372 67.053L16.9522 65.3807H17.8122V67.0888H20.3087V67.9847H17.8122V71.3412C17.8122 71.6597 17.856 71.9225 17.9436 72.1295C18.0392 72.3366 18.1905 72.4918 18.3975 72.5954C18.6046 72.6909 18.8713 72.7387 19.1978 72.7387C19.4048 72.7387 19.6278 72.7188 19.8667 72.679C20.1056 72.6392 20.3126 72.5993 20.4878 72.5595V73.4195C20.2967 73.4673 20.0857 73.5111 19.8548 73.5509C19.6238 73.5908 19.381 73.6107 19.1261 73.6107ZM25.5119 73.6107C24.8271 73.6107 24.2378 73.4832 23.7441 73.2284C23.2504 72.9736 22.8681 72.6033 22.5974 72.1176C22.3346 71.6239 22.2032 71.0226 22.2032 70.3139C22.2032 69.6132 22.3306 69.0159 22.5854 68.5222C22.8403 68.0205 23.1946 67.6383 23.6485 67.3755C24.1024 67.1048 24.632 66.9694 25.2372 66.9694C25.7946 66.9694 26.2724 67.0928 26.6705 67.3397C27.0767 67.5865 27.3872 67.9369 27.6022 68.3908C27.8252 68.8367 27.9367 69.3743 27.9367 70.0033V70.4931H23.2902C23.3061 71.0505 23.4096 71.4925 23.6007 71.8189C23.7998 72.1454 24.0666 72.3804 24.401 72.5237C24.7435 72.6591 25.1376 72.7267 25.5836 72.7267C25.934 72.7267 26.2804 72.679 26.6228 72.5834C26.9652 72.4879 27.3076 72.3604 27.65 72.2012V73.1568C27.2837 73.316 26.9174 73.4315 26.5511 73.5032C26.1848 73.5748 25.8384 73.6107 25.5119 73.6107ZM26.8617 69.6331C26.8457 69.2588 26.7741 68.9403 26.6467 68.6775C26.5192 68.4067 26.3361 68.1997 26.0972 68.0564C25.8663 67.913 25.5796 67.8413 25.2372 67.8413C24.7036 67.8413 24.2697 68.0046 23.9352 68.3311C23.6087 68.6496 23.4017 69.0836 23.3141 69.6331H26.8617ZM31.9455 76.4177C31.5075 76.4177 31.0934 76.3739 30.7032 76.2863C30.321 76.2066 29.9666 76.0991 29.6401 75.9638V75.0082C29.9586 75.1913 30.325 75.3267 30.739 75.4143C31.1611 75.5099 31.5513 75.5577 31.9096 75.5577C32.6343 75.5577 33.1399 75.3864 33.4266 75.044C33.7133 74.7096 33.8566 74.2477 33.8566 73.6584V73.4315C33.8566 73.3359 33.8566 73.2444 33.8566 73.1568C33.8646 73.0692 33.8765 72.9338 33.8924 72.7506H33.8447C33.6217 73.0771 33.3589 73.3041 33.0563 73.4315C32.7617 73.5509 32.4033 73.6107 31.9813 73.6107C31.1372 73.6107 30.4802 73.324 30.0104 72.7506C29.5406 72.1693 29.3057 71.3611 29.3057 70.3259C29.3057 69.2827 29.5366 68.4625 29.9985 67.8652C30.4683 67.268 31.1093 66.9694 31.9216 66.9694C32.3516 66.9694 32.7139 67.0411 33.0085 67.1844C33.3032 67.3198 33.566 67.5507 33.7969 67.8772H33.8566L33.9999 67.0888H34.86V73.6584C34.86 74.2636 34.7564 74.7693 34.5494 75.1754C34.3424 75.5895 34.0238 75.9001 33.5938 76.1071C33.1638 76.3142 32.6144 76.4177 31.9455 76.4177ZM32.1843 72.7387C32.4471 72.7387 32.682 72.6989 32.8891 72.6192C33.1041 72.5317 33.2833 72.4003 33.4266 72.2251C33.5779 72.0419 33.6934 71.815 33.773 71.5442C33.8526 71.2655 33.8924 70.935 33.8924 70.5528V70.302C33.8924 69.7207 33.8208 69.2508 33.6774 68.8925C33.5421 68.5262 33.343 68.2594 33.0802 68.0922C32.8174 67.925 32.5069 67.8413 32.1485 67.8413C31.5433 67.8413 31.1014 68.0564 30.8226 68.4864C30.5439 68.9084 30.4046 69.5096 30.4046 70.29C30.4046 71.0863 30.5479 71.6955 30.8346 72.1176C31.1292 72.5317 31.5791 72.7387 32.1843 72.7387ZM39.8363 73.6107C39.1514 73.6107 38.5622 73.4832 38.0684 73.2284C37.5747 72.9736 37.1925 72.6033 36.9217 72.1176C36.659 71.6239 36.5276 71.0226 36.5276 70.3139C36.5276 69.6132 36.655 69.0159 36.9098 68.5222C37.1646 68.0205 37.519 67.6383 37.9729 67.3755C38.4268 67.1048 38.9563 66.9694 39.5615 66.9694C40.119 66.9694 40.5967 67.0928 40.9949 67.3397C41.401 67.5865 41.7116 67.9369 41.9266 68.3908C42.1496 68.8367 42.261 69.3743 42.261 70.0033V70.4931H37.6145C37.6305 71.0505 37.734 71.4925 37.9251 71.8189C38.1242 72.1454 38.3909 72.3804 38.7254 72.5237C39.0678 72.6591 39.462 72.7267 39.9079 72.7267C40.2583 72.7267 40.6047 72.679 40.9471 72.5834C41.2895 72.4879 41.632 72.3604 41.9744 72.2012V73.1568C41.6081 73.316 41.2418 73.4315 40.8755 73.5032C40.5091 73.5748 40.1627 73.6107 39.8363 73.6107ZM41.186 69.6331C41.1701 69.2588 41.0984 68.9403 40.971 68.6775C40.8436 68.4067 40.6604 68.1997 40.4216 68.0564C40.1906 67.913 39.9039 67.8413 39.5615 67.8413C39.028 67.8413 38.594 68.0046 38.2596 68.3311C37.9331 68.6496 37.726 69.0836 37.6384 69.6331H41.186ZM43.7136 73.4912V72.7745L45.6606 72.5954V67.9847L43.9048 67.8294V67.0888H46.5206L46.664 68.2594H46.7118C46.9347 67.8374 47.1776 67.5188 47.4404 67.3038C47.7111 67.0809 48.0655 66.9694 48.5035 66.9694C48.7742 66.9694 49.0131 66.9933 49.2202 67.0411C49.4352 67.0888 49.6303 67.1525 49.8055 67.2322L49.5188 68.1758C49.3914 68.1041 49.2401 68.0444 49.0649 67.9966C48.8897 67.9409 48.7026 67.913 48.5035 67.913C48.1611 67.913 47.8585 68.0205 47.5957 68.2355C47.3329 68.4505 47.1258 68.7372 46.9745 69.0955C46.8232 69.4539 46.7476 69.8481 46.7476 70.2781V72.5954L48.611 72.7745V73.4912H43.7136ZM53.7306 68.5939C53.5236 68.5939 53.3484 68.5302 53.205 68.4028C53.0617 68.2753 52.99 68.0683 52.99 67.7816C52.99 67.479 53.0617 67.268 53.205 67.1486C53.3484 67.0291 53.5236 66.9694 53.7306 66.9694C53.9376 66.9694 54.1089 67.0291 54.2442 67.1486C54.3876 67.268 54.4592 67.479 54.4592 67.7816C54.4592 68.0683 54.3876 68.2753 54.2442 68.4028C54.1089 68.5302 53.9376 68.5939 53.7306 68.5939ZM53.7187 73.6107C53.5116 73.6107 53.3364 73.547 53.1931 73.4195C53.0498 73.2921 52.9781 73.0851 52.9781 72.7984C52.9781 72.4958 53.0498 72.2848 53.1931 72.1653C53.3364 72.0459 53.5116 71.9862 53.7187 71.9862C53.9257 71.9862 54.0969 72.0459 54.2323 72.1653C54.3756 72.2848 54.4473 72.4958 54.4473 72.7984C54.4473 73.0851 54.3756 73.2921 54.2323 73.4195C54.0969 73.547 53.9257 73.6107 53.7187 73.6107ZM66.0363 67.7577C66.108 67.479 66.1995 67.1764 66.311 66.8499C66.4225 66.5234 66.542 66.197 66.6694 65.8705C66.8047 65.544 66.9361 65.2414 67.0635 64.9627H67.8399C67.7683 65.2653 67.6926 65.5918 67.613 65.9421C67.5334 66.2846 67.4617 66.627 67.398 66.9694C67.3343 67.3038 67.2825 67.6104 67.2427 67.8891H66.108L66.0363 67.7577ZM68.2461 67.7577C68.3177 67.479 68.4093 67.1764 68.5208 66.8499C68.6323 66.5234 68.7517 66.197 68.8791 65.8705C69.0145 65.544 69.1459 65.2414 69.2733 64.9627H70.0497C69.9781 65.2653 69.9024 65.5918 69.8228 65.9421C69.7431 66.2846 69.6715 66.627 69.6078 66.9694C69.5441 67.3038 69.4923 67.6104 69.4525 67.8891H68.3177L68.2461 67.7577ZM74.6438 64.9627C75.249 65.6634 75.6909 66.4597 75.9696 67.3516C76.2563 68.2355 76.3997 69.1593 76.3997 70.1228C76.3997 71.0943 76.2563 72.034 75.9696 72.9418C75.6909 73.8416 75.249 74.6538 74.6438 75.3785H73.6524C74.2098 74.6299 74.6279 73.8058 74.9066 72.9059C75.1932 72.0061 75.3366 71.0824 75.3366 70.1347C75.3366 69.211 75.1932 68.3072 74.9066 67.4233C74.6279 66.5314 74.2138 65.7112 73.6643 64.9627H74.6438ZM81.3043 75.1635C81.3919 74.8131 81.4755 74.4468 81.5551 74.0646C81.6348 73.6903 81.7104 73.32 81.7821 72.9537C81.8537 72.5874 81.9095 72.2529 81.9493 71.9503H83.2274L83.3229 72.0937C83.2672 72.3246 83.1955 72.5715 83.1079 72.8343C83.0203 73.0891 82.9248 73.3479 82.8213 73.6107C82.7257 73.8814 82.6222 74.1482 82.5107 74.411C82.4072 74.6737 82.2997 74.9246 82.1882 75.1635H81.3043ZM82.6421 68.5939C82.4351 68.5939 82.2599 68.5302 82.1165 68.4028C81.9732 68.2753 81.9015 68.0683 81.9015 67.7816C81.9015 67.479 81.9732 67.268 82.1165 67.1486C82.2599 67.0291 82.4351 66.9694 82.6421 66.9694C82.8491 66.9694 83.0243 67.0291 83.1677 67.1486C83.311 67.268 83.3827 67.479 83.3827 67.7816C83.3827 68.0683 83.311 68.2753 83.1677 68.4028C83.0243 68.5302 82.8491 68.5939 82.6421 68.5939ZM3.33258 89.6107C2.93442 89.6107 2.55219 89.5748 2.18589 89.5032C1.82754 89.4315 1.51698 89.3319 1.2542 89.2045V88.2131C1.53291 88.3405 1.83949 88.46 2.17394 88.5715C2.51636 88.675 2.92248 88.7267 3.39231 88.7267C3.91787 88.7267 4.28816 88.6471 4.50317 88.4879C4.72613 88.3206 4.83762 88.0817 4.83762 87.7712C4.83762 87.6039 4.7978 87.4686 4.71817 87.365C4.6465 87.2536 4.50317 87.1421 4.28816 87.0306C4.07316 86.9191 3.75861 86.7758 3.34453 86.6006C2.93044 86.4174 2.57608 86.2462 2.28145 86.087C1.98681 85.9277 1.75986 85.7406 1.60059 85.5256C1.44133 85.3026 1.3617 85.0199 1.3617 84.6775C1.3617 84.2952 1.45726 83.9807 1.64837 83.7338C1.84745 83.479 2.13014 83.2879 2.49645 83.1605C2.87072 83.0331 3.31267 82.9694 3.82232 82.9694C4.1727 82.9694 4.50715 83.0012 4.82567 83.0649C5.1442 83.1286 5.47467 83.2322 5.81709 83.3755L5.49458 84.2116C5.17605 84.0763 4.88142 83.9847 4.61067 83.9369C4.34788 83.8891 4.0851 83.8652 3.82232 83.8652C3.3286 83.8652 2.96628 83.9289 2.73535 84.0564C2.51238 84.1838 2.40089 84.3828 2.40089 84.6536C2.40089 84.8288 2.44867 84.9761 2.54423 85.0955C2.64775 85.215 2.81099 85.3305 3.03396 85.4419C3.2649 85.5534 3.5675 85.6888 3.94176 85.8481C4.36381 86.0233 4.72215 86.1865 5.01679 86.3378C5.31143 86.4891 5.5344 86.6723 5.6857 86.8873C5.837 87.0943 5.91265 87.381 5.91265 87.7473C5.91265 88.1534 5.81311 88.4958 5.61403 88.7745C5.42291 89.0453 5.13624 89.2523 4.75401 89.3957C4.37177 89.539 3.89797 89.6107 3.33258 89.6107ZM11.1995 89.6107C10.5784 89.6107 10.0409 89.4992 9.58696 89.2762C9.13306 89.0453 8.78268 88.6909 8.53582 88.2131C8.29693 87.7274 8.17748 87.1023 8.17748 86.3378C8.17748 85.5176 8.30887 84.8606 8.57166 84.3669C8.8424 83.8732 9.21269 83.5188 9.68252 83.3038C10.1603 83.0809 10.7018 82.9694 11.307 82.9694C11.6813 82.9694 12.0197 83.0092 12.3223 83.0888C12.6329 83.1605 12.9235 83.268 13.1943 83.4113L12.8718 84.2833C12.6169 84.1479 12.3701 84.0524 12.1312 83.9966C11.8923 83.9329 11.6335 83.9011 11.3548 83.9011C10.869 83.9011 10.4709 83.9926 10.1603 84.1758C9.85771 84.351 9.63474 84.6178 9.4914 84.9761C9.34806 85.3265 9.2764 85.7724 9.2764 86.3139C9.2764 86.8793 9.35205 87.3372 9.50335 87.6876C9.65465 88.0379 9.8816 88.2928 10.1842 88.452C10.4948 88.6113 10.873 88.6909 11.3189 88.6909C11.6693 88.6909 11.9998 88.6551 12.3104 88.5834C12.6209 88.5038 12.8917 88.4122 13.1226 88.3087V89.2523C12.8837 89.3638 12.5891 89.4514 12.2387 89.5151C11.8883 89.5788 11.5419 89.6107 11.1995 89.6107ZM17.2628 89.6107C16.6337 89.6107 16.124 89.4554 15.7338 89.1448C15.3516 88.8343 15.1605 88.3644 15.1605 87.7353C15.1605 87.2735 15.272 86.8912 15.4949 86.5886C15.7179 86.2781 16.0444 86.0471 16.4744 85.8958C16.9124 85.7366 17.4419 85.649 18.0631 85.6331L19.4367 85.5972V85.3344C19.4367 84.7611 19.2934 84.3709 19.0067 84.1639C18.72 83.9489 18.3338 83.8413 17.8481 83.8413C17.5056 83.8413 17.1791 83.8851 16.8686 83.9727C16.558 84.0603 16.2634 84.1838 15.9847 84.343L15.6144 83.5308C15.917 83.3795 16.2514 83.2481 16.6177 83.1366C16.992 83.0251 17.422 82.9694 17.9078 82.9694C18.7121 82.9694 19.3292 83.1525 19.7592 83.5188C20.1972 83.8772 20.4162 84.4386 20.4162 85.203V89.4912H19.5561L19.4367 88.6073H19.3889C19.2137 88.8303 19.0186 89.0174 18.8036 89.1687C18.5966 89.312 18.3657 89.4195 18.1108 89.4912C17.856 89.5708 17.5733 89.6107 17.2628 89.6107ZM17.4419 88.7387C17.8003 88.7387 18.1307 88.675 18.4333 88.5476C18.7359 88.4122 18.9788 88.2131 19.162 87.9503C19.3451 87.6796 19.4367 87.3412 19.4367 86.935V86.3617L18.29 86.3975C17.7804 86.4135 17.3703 86.4772 17.0597 86.5886C16.7491 86.6922 16.5222 86.8395 16.3788 87.0306C16.2435 87.2137 16.1758 87.4367 16.1758 87.6995C16.1758 88.0658 16.2913 88.3326 16.5222 88.4998C16.7531 88.6591 17.0597 88.7387 17.4419 88.7387ZM22.4421 89.4912V83.0888H23.3021L23.4574 84.0325H23.5171C23.6445 83.7856 23.8078 83.5865 24.0069 83.4352C24.2139 83.276 24.4528 83.1605 24.7236 83.0888C24.9943 83.0092 25.2889 82.9694 25.6075 82.9694C26.2525 82.9694 26.7701 83.1525 27.1603 83.5188C27.5584 83.8772 27.7575 84.4426 27.7575 85.215V89.4912H26.6825V85.4061C26.6825 84.8646 26.571 84.4704 26.348 84.2236C26.133 83.9688 25.7827 83.8413 25.2969 83.8413C24.6439 83.8413 24.1821 84.0484 23.9113 84.4625C23.6485 84.8766 23.5171 85.4579 23.5171 86.2064V89.4912H22.4421ZM31.5274 89.4912V83.9847H29.4371V83.2441L31.5274 83.0888V82.3602C31.5274 81.8506 31.6229 81.4524 31.8141 81.1657C32.0131 80.8711 32.2879 80.664 32.6382 80.5446C32.9886 80.4172 33.3947 80.3535 33.8566 80.3535C34.207 80.3535 34.5136 80.3774 34.7764 80.4252C35.0391 80.4729 35.2661 80.5287 35.4572 80.5924L35.2183 81.4166C35.059 81.3688 34.86 81.329 34.6211 81.2971C34.3822 81.2573 34.1473 81.2374 33.9163 81.2374C33.5023 81.2374 33.1797 81.325 32.9488 81.5002C32.7179 81.6754 32.6024 82.0098 32.6024 82.5035V83.0888H35.0153V83.9847H32.6024V89.4912H31.5274ZM39.9557 91.3785C39.3505 90.6777 38.9046 89.8854 38.6179 89.0015C38.3392 88.1096 38.1998 87.1819 38.1998 86.2184C38.1998 85.2468 38.3392 84.3112 38.6179 83.4113C38.9046 82.5035 39.3505 81.6873 39.9557 80.9627H40.9471C40.3897 81.7112 39.9677 82.5354 39.681 83.4352C39.4023 84.3351 39.2629 85.2588 39.2629 86.2064C39.2629 87.1301 39.4023 88.0379 39.681 88.9298C39.9677 89.8137 40.3857 90.6299 40.9352 91.3785H39.9557ZM44.5498 83.7577C44.6214 83.479 44.713 83.1764 44.8245 82.8499C44.936 82.5234 45.0554 82.197 45.1828 81.8705C45.3182 81.544 45.4496 81.2414 45.577 80.9627H46.3534C46.2818 81.2653 46.2061 81.5918 46.1265 81.9421C46.0468 82.2846 45.9752 82.627 45.9115 82.9694C45.8478 83.3038 45.796 83.6104 45.7562 83.8891H44.6214L44.5498 83.7577ZM46.7595 83.7577C46.8312 83.479 46.9228 83.1764 47.0343 82.8499C47.1458 82.5234 47.2652 82.197 47.3926 81.8705C47.528 81.544 47.6594 81.2414 47.7868 80.9627H48.5632C48.4915 81.2653 48.4159 81.5918 48.3362 81.9421C48.2566 82.2846 48.1849 82.627 48.1212 82.9694C48.0575 83.3038 48.0058 83.6104 47.966 83.8891H46.8312L46.7595 83.7577ZM51.1266 89.4912L55.379 80.9627H56.2987L52.0464 89.4912H51.1266ZM55.582 89.5987C55.0963 89.5987 54.6902 89.4235 54.3637 89.0731C54.0451 88.7148 53.8859 88.2131 53.8859 87.5681C53.8859 86.9231 54.0372 86.4254 54.3398 86.075C54.6503 85.7246 55.0724 85.5494 55.6059 85.5494C56.0917 85.5494 56.4938 85.7246 56.8123 86.075C57.1388 86.4254 57.3021 86.9231 57.3021 87.5681C57.3021 88.2131 57.1468 88.7148 56.8362 89.0731C56.5257 89.4235 56.1076 89.5987 55.582 89.5987ZM55.594 88.9059C55.8647 88.9059 56.0678 88.7984 56.2032 88.5834C56.3385 88.3684 56.4062 88.03 56.4062 87.5681C56.4062 87.0983 56.3385 86.7638 56.2032 86.5648C56.0678 86.3577 55.8647 86.2542 55.594 86.2542C55.3232 86.2542 55.1162 86.3577 54.9729 86.5648C54.8375 86.7638 54.7698 87.0983 54.7698 87.5681C54.7698 88.03 54.8375 88.3684 54.9729 88.5834C55.1162 88.7984 55.3232 88.9059 55.594 88.9059ZM51.8314 84.9164C51.3456 84.9164 50.9395 84.7412 50.613 84.3908C50.2945 84.0325 50.1352 83.5308 50.1352 82.8858C50.1352 82.2408 50.2865 81.7431 50.5891 81.3927C50.8997 81.0423 51.3217 80.8671 51.8553 80.8671C52.341 80.8671 52.7432 81.0423 53.0617 81.3927C53.3882 81.7431 53.5514 82.2408 53.5514 82.8858C53.5514 83.5308 53.3961 84.0325 53.0856 84.3908C52.775 84.7412 52.357 84.9164 51.8314 84.9164ZM51.8433 84.2236C52.1141 84.2236 52.3171 84.1161 52.4525 83.9011C52.5879 83.6861 52.6556 83.3476 52.6556 82.8858C52.6556 82.4159 52.5879 82.0815 52.4525 81.8824C52.3171 81.6754 52.1141 81.5718 51.8433 81.5718C51.5726 81.5718 51.3655 81.6754 51.2222 81.8824C51.0868 82.0815 51.0191 82.4159 51.0191 82.8858C51.0191 83.3476 51.0868 83.6861 51.2222 83.9011C51.3655 84.1161 51.5726 84.2236 51.8433 84.2236ZM60.5703 89.6107C60.1801 89.6107 59.8217 89.543 59.4952 89.4076C59.1767 89.2722 58.902 89.0652 58.6711 88.7865C58.4401 88.5078 58.261 88.1574 58.1335 87.7353C58.0141 87.3133 57.9544 86.8196 57.9544 86.2542C57.9544 85.5455 58.0539 84.9482 58.253 84.4625C58.46 83.9688 58.7666 83.5985 59.1727 83.3516C59.5789 83.0968 60.0845 82.9694 60.6897 82.9694C60.9844 82.9694 61.2432 83.0092 61.4661 83.0888C61.6971 83.1685 61.8922 83.2799 62.0514 83.4233C62.2186 83.5587 62.35 83.7179 62.4456 83.9011H62.5173C62.5093 83.8214 62.4974 83.7299 62.4814 83.6263C62.4735 83.5149 62.4655 83.4034 62.4575 83.2919C62.4496 83.1724 62.4456 83.061 62.4456 82.9574V80.4132H63.5087V89.4912H62.6248L62.5053 88.6312H62.4575C62.3381 88.8223 62.1908 88.9935 62.0156 89.1448C61.8484 89.2882 61.6453 89.4036 61.4064 89.4912C61.1755 89.5708 60.8968 89.6107 60.5703 89.6107ZM60.7733 88.7387C61.3387 88.7387 61.7568 88.5436 62.0275 88.1534C62.3062 87.7552 62.4456 87.2177 62.4456 86.5409V86.302C62.4456 85.8321 62.3938 85.4141 62.2903 85.0478C62.1868 84.6735 62.0156 84.3789 61.7767 84.1639C61.5378 83.9489 61.2153 83.8413 60.8092 83.8413C60.2517 83.8413 59.8178 84.0484 59.5072 84.4625C59.2046 84.8766 59.0533 85.5096 59.0533 86.3617C59.0533 87.15 59.1926 87.7433 59.4714 88.1415C59.758 88.5396 60.192 88.7387 60.7733 88.7387ZM70.0378 81.0941C69.9661 81.3728 69.8745 81.6754 69.7631 82.0019C69.6516 82.3283 69.5281 82.6548 69.3928 82.9813C69.2654 83.3078 69.1379 83.6104 69.0105 83.8891H68.2341C68.3058 83.5865 68.3814 83.264 68.4611 82.9216C68.5407 82.5712 68.6124 82.2288 68.6761 81.8944C68.7398 81.5519 68.7915 81.2414 68.8314 80.9627H69.9661L70.0378 81.0941ZM67.828 81.0941C67.7563 81.3728 67.6648 81.6754 67.5533 82.0019C67.4418 82.3283 67.3184 82.6548 67.183 82.9813C67.0556 83.3078 66.9282 83.6104 66.8008 83.8891H66.0243C66.096 83.5865 66.1717 83.264 66.2513 82.9216C66.3309 82.5712 66.4026 82.2288 66.4663 81.8944C66.53 81.5519 66.5818 81.2414 66.6216 80.9627H67.7563L67.828 81.0941ZM74.1421 91.1635C74.2297 90.8131 74.3133 90.4468 74.3929 90.0646C74.4726 89.6903 74.5482 89.32 74.6199 88.9537C74.6916 88.5874 74.7473 88.2529 74.7871 87.9503H76.0652L76.1608 88.0937C76.105 88.3246 76.0334 88.5715 75.9458 88.8343C75.8582 89.0891 75.7626 89.3479 75.6591 89.6107C75.5635 89.8814 75.46 90.1482 75.3485 90.411C75.245 90.6737 75.1375 90.9246 75.026 91.1635H74.1421Z" fill="url(#paint0_radial_2_66)"/>
<defs>
<radialGradient id="paint0_radial_2_66" cx="0" cy="0" r="1" gradientUnits="userSpaceOnUse" gradientTransform="translate(110.397 54.6809) rotate(90) scale(58.1897 110.397)">
<stop offset="0.535826" stop-color="#B5C5FF"/>
<stop offset="1" stop-color="white" stop-opacity="0"/>
</radialGradient>
</defs>
</svg>
