<svg width="106" height="45" viewBox="0 0 106 45" fill="none" xmlns="http://www.w3.org/2000/svg">
<path d="M105.838 9.49121V8.77453L103.891 8.59536V3.98469L105.647 3.8294V3.08883H103.031L102.888 4.25942H102.84C102.617 3.83737 102.374 3.51884 102.112 3.30384C101.841 3.08087 101.486 2.96938 101.048 2.96938C100.778 2.96938 100.539 2.99327 100.332 3.04105C100.117 3.08883 99.9217 3.15254 99.7465 3.23217L100.033 4.1758C100.161 4.10413 100.312 4.04441 100.487 3.99663C100.662 3.94089 100.849 3.91302 101.048 3.91302C101.391 3.91302 101.693 4.02052 101.956 4.23553C102.219 4.45053 102.426 4.73721 102.577 5.09555C102.729 5.45389 102.804 5.84807 102.804 6.27808V8.59536L100.941 8.77453V9.49121H105.838ZM98.4611 9.49121V8.77453L96.1797 8.59536V3.98469L98.27 3.8294V3.08883H95.1046V8.59536L92.9665 8.77453V9.49121H98.4611ZM95.7496 1.93019C95.9567 1.93019 96.1359 1.86649 96.2872 1.73908C96.4305 1.61167 96.5022 1.42453 96.5022 1.17767C96.5022 0.914889 96.4305 0.723773 96.2872 0.604326C96.1359 0.476915 95.9567 0.41321 95.7496 0.41321C95.5426 0.41321 95.3674 0.476915 95.2241 0.604326C95.0728 0.723773 94.9971 0.914889 94.9971 1.17767C94.9971 1.42453 95.0728 1.61167 95.2241 1.73908C95.3674 1.86649 95.5426 1.93019 95.7496 1.93019ZM91.2989 9.49121V3.08883H90.4389L90.2836 4.03247H90.2239C90.0965 3.78561 89.9332 3.58653 89.7342 3.43523C89.5271 3.27597 89.2882 3.1605 89.0175 3.08883C88.7467 3.0092 88.4521 2.96938 88.1336 2.96938C87.4886 2.96938 86.9709 3.15254 86.5808 3.51884C86.1826 3.87718 85.9835 4.44257 85.9835 5.21499V9.49121H87.0585V5.40611C87.0585 4.86462 87.17 4.47044 87.393 4.22358C87.608 3.96876 87.9584 3.84135 88.4441 3.84135C89.0971 3.84135 89.559 4.04839 89.8297 4.46248C90.0925 4.87656 90.2239 5.45787 90.2239 6.20641V9.49121H91.2989ZM80.2905 9.61066C80.7444 9.61066 81.1506 9.55093 81.5089 9.43149C81.8672 9.31204 82.1539 9.10102 82.3689 8.79842C82.576 8.49582 82.6795 8.07775 82.6795 7.54422V3.98469H84.4234V3.24411L82.6795 3.053L82.4645 1.38073H81.6045V3.08883H79.108V3.98469H81.6045V7.34116C81.6045 7.65968 81.5607 7.92247 81.4731 8.12951C81.3775 8.33655 81.2262 8.49183 81.0192 8.59536C80.8121 8.69091 80.5454 8.73869 80.2189 8.73869C80.0118 8.73869 79.7889 8.71878 79.55 8.67897C79.3111 8.63915 79.104 8.59934 78.9288 8.55952V9.41954C79.12 9.46732 79.331 9.51112 79.5619 9.55093C79.7928 9.59075 80.0357 9.61066 80.2905 9.61066ZM75.0515 9.49121V3.98469H77.1418V3.24411L75.0515 3.08883V2.3602C75.0515 1.85056 74.9559 1.4524 74.7648 1.16573C74.5657 0.871092 74.291 0.66405 73.9406 0.544602C73.5902 0.417192 73.1841 0.353486 72.7222 0.353486C72.3719 0.353486 72.0653 0.377376 71.8025 0.425154C71.5397 0.472934 71.3128 0.528676 71.1217 0.592381L71.3605 1.41657C71.5198 1.36879 71.7189 1.32897 71.9578 1.29712C72.1967 1.2573 72.4316 1.2374 72.6625 1.2374C73.0766 1.2374 73.3991 1.32499 73.63 1.50018C73.861 1.67537 73.9764 2.00982 73.9764 2.50354V3.08883H71.5636V3.98469H73.9764V9.49121H75.0515ZM66.6232 11.3785C67.2284 10.6777 67.6743 9.88539 67.961 9.00148C68.2397 8.1096 68.379 7.18189 68.379 6.21835C68.379 5.24685 68.2397 4.31118 67.961 3.41134C67.6743 2.50354 67.2284 1.68732 66.6232 0.962668H65.6317C66.1892 1.71121 66.6112 2.53539 66.8979 3.43523C67.1766 4.33507 67.3159 5.25879 67.3159 6.20641C67.3159 7.13013 67.1766 8.03793 66.8979 8.92981C66.6112 9.81372 66.1931 10.6299 65.6437 11.3785H66.6232ZM62.0291 3.75774C61.9574 3.47903 61.8658 3.17643 61.7544 2.84994C61.6429 2.52345 61.5234 2.19696 61.396 1.87047C61.2606 1.54398 61.1293 1.24138 61.0018 0.962668H60.2254C60.2971 1.26527 60.3728 1.59176 60.4524 1.94214C60.532 2.28455 60.6037 2.62697 60.6674 2.96938C60.7311 3.30384 60.7829 3.61042 60.8227 3.88913H61.9574L62.0291 3.75774ZM59.8193 3.75774C59.7476 3.47903 59.6561 3.17643 59.5446 2.84994C59.4331 2.52345 59.3137 2.19696 59.1862 1.87047C59.0509 1.54398 58.9195 1.24138 58.7921 0.962668H58.0157C58.0873 1.26527 58.163 1.59176 58.2426 1.94214C58.3222 2.28455 58.3939 2.62697 58.4576 2.96938C58.5213 3.30384 58.5731 3.61042 58.6129 3.88913H59.7476L59.8193 3.75774ZM50.7101 9.49121L53.983 0.962668H55.0103L51.7374 9.49121H50.7101ZM48.3259 9.49121V3.08883H47.4658L47.3106 4.03247H47.2508C47.1234 3.78561 46.9602 3.58653 46.7611 3.43523C46.5541 3.27597 46.3152 3.1605 46.0444 3.08883C45.7737 3.0092 45.479 2.96938 45.1605 2.96938C44.5155 2.96938 43.9979 3.15254 43.6077 3.51884C43.2095 3.87718 43.0105 4.44257 43.0105 5.21499V9.49121H44.0855V5.40611C44.0855 4.86462 44.197 4.47044 44.4199 4.22358C44.6349 3.96876 44.9853 3.84135 45.4711 3.84135C46.1241 3.84135 46.5859 4.04839 46.8567 4.46248C47.1194 4.87656 47.2508 5.45787 47.2508 6.20641V9.49121H48.3259ZM36.3858 9.49121L39.6587 0.962668H40.6859L37.413 9.49121H36.3858ZM34.0015 9.49121V3.08883H33.1415L32.9862 4.03247H32.9265C32.7991 3.78561 32.6358 3.58653 32.4368 3.43523C32.2297 3.27597 31.9908 3.1605 31.7201 3.08883C31.4493 3.0092 31.1547 2.96938 30.8362 2.96938C30.1911 2.96938 29.6735 3.15254 29.2833 3.51884C28.8852 3.87718 28.6861 4.44257 28.6861 5.21499V9.49121H29.7611V5.40611C29.7611 4.86462 29.8726 4.47044 30.0956 4.22358C30.3106 3.96876 30.661 3.84135 31.1467 3.84135C31.7997 3.84135 32.2616 4.04839 32.5323 4.46248C32.7951 4.87656 32.9265 5.45787 32.9265 6.20641V9.49121H34.0015ZM22.0614 9.49121L25.3343 0.962668H26.3615L23.0887 9.49121H22.0614ZM15.831 9.61066C16.2849 9.61066 16.691 9.55093 17.0493 9.43149C17.4077 9.31204 17.6943 9.10102 17.9093 8.79842C18.1164 8.49582 18.2199 8.07775 18.2199 7.54422V3.98469H19.9638V3.24411L18.2199 3.053L18.0049 1.38073H17.1449V3.08883H14.6484V3.98469H17.1449V7.34116C17.1449 7.65968 17.1011 7.92247 17.0135 8.12951C16.9179 8.33655 16.7666 8.49183 16.5596 8.59536C16.3525 8.69091 16.0858 8.73869 15.7593 8.73869C15.5522 8.73869 15.3293 8.71878 15.0904 8.67897C14.8515 8.63915 14.6444 8.59934 14.4693 8.55952V9.41954C14.6604 9.46732 14.8714 9.51112 15.1023 9.55093C15.3333 9.59075 15.5761 9.61066 15.831 9.61066ZM7.73708 9.49121L11.0099 0.962668H12.0372L8.76433 9.49121H7.73708ZM1.5066 9.61066C1.9605 9.61066 2.36662 9.55093 2.72497 9.43149C3.08331 9.31204 3.36998 9.10102 3.58499 8.79842C3.79203 8.49582 3.89555 8.07775 3.89555 7.54422V3.98469H5.63948V3.24411L3.89555 3.053L3.68055 1.38073H2.82052V3.08883H0.324074V3.98469H2.82052V7.34116C2.82052 7.65968 2.77673 7.92247 2.68913 8.12951C2.59357 8.33655 2.44227 8.49183 2.23523 8.59536C2.02819 8.69091 1.76142 8.73869 1.43493 8.73869C1.22789 8.73869 1.00492 8.71878 0.766029 8.67897C0.527135 8.63915 0.320092 8.59934 0.144903 8.55952V9.41954C0.336019 9.46732 0.547043 9.51112 0.777974 9.55093C1.00891 9.59075 1.25178 9.61066 1.5066 9.61066ZM100.845 25.4912L104.118 16.9627H105.145L101.873 25.4912H100.845ZM98.4611 25.4912V19.0888H97.6011L97.4458 20.0325H97.3861C97.2587 19.7856 97.0954 19.5865 96.8963 19.4352C96.6893 19.276 96.4504 19.1605 96.1797 19.0888C95.9089 19.0092 95.6143 18.9694 95.2957 18.9694C94.6507 18.9694 94.1331 19.1525 93.7429 19.5188C93.3448 19.8772 93.1457 20.4426 93.1457 21.215V25.4912H94.2207V21.4061C94.2207 20.8646 94.3322 20.4704 94.5552 20.2236C94.7702 19.9688 95.1206 19.8413 95.6063 19.8413C96.2593 19.8413 96.7212 20.0484 96.9919 20.4625C97.2547 20.8766 97.3861 21.4579 97.3861 22.2064V25.4912H98.4611ZM86.521 25.4912L89.7939 16.9627H90.8211L87.5483 25.4912H86.521ZM84.1367 25.4912V19.0888H83.2767L83.1214 20.0325H83.0617C82.9343 19.7856 82.7711 19.5865 82.572 19.4352C82.3649 19.276 82.1261 19.1605 81.8553 19.0888C81.5846 19.0092 81.2899 18.9694 80.9714 18.9694C80.3264 18.9694 79.8088 19.1525 79.4186 19.5188C79.0204 19.8772 78.8213 20.4426 78.8213 21.215V25.4912H79.8964V21.4061C79.8964 20.8646 80.0079 20.4704 80.2308 20.2236C80.4458 19.9688 80.7962 19.8413 81.282 19.8413C81.9349 19.8413 82.3968 20.0484 82.6675 20.4625C82.9303 20.8766 83.0617 21.4579 83.0617 22.2064V25.4912H84.1367ZM72.1967 25.4912L75.4695 16.9627H76.4968L73.2239 25.4912H72.1967ZM69.8124 25.4912V19.0888H68.9524L68.7971 20.0325H68.7374C68.61 19.7856 68.4467 19.5865 68.2476 19.4352C68.0406 19.276 67.8017 19.1605 67.531 19.0888C67.2602 19.0092 66.9656 18.9694 66.647 18.9694C66.002 18.9694 65.4844 19.1525 65.0942 19.5188C64.6961 19.8772 64.497 20.4426 64.497 21.215V25.4912H65.572V21.4061C65.572 20.8646 65.6835 20.4704 65.9065 20.2236C66.1215 19.9688 66.4719 19.8413 66.9576 19.8413C67.6106 19.8413 68.0724 20.0484 68.3432 20.4625C68.606 20.8766 68.7374 21.4579 68.7374 22.2064V25.4912H69.8124ZM58.0276 17.0941C58.0993 17.3728 58.1908 17.6754 58.3023 18.0019C58.4138 18.3283 58.5372 18.6548 58.6726 18.9813C58.8 19.3078 58.9274 19.6104 59.0549 19.8891H59.8313C59.7596 19.5865 59.6839 19.264 59.6043 18.9216C59.5247 18.5712 59.453 18.2288 59.3893 17.8944C59.3256 17.5519 59.2738 17.2414 59.234 16.9627H58.0993L58.0276 17.0941ZM60.2374 17.0941C60.309 17.3728 60.4006 17.6754 60.5121 18.0019C60.6236 18.3283 60.747 18.6548 60.8824 18.9813C61.0098 19.3078 61.1372 19.6104 61.2646 19.8891H62.041C61.9694 19.5865 61.8937 19.264 61.8141 18.9216C61.7345 18.5712 61.6628 18.2288 61.5991 17.8944C61.5354 17.5519 61.4836 17.2414 61.4438 16.9627H60.309L60.2374 17.0941ZM53.4216 16.9627C52.8164 17.6634 52.3744 18.4597 52.0957 19.3516C51.8091 20.2355 51.6657 21.1593 51.6657 22.1228C51.6657 23.0943 51.8091 24.034 52.0957 24.9418C52.3744 25.8416 52.8164 26.6538 53.4216 27.3785H54.413C53.8556 26.6299 53.4375 25.8058 53.1588 24.9059C52.8721 24.0061 52.7288 23.0824 52.7288 22.1347C52.7288 21.211 52.8721 20.3072 53.1588 19.4233C53.4375 18.5314 53.8516 17.7112 54.4011 16.9627H53.4216ZM43.7033 17.0941C43.7749 17.3728 43.8665 17.6754 43.978 18.0019C44.0895 18.3283 44.2129 18.6548 44.3483 18.9813C44.4757 19.3078 44.6031 19.6104 44.7305 19.8891H45.5069C45.4352 19.5865 45.3596 19.264 45.28 18.9216C45.2003 18.5712 45.1287 18.2288 45.065 17.8944C45.0012 17.5519 44.9495 17.2414 44.9097 16.9627H43.7749L43.7033 17.0941ZM45.913 17.0941C45.9847 17.3728 46.0763 17.6754 46.1878 18.0019C46.2992 18.3283 46.4227 18.6548 46.558 18.9813C46.6855 19.3078 46.8129 19.6104 46.9403 19.8891H47.7167C47.645 19.5865 47.5694 19.264 47.4897 18.9216C47.4101 18.5712 47.3384 18.2288 47.2747 17.8944C47.211 17.5519 47.1593 17.2414 47.1194 16.9627H45.9847L45.913 17.0941ZM105.623 41.4912V40.7745L103.342 40.5954V35.9847L105.432 35.8294V35.0888H102.267V40.5954L100.129 40.7745V41.4912H105.623ZM102.912 33.9302C103.119 33.9302 103.298 33.8665 103.449 33.7391C103.593 33.6117 103.664 33.4245 103.664 33.1777C103.664 32.9149 103.593 32.7238 103.449 32.6043C103.298 32.4769 103.119 32.4132 102.912 32.4132C102.705 32.4132 102.53 32.4769 102.386 32.6043C102.235 32.7238 102.159 32.9149 102.159 33.1777C102.159 33.4245 102.235 33.6117 102.386 33.7391C102.53 33.8665 102.705 33.9302 102.912 33.9302ZM98.4611 41.4912V35.0888H97.6011L97.4458 36.0325H97.3861C97.2587 35.7856 97.0954 35.5865 96.8963 35.4352C96.6893 35.276 96.4504 35.1605 96.1797 35.0888C95.9089 35.0092 95.6143 34.9694 95.2957 34.9694C94.6507 34.9694 94.1331 35.1525 93.7429 35.5188C93.3448 35.8772 93.1457 36.4426 93.1457 37.215V41.4912H94.2207V37.4061C94.2207 36.8646 94.3322 36.4704 94.5552 36.2236C94.7702 35.9688 95.1206 35.8413 95.6063 35.8413C96.2593 35.8413 96.7212 36.0484 96.9919 36.4625C97.2547 36.8766 97.3861 37.4579 97.3861 38.2064V41.4912H98.4611ZM87.4527 41.6107C87.9066 41.6107 88.3127 41.5509 88.6711 41.4315C89.0294 41.312 89.3161 41.101 89.5311 40.7984C89.7381 40.4958 89.8417 40.0778 89.8417 39.5442V35.9847H91.5856V35.2441L89.8417 35.053L89.6267 33.3807H88.7666V35.0888H86.2702V35.9847H88.7666V39.3412C88.7666 39.6597 88.7228 39.9225 88.6352 40.1295C88.5397 40.3366 88.3884 40.4918 88.1813 40.5954C87.9743 40.6909 87.7075 40.7387 87.3811 40.7387C87.174 40.7387 86.951 40.7188 86.7121 40.679C86.4733 40.6392 86.2662 40.5993 86.091 40.5595V41.4195C86.2821 41.4673 86.4932 41.5111 86.7241 41.5509C86.955 41.5908 87.1979 41.6107 87.4527 41.6107ZM77.3926 41.4912L74.9679 38.2184L77.2732 35.0888H76.0668L74.3467 37.4897L72.6267 35.0888H71.4203L73.7375 38.2184L71.3128 41.4912H72.5192L74.3467 38.947L76.1862 41.4912H77.3926ZM68.2476 43.1635C68.16 42.8131 68.0764 42.4468 67.9968 42.0646C67.9172 41.6903 67.8415 41.32 67.7698 40.9537C67.6982 40.5874 67.6424 40.2529 67.6026 39.9503H66.3245L66.229 40.0937C66.2847 40.3246 66.3564 40.5715 66.444 40.8343C66.5316 41.0891 66.6271 41.3479 66.7307 41.6107C66.8262 41.8814 66.9297 42.1482 67.0412 42.411C67.1447 42.6737 67.2522 42.9246 67.3637 43.1635H68.2476ZM54.8191 44.4177C54.9784 44.4177 55.1337 44.4057 55.285 44.3818C55.4363 44.3659 55.5677 44.346 55.6792 44.3221V43.4979C55.5836 43.5139 55.4721 43.5298 55.3447 43.5457C55.2093 43.5616 55.0779 43.5696 54.9505 43.5696C54.7037 43.5696 54.5006 43.5298 54.3413 43.4501C54.1741 43.3705 54.0308 43.2471 53.9113 43.0799C53.7839 42.9126 53.6685 42.6936 53.5649 42.4229L53.2185 41.5509L55.9061 35.0888H54.855L53.326 38.8514C53.2225 39.0983 53.123 39.373 53.0274 39.6756C52.9239 39.9782 52.8323 40.2689 52.7527 40.5476H52.7169C52.6611 40.3485 52.6014 40.1534 52.5377 39.9623C52.474 39.7632 52.4143 39.5681 52.3585 39.377C52.2948 39.1859 52.2351 39.0067 52.1794 38.8395L50.9252 35.0888H49.8262L52.5138 42.3273C52.6651 42.7414 52.8323 43.1038 53.0155 43.4143C53.1907 43.7328 53.4216 43.9797 53.7083 44.1549C53.987 44.3301 54.3573 44.4177 54.8191 44.4177ZM41.2831 36.6297V35.6741H35.7886V36.6297H41.2831ZM41.2831 38.8992V37.9436H35.7886V38.8992H41.2831ZM33.1654 38.7439V37.7883H29.582V38.7439H33.1654ZM17.2524 36.1639C17.2524 35.9409 17.2524 35.702 17.2524 35.4472C17.2444 35.1844 17.2364 34.9335 17.2285 34.6947C17.2205 34.4478 17.2126 34.2368 17.2046 34.0616C17.332 34.1333 17.4475 34.193 17.551 34.2408C17.6545 34.2885 17.8098 34.3642 18.0168 34.4677L19.0083 34.9813L19.4741 34.1691L17.0971 32.9627H16.2251V41.4912H17.2524V36.1639ZM19.0441 41.4912V40.7745L17.2524 40.6551H16.2251L14.4215 40.7745V41.4912H19.0441ZM10.9502 43.1635C10.8626 42.8131 10.779 42.4468 10.6994 42.0646C10.6197 41.6903 10.5441 41.32 10.4724 40.9537C10.4008 40.5874 10.345 40.2529 10.3052 39.9503H9.02712L8.93156 40.0937C8.9873 40.3246 9.05897 40.5715 9.14656 40.8343C9.23416 41.0891 9.32972 41.3479 9.43324 41.6107C9.52879 41.8814 9.63232 42.1482 9.7438 42.411C9.84732 42.6737 9.95482 42.9246 10.0663 43.1635H10.9502ZM9.61241 36.5939C9.81945 36.5939 9.99464 36.5302 10.138 36.4028C10.2813 36.2753 10.353 36.0683 10.353 35.7816C10.353 35.479 10.2813 35.268 10.138 35.1486C9.99464 35.0291 9.81945 34.9694 9.61241 34.9694C9.40537 34.9694 9.23018 35.0291 9.08684 35.1486C8.9435 35.268 8.87183 35.479 8.87183 35.7816C8.87183 36.0683 8.9435 36.2753 9.08684 36.4028C9.23018 36.5302 9.40537 36.5939 9.61241 36.5939Z" fill="url(#paint0_radial_2_71)"/>
<defs>
<radialGradient id="paint0_radial_2_71" cx="0" cy="0" r="1" gradientUnits="userSpaceOnUse" gradientTransform="translate(43.0789 20.4912) rotate(90) scale(24 63.5)">
<stop offset="0.535826" stop-color="#B5C5FF"/>
<stop offset="1" stop-color="white" stop-opacity="0"/>
</radialGradient>
</defs>
</svg>
