<svg width="77" height="11" viewBox="0 0 77 11" fill="none" xmlns="http://www.w3.org/2000/svg">
<path d="M0.740574 8.49121V7.77453L2.68757 7.59536V2.98469L0.93169 2.8294V2.08883H3.54759L3.69092 3.25942H3.7387C3.96167 2.83737 4.20455 2.51884 4.46733 2.30384C4.73808 2.08087 5.09244 1.96938 5.53041 1.96938C5.80116 1.96938 6.04006 1.99327 6.2471 2.04105C6.4621 2.08883 6.6572 2.15254 6.83239 2.23217L6.54572 3.1758C6.41831 3.10413 6.26701 3.04441 6.09182 2.99663C5.91663 2.94089 5.72949 2.91302 5.53041 2.91302C5.188 2.91302 4.8854 3.02052 4.62261 3.23553C4.35983 3.45053 4.15279 3.73721 4.00149 4.09555C3.85019 4.45389 3.77454 4.84807 3.77454 5.27808V7.59536L5.63792 7.77453V8.49121H0.740574ZM11.1876 8.61066C10.5027 8.61066 9.91345 8.48325 9.41973 8.22843C8.92602 7.97361 8.54378 7.60332 8.27304 7.11757C8.01025 6.62385 7.87886 6.02263 7.87886 5.31391C7.87886 4.61315 8.00627 4.01592 8.26109 3.5222C8.51591 3.02052 8.87027 2.63829 9.32417 2.37551C9.77807 2.10476 10.3076 1.96938 10.9128 1.96938C11.4702 1.96938 11.948 2.09281 12.3462 2.33967C12.7523 2.58653 13.0629 2.93691 13.2779 3.39081C13.5009 3.83674 13.6123 4.37426 13.6123 5.00335V5.49308H8.96583C8.98176 6.0505 9.08528 6.49246 9.2764 6.81895C9.47547 7.14544 9.74224 7.38035 10.0767 7.52369C10.4191 7.65906 10.8133 7.72675 11.2592 7.72675C11.6096 7.72675 11.956 7.67897 12.2984 7.58341C12.6408 7.48785 12.9832 7.36044 13.3257 7.20118V8.15676C12.9594 8.31602 12.5931 8.43149 12.2267 8.50316C11.8604 8.57482 11.514 8.61066 11.1876 8.61066ZM12.5373 4.63306C12.5214 4.25879 12.4497 3.94027 12.3223 3.67748C12.1949 3.40673 12.0117 3.19969 11.7728 3.05636C11.5419 2.91302 11.2552 2.84135 10.9128 2.84135C10.3793 2.84135 9.9453 3.00459 9.61085 3.33108C9.28436 3.64961 9.07732 4.0836 8.98972 4.63306H12.5373ZM19.1261 8.61066C18.6722 8.61066 18.2661 8.55093 17.9078 8.43149C17.5494 8.31204 17.2628 8.10102 17.0478 7.79842C16.8407 7.49582 16.7372 7.07775 16.7372 6.54422V2.98469H14.9933V2.24411L16.7372 2.053L16.9522 0.380734H17.8122V2.08883H20.3087V2.98469H17.8122V6.34116C17.8122 6.65968 17.856 6.92247 17.9436 7.12951C18.0392 7.33655 18.1905 7.49183 18.3975 7.59536C18.6046 7.69091 18.8713 7.73869 19.1978 7.73869C19.4048 7.73869 19.6278 7.71878 19.8667 7.67897C20.1056 7.63915 20.3126 7.59934 20.4878 7.55952V8.41954C20.2967 8.46732 20.0857 8.51112 19.8548 8.55093C19.6238 8.59075 19.381 8.61066 19.1261 8.61066ZM24.6041 8.61066C23.8476 8.61066 23.2862 8.42352 22.9199 8.04926C22.5616 7.66702 22.3824 7.10164 22.3824 6.3531V2.08883H23.4574V6.18588C23.4574 6.69552 23.5609 7.08173 23.768 7.34452C23.983 7.6073 24.3493 7.73869 24.8669 7.73869C25.3128 7.73869 25.6632 7.64712 25.918 7.46396C26.1728 7.27285 26.352 7.0021 26.4555 6.65172C26.567 6.30134 26.6228 5.87929 26.6228 5.38558V2.08883H27.6978V8.49121H26.8378L26.6825 7.63119H26.6228C26.4715 7.87008 26.2963 8.0612 26.0972 8.20454C25.8981 8.34787 25.6752 8.4514 25.4283 8.5151C25.1814 8.57881 24.9067 8.61066 24.6041 8.61066ZM29.3893 8.49121V7.77453L31.3363 7.59536V2.98469L29.5804 2.8294V2.08883H32.1963L32.3396 3.25942H32.3874C32.6104 2.83737 32.8533 2.51884 33.116 2.30384C33.3868 2.08087 33.7411 1.96938 34.1791 1.96938C34.4499 1.96938 34.6888 1.99327 34.8958 2.04105C35.1108 2.08883 35.3059 2.15254 35.4811 2.23217L35.1944 3.1758C35.067 3.10413 34.9157 3.04441 34.7405 2.99663C34.5653 2.94089 34.3782 2.91302 34.1791 2.91302C33.8367 2.91302 33.5341 3.02052 33.2713 3.23553C33.0085 3.45053 32.8015 3.73721 32.6502 4.09555C32.4989 4.45389 32.4232 4.84807 32.4232 5.27808V7.59536L34.2866 7.77453V8.49121H29.3893ZM36.7665 8.49121V2.08883H37.6265L37.7818 3.03247H37.8415C37.9689 2.78561 38.1321 2.58653 38.3312 2.43523C38.5383 2.27597 38.7772 2.1605 39.0479 2.08883C39.3187 2.0092 39.6133 1.96938 39.9318 1.96938C40.5768 1.96938 41.0944 2.15254 41.4846 2.51884C41.8828 2.87718 42.0819 3.44257 42.0819 4.21499V8.49121H41.0068V4.40611C41.0068 3.86462 40.8954 3.47044 40.6724 3.22358C40.4574 2.96876 40.107 2.84135 39.6213 2.84135C38.9683 2.84135 38.5064 3.04839 38.2357 3.46248C37.9729 3.87656 37.8415 4.45787 37.8415 5.20641V8.49121H36.7665ZM50.7325 8.49121V2.08883H51.473L51.6283 2.79357H51.6881C51.7916 2.57857 51.9031 2.41134 52.0225 2.29189C52.142 2.17244 52.2694 2.08883 52.4047 2.04105C52.5481 1.99327 52.7034 1.96938 52.8706 1.96938C53.1971 1.96938 53.4479 2.04902 53.6231 2.20828C53.8063 2.35958 53.9456 2.58653 54.0412 2.88913H54.077C54.2124 2.59449 54.3796 2.36754 54.5787 2.20828C54.7857 2.04902 55.0565 1.96938 55.3909 1.96938C55.7174 1.96938 55.9762 2.053 56.1673 2.22022C56.3664 2.38745 56.5058 2.64227 56.5854 2.98469C56.673 3.3271 56.7168 3.76906 56.7168 4.31055V8.49121H55.7612V4.48972C55.7612 4.15527 55.7453 3.87258 55.7134 3.64165C55.6895 3.40275 55.6338 3.2196 55.5462 3.09219C55.4586 2.96478 55.3153 2.90107 55.1162 2.90107C54.9251 2.90107 54.7618 2.99265 54.6265 3.1758C54.4911 3.35099 54.3876 3.61378 54.3159 3.96416C54.2442 4.31453 54.2084 4.75649 54.2084 5.29002V8.49121H53.2528V4.48972C53.2528 4.14731 53.2329 3.86063 53.1931 3.6297C53.1533 3.39081 53.0816 3.21164 52.9781 3.09219C52.8825 2.96478 52.7352 2.90107 52.5361 2.90107C52.3291 2.90107 52.1619 3.00061 52.0344 3.19969C51.907 3.39081 51.8155 3.66554 51.7597 4.02388C51.7119 4.37426 51.6881 4.79631 51.6881 5.29002V8.49121H50.7325ZM60.2358 8.61066C59.6067 8.61066 59.0971 8.45538 58.7069 8.14481C58.3247 7.83425 58.1335 7.36442 58.1335 6.73533C58.1335 6.27347 58.245 5.89124 58.468 5.58864C58.691 5.27808 59.0175 5.04714 59.4475 4.89584C59.8854 4.73658 60.415 4.64899 61.0361 4.63306L62.4098 4.59723V4.33444C62.4098 3.76109 62.2664 3.3709 61.9798 3.16386C61.6931 2.94885 61.3069 2.84135 60.8211 2.84135C60.4787 2.84135 60.1522 2.88515 59.8416 2.97274C59.5311 3.06034 59.2364 3.18377 58.9577 3.34303L58.5874 2.53079C58.89 2.37949 59.2245 2.24809 59.5908 2.13661C59.9651 2.02513 60.3951 1.96938 60.8808 1.96938C61.6851 1.96938 62.3023 2.15254 62.7323 2.51884C63.1702 2.87718 63.3892 3.43859 63.3892 4.20305V8.49121H62.5292L62.4098 7.6073H62.362C62.1868 7.83027 61.9917 8.0174 61.7767 8.1687C61.5696 8.31204 61.3387 8.41954 61.0839 8.49121C60.8291 8.57084 60.5464 8.61066 60.2358 8.61066ZM60.415 7.73869C60.7733 7.73869 61.1038 7.67499 61.4064 7.54758C61.709 7.4122 61.9519 7.21312 62.135 6.95034C62.3182 6.67959 62.4098 6.34116 62.4098 5.93504V5.36169L61.2631 5.39752C60.7534 5.41345 60.3433 5.47716 60.0328 5.58864C59.7222 5.69216 59.4952 5.83948 59.3519 6.03059C59.2165 6.21375 59.1488 6.43672 59.1488 6.6995C59.1488 7.06581 59.2643 7.33257 59.4952 7.4998C59.7262 7.65906 60.0328 7.73869 60.415 7.73869ZM64.9971 8.49121L67.4219 5.21835L65.1165 2.08883H66.323L68.043 4.48972L69.7631 2.08883H70.9695L68.6522 5.21835L71.077 8.49121H69.8706L68.043 5.94698L66.2035 8.49121H64.9971ZM74.1421 10.1635C74.2297 9.8131 74.3133 9.44679 74.3929 9.06456C74.4726 8.69029 74.5482 8.32 74.6199 7.9537C74.6916 7.58739 74.7473 7.25294 74.7871 6.95034H76.0652L76.1608 7.09368C76.105 7.32461 76.0334 7.57147 75.9458 7.83425C75.8582 8.08907 75.7626 8.34787 75.6591 8.61066C75.5635 8.88141 75.46 9.14817 75.3485 9.41096C75.245 9.67374 75.1375 9.92458 75.026 10.1635H74.1421ZM75.4799 3.59387C75.2729 3.59387 75.0977 3.53016 74.9543 3.40275C74.811 3.27534 74.7393 3.0683 74.7393 2.78163C74.7393 2.47903 74.811 2.268 74.9543 2.14856C75.0977 2.02911 75.2729 1.96938 75.4799 1.96938C75.687 1.96938 75.8621 2.02911 76.0055 2.14856C76.1488 2.268 76.2205 2.47903 76.2205 2.78163C76.2205 3.0683 76.1488 3.27534 76.0055 3.40275C75.8621 3.53016 75.687 3.59387 75.4799 3.59387Z" fill="url(#paint0_radial_2_72)"/>
<defs>
<radialGradient id="paint0_radial_2_72" cx="0" cy="0" r="1" gradientUnits="userSpaceOnUse" gradientTransform="translate(63.5 3.49121) rotate(90) scale(8 63.5)">
<stop offset="0.535826" stop-color="#B5C5FF"/>
<stop offset="1" stop-color="white" stop-opacity="0"/>
</radialGradient>
</defs>
</svg>
