<svg width="76" height="11" viewBox="0 0 76 11" fill="none" xmlns="http://www.w3.org/2000/svg">
<path d="M75.8383 8.49121V7.77453L73.8913 7.59536V2.98469L75.6472 2.8294V2.08883H73.0313L72.8879 3.25942H72.8402C72.6172 2.83737 72.3743 2.51884 72.1115 2.30384C71.8408 2.08087 71.4864 1.96938 71.0484 1.96938C70.7777 1.96938 70.5388 1.99327 70.3318 2.04105C70.1168 2.08883 69.9217 2.15254 69.7465 2.23217L70.0331 3.1758C70.1606 3.10413 70.3119 3.04441 70.487 2.99663C70.6622 2.94089 70.8494 2.91302 71.0484 2.91302C71.3909 2.91302 71.6935 3.02052 71.9562 3.23553C72.219 3.45053 72.4261 3.73721 72.5774 4.09555C72.7287 4.45389 72.8043 4.84807 72.8043 5.27808V7.59536L70.9409 7.77453V8.49121H75.8383ZM65.3913 8.61066C66.0761 8.61066 66.6654 8.48325 67.1591 8.22843C67.6528 7.97361 68.0351 7.60332 68.3058 7.11757C68.5686 6.62385 68.7 6.02263 68.7 5.31391C68.7 4.61315 68.5726 4.01592 68.3178 3.5222C68.0629 3.02052 67.7086 2.63829 67.2547 2.37551C66.8008 2.10476 66.2712 1.96938 65.666 1.96938C65.1086 1.96938 64.6308 2.09281 64.2327 2.33967C63.8265 2.58653 63.516 2.93691 63.301 3.39081C63.078 3.83674 62.9665 4.37426 62.9665 5.00335V5.49308H67.613C67.5971 6.0505 67.4936 6.49246 67.3025 6.81895C67.1034 7.14544 66.8366 7.38035 66.5022 7.52369C66.1597 7.65906 65.7656 7.72675 65.3196 7.72675C64.9693 7.72675 64.6229 7.67897 64.2804 7.58341C63.938 7.48785 63.5956 7.36044 63.2532 7.20118V8.15676C63.6195 8.31602 63.9858 8.43149 64.3521 8.50316C64.7184 8.57482 65.0648 8.61066 65.3913 8.61066ZM64.0415 4.63306C64.0575 4.25879 64.1291 3.94027 64.2566 3.67748C64.384 3.40673 64.5671 3.19969 64.806 3.05636C65.0369 2.91302 65.3236 2.84135 65.666 2.84135C66.1996 2.84135 66.6336 3.00459 66.968 3.33108C67.2945 3.64961 67.5015 4.0836 67.5891 4.63306H64.0415ZM57.4527 8.61066C57.9066 8.61066 58.3127 8.55093 58.6711 8.43149C59.0294 8.31204 59.3161 8.10102 59.5311 7.79842C59.7381 7.49582 59.8417 7.07775 59.8417 6.54422V2.98469H61.5856V2.24411L59.8417 2.053L59.6267 0.380734H58.7666V2.08883H56.2702V2.98469H58.7666V6.34116C58.7666 6.65968 58.7228 6.92247 58.6352 7.12951C58.5397 7.33655 58.3884 7.49183 58.1813 7.59536C57.9743 7.69091 57.7075 7.73869 57.3811 7.73869C57.174 7.73869 56.951 7.71878 56.7121 7.67897C56.4733 7.63915 56.2662 7.59934 56.091 7.55952V8.41954C56.2821 8.46732 56.4932 8.51112 56.7241 8.55093C56.955 8.59075 57.1979 8.61066 57.4527 8.61066ZM51.9748 8.61066C52.7313 8.61066 53.2927 8.42352 53.659 8.04926C54.0173 7.66702 54.1965 7.10164 54.1965 6.3531V2.08883H53.1214V6.18588C53.1214 6.69552 53.0179 7.08173 52.8109 7.34452C52.5959 7.6073 52.2296 7.73869 51.712 7.73869C51.266 7.73869 50.9157 7.64712 50.6608 7.46396C50.406 7.27285 50.2268 7.0021 50.1233 6.65172C50.0118 6.30134 49.9561 5.87929 49.9561 5.38558V2.08883H48.8811V8.49121H49.7411L49.8964 7.63119H49.9561C50.1074 7.87008 50.2826 8.0612 50.4817 8.20454C50.6807 8.34787 50.9037 8.4514 51.1506 8.5151C51.3974 8.57881 51.6722 8.61066 51.9748 8.61066ZM47.1896 8.49121V7.77453L45.2426 7.59536V2.98469L46.9985 2.8294V2.08883H44.3826L44.2392 3.25942H44.1914C43.9685 2.83737 43.7256 2.51884 43.4628 2.30384C43.1921 2.08087 42.8377 1.96938 42.3997 1.96938C42.129 1.96938 41.8901 1.99327 41.6831 2.04105C41.468 2.08883 41.273 2.15254 41.0978 2.23217L41.3844 3.1758C41.5118 3.10413 41.6631 3.04441 41.8383 2.99663C42.0135 2.94089 42.2007 2.91302 42.3997 2.91302C42.7422 2.91302 43.0448 3.02052 43.3075 3.23553C43.5703 3.45053 43.7774 3.73721 43.9287 4.09555C44.08 4.45389 44.1556 4.84807 44.1556 5.27808V7.59536L42.2922 7.77453V8.49121H47.1896ZM39.8124 8.49121V2.08883H38.9524L38.7971 3.03247H38.7374C38.61 2.78561 38.4467 2.58653 38.2476 2.43523C38.0406 2.27597 37.8017 2.1605 37.531 2.08883C37.2602 2.0092 36.9656 1.96938 36.647 1.96938C36.002 1.96938 35.4844 2.15254 35.0942 2.51884C34.6961 2.87718 34.497 3.44257 34.497 4.21499V8.49121H35.572V4.40611C35.572 3.86462 35.6835 3.47044 35.9065 3.22358C36.1215 2.96876 36.4719 2.84135 36.9576 2.84135C37.6106 2.84135 38.0724 3.04839 38.3432 3.46248C38.606 3.87656 38.7374 4.45787 38.7374 5.20641V8.49121H39.8124ZM25.8464 8.49121V2.08883H25.1058L24.9505 2.79357H24.8908C24.7873 2.57857 24.6758 2.41134 24.5564 2.29189C24.4369 2.17244 24.3095 2.08883 24.1741 2.04105C24.0308 1.99327 23.8755 1.96938 23.7083 1.96938C23.3818 1.96938 23.1309 2.04902 22.9558 2.20828C22.7726 2.35958 22.6333 2.58653 22.5377 2.88913H22.5019C22.3665 2.59449 22.1993 2.36754 22.0002 2.20828C21.7931 2.04902 21.5224 1.96938 21.1879 1.96938C20.8614 1.96938 20.6026 2.053 20.4115 2.22022C20.2125 2.38745 20.0731 2.64227 19.9935 2.98469C19.9059 3.3271 19.8621 3.76906 19.8621 4.31055V8.49121H20.8177V4.48972C20.8177 4.15527 20.8336 3.87258 20.8654 3.64165C20.8893 3.40275 20.9451 3.2196 21.0327 3.09219C21.1203 2.96478 21.2636 2.90107 21.4627 2.90107C21.6538 2.90107 21.817 2.99265 21.9524 3.1758C22.0878 3.35099 22.1913 3.61378 22.263 3.96416C22.3346 4.31453 22.3705 4.75649 22.3705 5.29002V8.49121H23.326V4.48972C23.326 4.14731 23.346 3.86063 23.3858 3.6297C23.4256 3.39081 23.4973 3.21164 23.6008 3.09219C23.6963 2.96478 23.8437 2.90107 24.0427 2.90107C24.2498 2.90107 24.417 3.00061 24.5444 3.19969C24.6718 3.39081 24.7634 3.66554 24.8191 4.02388C24.8669 4.37426 24.8908 4.79631 24.8908 5.29002V8.49121H25.8464ZM16.343 8.61066C16.9721 8.61066 17.4818 8.45538 17.872 8.14481C18.2542 7.83425 18.4453 7.36442 18.4453 6.73533C18.4453 6.27347 18.3338 5.89124 18.1109 5.58864C17.8879 5.27808 17.5614 5.04714 17.1314 4.89584C16.6934 4.73658 16.1639 4.64899 15.5427 4.63306L14.1691 4.59723V4.33444C14.1691 3.76109 14.3124 3.3709 14.5991 3.16386C14.8858 2.94885 15.272 2.84135 15.7577 2.84135C16.1002 2.84135 16.4267 2.88515 16.7372 2.97274C17.0478 3.06034 17.3424 3.18377 17.6211 3.34303L17.9914 2.53079C17.6888 2.37949 17.3544 2.24809 16.9881 2.13661C16.6138 2.02513 16.1838 1.96938 15.698 1.96938C14.8937 1.96938 14.2766 2.15254 13.8466 2.51884C13.4086 2.87718 13.1896 3.43859 13.1896 4.20305V8.49121H14.0496L14.1691 7.6073H14.2169C14.3921 7.83027 14.5872 8.0174 14.8022 8.1687C15.0092 8.31204 15.2401 8.41954 15.495 8.49121C15.7498 8.57084 16.0325 8.61066 16.343 8.61066ZM16.1639 7.73869C15.8055 7.73869 15.4751 7.67499 15.1725 7.54758C14.8699 7.4122 14.627 7.21312 14.4438 6.95034C14.2607 6.67959 14.1691 6.34116 14.1691 5.93504V5.36169L15.3158 5.39752C15.8254 5.41345 16.2355 5.47716 16.5461 5.58864C16.8567 5.69216 17.0836 5.83948 17.2269 6.03059C17.3623 6.21375 17.43 6.43672 17.43 6.6995C17.43 7.06581 17.3145 7.33257 17.0836 7.4998C16.8527 7.65906 16.5461 7.73869 16.1639 7.73869ZM11.5818 8.49121L9.15698 5.21835L11.4623 2.08883H10.2559L8.53585 4.48972L6.81581 2.08883H5.60939L7.92667 5.21835L5.50189 8.49121H6.7083L8.53585 5.94698L10.3753 8.49121H11.5818ZM2.43675 10.1635C2.34916 9.8131 2.26554 9.44679 2.18591 9.06456C2.10628 8.69029 2.03063 8.32 1.95896 7.9537C1.88729 7.58739 1.83155 7.25294 1.79174 6.95034H0.51365L0.418092 7.09368C0.473834 7.32461 0.545502 7.57147 0.633097 7.83425C0.720692 8.08907 0.81625 8.34787 0.919771 8.61066C1.01533 8.88141 1.11885 9.14817 1.23033 9.41096C1.33386 9.67374 1.44136 9.92458 1.55284 10.1635H2.43675ZM1.09894 3.59387C1.30598 3.59387 1.48117 3.53016 1.62451 3.40275C1.76785 3.27534 1.83952 3.0683 1.83952 2.78163C1.83952 2.47903 1.76785 2.268 1.62451 2.14856C1.48117 2.02911 1.30598 1.96938 1.09894 1.96938C0.8919 1.96938 0.71671 2.02911 0.573373 2.14856C0.430037 2.268 0.358368 2.47903 0.358368 2.78163C0.358368 3.0683 0.430037 3.27534 0.573373 3.40275C0.71671 3.53016 0.8919 3.59387 1.09894 3.59387Z" fill="url(#paint0_radial_2_73)"/>
<defs>
<radialGradient id="paint0_radial_2_73" cx="0" cy="0" r="1" gradientUnits="userSpaceOnUse" gradientTransform="translate(13.0789 3.49121) rotate(90) scale(8 63.5)">
<stop offset="0.535826" stop-color="#B5C5FF"/>
<stop offset="1" stop-color="white" stop-opacity="0"/>
</radialGradient>
</defs>
</svg>
